<svg xmlns="http://www.w3.org/2000/svg" xmlns:xlink="http://www.w3.org/1999/xlink" version="1.1" x="0px" y="0px" viewBox="0 0 1044.1 993.5" style="enable-background:new 0 0 1044.1 993.5;" xml:space="preserve">
<style type="text/css">
	@keyframes rotate{
		to{transform: rotate(360deg);}
	}
	.st0{fill:#E6E6E6;}
	.st1{fill-rule:evenodd;clip-rule:evenodd;fill:#F2F2F2;}
	.st2{fill:#FFFFFF;}
	.st3{fill:#410099;}
	#bottom-circle{
		transform-origin: 73.844% 72.723%;
		animation: "rotate" 15s linear infinite;
		-webkit-animation: "rotate" 15s linear infinite;
	}
	#dotted-lines{
		transform-origin: 52.833% 57.929%;
		animation: "rotate" 60s linear infinite reverse;
		-webkit-animation: "rotate" 60s linear infinite reverse;
	}
	#left-circle{
		transform-origin: 26.389% 57.682%;
		animation: "rotate" 25s linear infinite reverse;
		-webkit-animation: "rotate" 25s linear infinite reverse;
	}
	#top-circle{
		transform-origin: 65.709% 31.013%;
		animation: "rotate" 15s linear infinite;
		-webkit-animation: "rotate" 15s linear infinite;
	}
</style>
<g id="dotted-lines">
	<g>
		<path class="st0" d="M280.5,103.3l0.3,1.2c2.5-0.6,5-1.1,7.5-1.5l-0.2-1.3C285.5,102.2,283,102.8,280.5,103.3z"/>
		<path class="st0" d="M265.6,107.7l0.4,1.2c2.4-0.9,4.9-1.6,7.3-2.4l-0.4-1.2C270.5,106,268,106.8,265.6,107.7z"/>
		<path class="st0" d="M448.6,229.9l1.3-0.1c-0.2-2.6-0.4-5.2-0.7-7.7l-1.3,0.1C448.2,224.7,448.4,227.3,448.6,229.9z"/>
		<path class="st0" d="M295.8,100.7l0.1,1.3c2.5-0.3,5.1-0.5,7.7-0.7l-0.1-1.3C300.9,100.2,298.3,100.4,295.8,100.7z"/>
		<path class="st0" d="M428.6,164.1l-1.1,0.7c1.4,2.1,2.7,4.4,3.9,6.6l1.1-0.6C431.3,168.5,430,166.3,428.6,164.1z"/>
		<path class="st0" d="M409.2,140l-0.9,0.9c1.8,1.8,3.6,3.7,5.3,5.6l1-0.9C412.8,143.7,411,141.8,409.2,140z"/>
		<path class="st0" d="M419.6,151.5l-1,0.8c1.6,2,3.2,4.1,4.6,6.1l1-0.7C422.8,155.6,421.2,153.5,419.6,151.5z"/>
		<path class="st0" d="M436.2,177.6l-1.1,0.6c1.1,2.3,2.2,4.6,3.2,7l1.2-0.5C438.4,182.3,437.3,179.9,436.2,177.6z"/>
		<path class="st0" d="M446.9,261.1l1.3,0.2c0.4-2.5,0.8-5.1,1.1-7.7l-1.3-0.1C447.7,256,447.3,258.6,446.9,261.1z"/>
		<path class="st0" d="M450.1,237.5l-1.3,0v0.6c0,2.6-0.1,5.1-0.2,7.7l1.3,0.1c0.1-2.6,0.2-5.2,0.2-7.8V237.5z"/>
		<path class="st0" d="M446.5,206.8l-1.2,0.3c0.6,2.5,1.1,5,1.5,7.5l1.3-0.2C447.6,211.9,447.1,209.3,446.5,206.8z"/>
		<path class="st0" d="M443.5,276.1l1.2,0.4c0.7-2.5,1.4-5,1.9-7.5l-1.2-0.3C444.8,271.1,444.2,273.7,443.5,276.1z"/>
		<path class="st0" d="M438.4,290.6l1.2,0.5c1-2.4,1.9-4.8,2.8-7.3l-1.2-0.4C440.3,285.9,439.4,288.3,438.4,290.6z"/>
		<path class="st0" d="M442.2,191.9l-1.2,0.4c0.9,2.4,1.7,4.9,2.4,7.3l1.2-0.4C443.8,196.8,443,194.3,442.2,191.9z"/>
		<path class="st0" d="M371.3,113.3l-0.6,1.2c2.3,1.1,4.6,2.3,6.8,3.5l0.6-1.1C376,115.6,373.6,114.4,371.3,113.3z"/>
		<path class="st0" d="M341.7,104.4c2.5,0.6,5,1.2,7.5,1.9l0.3-1.2c-2.5-0.7-5-1.3-7.5-1.9L341.7,104.4z"/>
		<path class="st0" d="M326.6,101.9c2.5,0.3,5.1,0.6,7.6,1l0.2-1.3c-2.5-0.4-5.1-0.8-7.7-1L326.6,101.9z"/>
		<path class="st0" d="M311.2,99.8v1.3l0.5,0c2.4,0,4.8,0.1,7.2,0.2l0.1-1.3c-2.4-0.1-4.9-0.2-7.3-0.2L311.2,99.8z"/>
		<path class="st0" d="M384.9,120.7l-0.7,1.1c2.2,1.4,4.3,2.8,6.4,4.3l0.7-1C389.3,123.6,387.1,122.1,384.9,120.7z"/>
		<path class="st0" d="M356.5,108.6c2.4,0.8,4.8,1.7,7.2,2.7l0.5-1.2c-2.4-1-4.8-1.9-7.3-2.7L356.5,108.6z"/>
		<path class="st0" d="M397.6,129.7l-0.8,1c2,1.6,4,3.3,5.9,4.9l0.8-1C401.6,133,399.6,131.3,397.6,129.7z"/>
	</g>
	<g>
		<path class="st0" d="M966.8,420.2l0.6,1.1c2.2-1.3,4.4-2.6,6.4-4.1l-0.7-1.1C971.1,417.6,968.9,418.9,966.8,420.2z"/>
		<path class="st0" d="M953.2,426.7l0.5,1.2c2.4-0.9,4.7-1.9,7-3l-0.5-1.2C957.9,424.8,955.5,425.8,953.2,426.7z"/>
		<path class="st0" d="M979.1,411.6l0.8,1c2-1.6,3.9-3.3,5.7-5.1l-0.9-0.9C983,408.4,981.1,410,979.1,411.6z"/>
		<path class="st0" d="M923.8,432.7l0,1.3c2.5-0.1,5.1-0.3,7.6-0.6l-0.2-1.3C928.8,432.3,926.3,432.5,923.8,432.7z"/>
		<path class="st0" d="M938.7,430.8l0.3,1.3c2.5-0.5,5-1.1,7.4-1.8L946,429C943.6,429.7,941.2,430.3,938.7,430.8z"/>
		<path class="st0" d="M1010.8,361.6l1.2,0.3c0.6-2.5,1.1-5,1.5-7.5l-1.3-0.2C1011.9,356.6,1011.4,359.1,1010.8,361.6z"/>
		<path class="st0" d="M1009.8,308.8l-1.2,0.4c0.8,2.4,1.5,4.8,2.1,7.2l1.2-0.3C1011.3,313.6,1010.6,311.2,1009.8,308.8z"/>
		<path class="st0" d="M1013.5,338.8v0.4c0,2.5-0.1,5-0.3,7.5l1.3,0.1c0.2-2.5,0.3-5.1,0.3-7.6v-0.4H1013.5z"/>
		<path class="st0" d="M1006,375.8l1.2,0.5c1-2.3,1.9-4.7,2.7-7.1l-1.2-0.4C1007.9,371.2,1007,373.5,1006,375.8z"/>
		<path class="st0" d="M995.5,281.9l-1,0.8c1.5,2,3,4.1,4.3,6.2l1.1-0.7C998.5,286.1,997.1,284,995.5,281.9z"/>
		<path class="st0" d="M1003.7,294.8l-1.1,0.6c1.2,2.2,2.3,4.5,3.3,6.8l1.2-0.5C1006,299.4,1004.9,297,1003.7,294.8z"/>
		<path class="st0" d="M990,401.2l1,0.8c1.7-1.9,3.3-3.9,4.8-5.9l-1-0.8C993.2,397.4,991.6,399.3,990,401.2z"/>
		<path class="st0" d="M999,389.2l1.1,0.7c1.4-2.1,2.6-4.4,3.8-6.6l-1.1-0.6C1001.6,384.9,1000.4,387.1,999,389.2z"/>
		<path class="st0" d="M893.7,430.3c2.4,0.7,4.9,1.3,7.4,1.8l0.3-1.3c-2.5-0.5-4.9-1.1-7.3-1.8L893.7,430.3z"/>
		<path class="st0" d="M879.4,424.9c2.3,1.1,4.7,2.1,7,3l0.4-1.2c-2.3-0.9-4.7-1.9-6.9-2.9L879.4,424.9z"/>
		<path class="st0" d="M1014.4,331.2c-0.2-2.5-0.5-5.1-0.9-7.6l-1.3,0.2c0.4,2.4,0.7,5,0.9,7.5L1014.4,331.2z"/>
		<path class="st0" d="M908.6,433.3c2.5,0.3,5.1,0.5,7.6,0.6l0-1.3c-2.5-0.1-5-0.3-7.5-0.6L908.6,433.3z"/>
	</g>
	<g>
		<path class="st0" d="M638.6,907.1l0.4,1.2c2.4-0.9,4.8-1.9,7.1-3l-0.5-1.2C643.3,905.2,641,906.2,638.6,907.1z"/>
		<path class="st0" d="M665.2,892.5l0.8,1c2-1.5,4.1-3.2,6-4.8l-0.8-1C669.2,889.4,667.3,891,665.2,892.5z"/>
		<path class="st0" d="M652.4,900.8l0.6,1.1c2.2-1.2,4.5-2.6,6.6-3.9l-0.7-1.1C656.9,898.2,654.7,899.6,652.4,900.8z"/>
		<path class="st0" d="M608.9,913.6l0.1,1.3c2.5-0.2,5.1-0.5,7.7-0.8l-0.2-1.3C614,913.1,611.4,913.4,608.9,913.6z"/>
		<path class="st0" d="M624,911.4l0.3,1.2c2.5-0.5,5-1.2,7.5-1.9l-0.4-1.2C629,910.2,626.5,910.9,624,911.4z"/>
		<path class="st0" d="M593.7,913.6l-0.1,1.3c2.5,0.2,5.1,0.3,7.6,0.3h0.1l-0.1-1.3C598.7,913.8,596.2,913.8,593.7,913.6z"/>
		<path class="st0" d="M701.3,844.4l1.2,0.4c0.9-2.4,1.7-4.9,2.4-7.3l-1.2-0.4C703,839.5,702.2,842,701.3,844.4z"/>
		<path class="st0" d="M705.6,829.7l1.2,0.3c0.5-2.5,1-5.1,1.4-7.6l-1.3-0.2C706.6,824.8,706.1,827.3,705.6,829.7z"/>
		<path class="st0" d="M708,806.6v0.5c0,2.5-0.1,5.1-0.3,7.6l1.3,0.1c0.2-2.5,0.3-5.1,0.3-7.7v-0.5H708z"/>
		<path class="st0" d="M694.9,858.2l1.1,0.6c1.2-2.3,2.4-4.6,3.5-6.9l-1.2-0.5C697.3,853.7,696.2,856,694.9,858.2z"/>
		<path class="st0" d="M676.7,882.5l0.9,0.9c1.8-1.8,3.6-3.7,5.3-5.6l-1-0.8C680.3,878.9,678.5,880.8,676.7,882.5z"/>
		<path class="st0" d="M686.7,871l1,0.8c1.5-2.1,3-4.2,4.4-6.3l-1.1-0.7C689.7,866.9,688.2,869,686.7,871z"/>
		<path class="st0" d="M514.8,872c1.5,2,3.2,4.1,4.9,6l1-0.8c-1.7-1.9-3.3-3.9-4.8-5.9L514.8,872z"/>
		<path class="st0" d="M549.5,902c2.2,1.2,4.6,2.4,6.9,3.4l0.5-1.2c-2.3-1-4.6-2.2-6.8-3.4L549.5,902z"/>
		<path class="st0" d="M563.6,908.4c2.4,0.9,4.9,1.7,7.3,2.4l0.4-1.2c-2.4-0.7-4.9-1.5-7.2-2.4L563.6,908.4z"/>
		<path class="st0" d="M578.4,912.7c2.5,0.5,5,1,7.6,1.3l0.2-1.3c-2.5-0.4-5-0.8-7.5-1.3L578.4,912.7z"/>
		<path class="st0" d="M536.6,893.7c2,1.5,4.2,3,6.3,4.4l0.7-1.1c-2.1-1.4-4.2-2.8-6.3-4.3L536.6,893.7z"/>
		<path class="st0" d="M506.4,859c1.2,2.2,2.6,4.5,3.9,6.6l1.1-0.7c-1.4-2.1-2.7-4.3-3.9-6.5L506.4,859z"/>
		<path class="st0" d="M524.9,883.6c1.8,1.8,3.7,3.6,5.7,5.2l0.8-1c-1.9-1.7-3.8-3.4-5.6-5.2L524.9,883.6z"/>
	</g>
	<g>
		<path class="st0" d="M975.6,974.8l0.5,1.2c2.4-1,4.7-2.2,7-3.3l-0.6-1.1C980.2,972.7,977.9,973.8,975.6,974.8z"/>
		<path class="st0" d="M1043.8,863.9c-0.2-2.6-0.5-5.2-0.8-7.7l-1.3,0.2c0.4,2.5,0.6,5.1,0.8,7.6L1043.8,863.9z"/>
		<path class="st0" d="M946.2,983.1l0.2,1.3c2.6-0.4,5.1-0.8,7.6-1.3l-0.3-1.3C951.3,982.3,948.8,982.7,946.2,983.1z"/>
		<path class="st0" d="M961.2,980l0.3,1.2c2.5-0.7,5-1.5,7.4-2.3l-0.4-1.2C966.1,978.5,963.6,979.3,961.2,980z"/>
		<path class="st0" d="M931,984.1v1.3c2.6,0,5.2-0.1,7.7-0.3l-0.1-1.3C936.1,984,933.5,984.1,931,984.1z"/>
		<path class="st0" d="M1001.6,959l0.8,1c2-1.6,3.9-3.3,5.8-5.1l-0.9-0.9C1005.5,955.7,1003.5,957.4,1001.6,959z"/>
		<path class="st0" d="M1030.3,923.6l1.1,0.6c1.2-2.3,2.3-4.7,3.3-7l-1.2-0.5C1032.6,919,1031.5,921.4,1030.3,923.6z"/>
		<path class="st0" d="M1039.8,841.1l-1.2,0.3c0.7,2.5,1.3,4.9,1.8,7.4l1.2-0.3C1041.2,846.1,1040.5,843.6,1039.8,841.1z"/>
		<path class="st0" d="M1034.6,826.6l-1.2,0.5c1,2.3,2,4.7,2.8,7.1l1.2-0.4C1036.6,831.3,1035.6,828.9,1034.6,826.6z"/>
		<path class="st0" d="M1036.4,909.6l1.2,0.4c0.9-2.4,1.6-4.9,2.3-7.4l-1.2-0.3C1038.1,904.8,1037.3,907.2,1036.4,909.6z"/>
		<path class="st0" d="M1040.5,894.9l1.3,0.3c0.5-2.5,1-5.1,1.3-7.6l-1.3-0.2C1041.5,889.9,1041.1,892.4,1040.5,894.9z"/>
		<path class="st0" d="M1042.9,871.6v0.5c0,2.5-0.1,5.1-0.3,7.6l1.3,0.1c0.2-2.6,0.3-5.2,0.3-7.7v-0.5H1042.9z"/>
		<path class="st0" d="M1012.7,948.5l0.9,0.9c1.7-1.9,3.5-3.8,5.1-5.8l-1-0.8C1016.2,944.8,1014.5,946.7,1012.7,948.5z"/>
		<path class="st0" d="M1022.4,936.7l1,0.7c1.5-2.1,2.9-4.3,4.2-6.5l-1.1-0.7C1025.3,932.5,1023.9,934.6,1022.4,936.7z"/>
		<path class="st0" d="M1027.4,812.9l-1.1,0.7c1.3,2.2,2.6,4.4,3.8,6.6l1.1-0.6C1030.1,817.4,1028.8,815.1,1027.4,812.9z"/>
		<path class="st0" d="M989.1,967.8l0.7,1.1c2.2-1.3,4.3-2.7,6.5-4.2l-0.7-1C993.4,965.1,991.3,966.5,989.1,967.8z"/>
		<path class="st0" d="M915.6,984.4c2.6,0.3,5.1,0.6,7.7,0.8l0.1-1.3c-2.5-0.2-5.1-0.4-7.6-0.8L915.6,984.4z"/>
	</g>
	<g>
		<path class="st0" d="M351.3,750.9l-0.6,0.7c1.4,1.2,2.7,2.5,4,3.8l0.7-0.6C354.1,753.4,352.7,752.2,351.3,750.9z"/>
		<path class="st0" d="M337.3,858.1l0.4,0.8c1.7-0.8,3.3-1.7,4.9-2.7l-0.5-0.8C340.6,856.4,339,857.3,337.3,858.1z"/>
		<path class="st0" d="M346.7,852.3l0.6,0.7c1.5-1.1,2.9-2.3,4.3-3.5l-0.6-0.7C349.5,850.1,348.1,851.3,346.7,852.3z"/>
		<path class="st0" d="M332.4,739.4l-0.3,0.9c1.7,0.7,3.4,1.4,5,2.3l0.4-0.8C335.9,740.8,334.1,740,332.4,739.4z"/>
		<path class="st0" d="M342.4,744.3l-0.5,0.8c1.6,1,3.1,2,4.6,3.1l0.6-0.7C345.5,746.4,344,745.3,342.4,744.3z"/>
		<path class="st0" d="M327.2,862.2l0.3,0.9c1.8-0.5,3.5-1.2,5.2-1.9l-0.3-0.9C330.6,861,328.9,861.7,327.2,862.2z"/>
		<path class="st0" d="M310.7,735.7c1.8,0.1,3.7,0.2,5.5,0.4l0.1-0.9c-1.8-0.2-3.7-0.4-5.5-0.4L310.7,735.7z"/>
		<path class="st0" d="M321.8,736.1l-0.2,0.9c1.8,0.4,3.6,0.8,5.3,1.4l0.3-0.9C325.4,737,323.6,736.5,321.8,736.1z"/>
		<path class="st0" d="M370,778.2l-0.9,0.3c0.6,1.7,1.2,3.5,1.6,5.2l0.9-0.2C371.1,781.8,370.6,780,370,778.2z"/>
		<path class="st0" d="M367.1,827l0.8,0.4c0.8-1.7,1.5-3.4,2.1-5.2l-0.9-0.3C368.6,823.6,367.9,825.3,367.1,827z"/>
		<path class="st0" d="M370.8,816.6l0.9,0.2c0.5-1.8,0.9-3.6,1.2-5.4l-0.9-0.2C371.6,813.1,371.2,814.9,370.8,816.6z"/>
		<path class="st0" d="M373.8,800.1h-0.9l0,0.3c0,1.8-0.1,3.7-0.2,5.5l0.9,0.1c0.2-1.8,0.2-3.7,0.2-5.6V800.1z"/>
		<path class="st0" d="M373.5,794.5c-0.2-1.8-0.4-3.7-0.7-5.5l-0.9,0.2c0.3,1.8,0.6,3.6,0.7,5.4L373.5,794.5z"/>
		<path class="st0" d="M359.1,758.9l-0.7,0.6c1.2,1.4,2.3,2.9,3.3,4.4l0.8-0.5C361.4,761.9,360.2,760.4,359.1,758.9z"/>
		<path class="st0" d="M361.8,836.5l0.8,0.5c1-1.5,2-3.1,2.9-4.7l-0.8-0.5C363.8,833.5,362.8,835,361.8,836.5z"/>
		<path class="st0" d="M365.3,768.1l-0.8,0.5c0.9,1.6,1.7,3.2,2.5,4.9l0.8-0.4C367.1,771.4,366.2,769.7,365.3,768.1z"/>
		<path class="st0" d="M354.9,845.1l0.7,0.6c1.3-1.3,2.5-2.7,3.7-4.2l-0.7-0.6C357.4,842.4,356.1,843.8,354.9,845.1z"/>
		<path class="st0" d="M274.1,745.3l-0.5-0.8c-1.6,1-3.1,2-4.6,3.1l0.6,0.7C271,747.3,272.5,746.3,274.1,745.3z"/>
		<path class="st0" d="M283.9,740.4l-0.3-0.9c-1.7,0.7-3.4,1.5-5.1,2.3l0.4,0.8C280.5,741.8,282.2,741.1,283.9,740.4z"/>
		<path class="st0" d="M299.6,735.3l0.1,0.9c1.8-0.2,3.6-0.4,5.5-0.5l0-0.9C303.3,734.9,301.5,735,299.6,735.3z"/>
		<path class="st0" d="M288.8,737.6l0.3,0.9c1.7-0.5,3.5-1,5.3-1.4l-0.2-0.9C292.3,736.6,290.5,737.1,288.8,737.6z"/>
		<path class="st0" d="M264.7,751.2c-1.4,1.2-2.7,2.5-4,3.9l0.7,0.6c1.3-1.3,2.6-2.6,4-3.8L264.7,751.2z"/>
	</g>
	<path class="st0" d="M267.1,755.7c0,3.2-2.6,5.7-5.7,5.7c-3.2,0-5.7-2.6-5.7-5.7s2.6-5.7,5.7-5.7   C264.5,750,267.1,752.5,267.1,755.7z"/>
	<path class="st0" d="M332.6,862.2c0,3-2.4,5.4-5.4,5.4s-5.4-2.4-5.4-5.4c0-3,2.4-5.4,5.4-5.4S332.6,859.2,332.6,862.2z"/>
	<path class="st0" d="M274.6,108.9c0,4.7-3.8,8.6-8.6,8.6c-4.7,0-8.6-3.8-8.6-8.6s3.8-8.6,8.6-8.6   C270.7,100.3,274.6,104.2,274.6,108.9z"/>
	<g>
		<path class="st0" d="M990.5,285.7c-5.9,0-10.7-4.8-10.7-10.7s4.8-10.7,10.7-10.7c5.9,0,10.7,4.8,10.7,10.7    S996.4,285.7,990.5,285.7z M990.5,266.9c-4.5,0-8.1,3.6-8.1,8.1c0,4.5,3.6,8.1,8.1,8.1c4.5,0,8.1-3.6,8.1-8.1    C998.6,270.5,995,266.9,990.5,266.9z"/>
	</g>
	<g>
		<path class="st0" d="M502,861.5c-5.9,0-10.7-4.8-10.7-10.7c0-5.9,4.8-10.7,10.7-10.7c5.9,0,10.7,4.8,10.7,10.7    C512.7,856.7,507.9,861.5,502,861.5z M502,842.6c-4.5,0-8.1,3.7-8.1,8.1c0,4.5,3.7,8.1,8.1,8.1c4.5,0,8.1-3.7,8.1-8.1    C510.2,846.3,506.5,842.6,502,842.6z"/>
	</g>
	<path class="st0" d="M1032.4,809.2c0,4-3.3,7.3-7.3,7.3c-4,0-7.3-3.3-7.3-7.3c0-4,3.3-7.3,7.3-7.3   C1029.1,801.9,1032.4,805.2,1032.4,809.2z"/>
	<path class="st0" d="M922.1,981.8c0,6.5-5.3,11.8-11.8,11.8c-6.5,0-11.8-5.3-11.8-11.8c0-6.5,5.3-11.8,11.8-11.8   C916.8,970,922.1,975.3,922.1,981.8z"/>
	<g>
		<g>
			<path class="st0" d="M552.1,757.3c-7.9,0-15.8-0.5-23.6-1.5c-0.9-0.1-1.6-1-1.5-1.9c0.1-0.9,1-1.6,1.9-1.5     c7.6,1,15.4,1.5,23.1,1.5c0.9,0,1.8,0.8,1.8,1.7c0,0.9-0.7,1.7-1.6,1.7v-1.7L552.1,757.3C552.2,757.3,552.1,757.3,552.1,757.3z      M575.8,755.8c-0.8,0-1.6-0.6-1.7-1.5c-0.1-0.9,0.5-1.8,1.5-1.9c7.7-1,15.4-2.5,22.9-4.5c0.9-0.2,1.8,0.3,2.1,1.2     c0.2,0.9-0.3,1.8-1.2,2.1c-7.6,2-15.5,3.6-23.3,4.6C575.9,755.8,575.8,755.8,575.8,755.8z M505.7,751.3c-0.1,0-0.3,0-0.4-0.1     c-7.6-2-15.2-4.6-22.5-7.6c-0.9-0.4-1.3-1.3-0.9-2.2c0.4-0.9,1.4-1.3,2.2-0.9c7.2,3,14.6,5.5,22.1,7.5c0.9,0.2,1.4,1.2,1.2,2.1     C507.1,750.8,506.4,751.3,505.7,751.3z M621.1,743.6c-0.7,0-1.3-0.4-1.6-1c-0.4-0.9,0-1.9,0.9-2.2c7.2-3,14.2-6.5,20.9-10.3     c0.8-0.5,1.8-0.2,2.3,0.6c0.5,0.8,0.2,1.8-0.6,2.3c-6.8,4-14,7.5-21.3,10.5C621.6,743.6,621.4,743.6,621.1,743.6z M462.2,733.3     c-0.3,0-0.6-0.1-0.8-0.2c-6.9-4-13.5-8.4-19.8-13.2c-0.7-0.6-0.9-1.6-0.3-2.4c0.6-0.7,1.6-0.9,2.4-0.3c6.2,4.7,12.7,9.1,19.4,13     c0.8,0.5,1.1,1.5,0.6,2.3C463.4,733,462.8,733.3,462.2,733.3z M661.8,720.1c-0.5,0-1-0.2-1.3-0.7c-0.6-0.7-0.4-1.8,0.3-2.4     c6.1-4.7,12-9.9,17.5-15.4c0.7-0.7,1.7-0.7,2.4,0c0.7,0.7,0.7,1.7,0,2.4c-5.6,5.6-11.6,10.9-17.9,15.7     C662.5,720,662.1,720.1,661.8,720.1z M424.9,704.8c-0.4,0-0.9-0.2-1.2-0.5c-5.6-5.6-10.9-11.6-15.7-17.8     c-0.6-0.7-0.4-1.8,0.3-2.4c0.7-0.6,1.8-0.4,2.4,0.3c4.7,6.1,9.9,12,15.4,17.5c0.7,0.7,0.7,1.7,0,2.4     C425.8,704.6,425.4,704.8,424.9,704.8z M695,686.8c-0.4,0-0.7-0.1-1-0.4c-0.7-0.6-0.9-1.6-0.3-2.4c4.7-6.1,9.1-12.7,13-19.4     c0.5-0.8,1.5-1.1,2.3-0.6c0.8,0.5,1.1,1.5,0.6,2.3c-4,6.9-8.4,13.5-13.2,19.8C696,686.6,695.5,686.8,695,686.8z M396.2,667.5     c-0.6,0-1.2-0.3-1.5-0.8c-4-6.8-7.5-14-10.6-21.3c-0.4-0.9,0-1.9,0.9-2.2c0.9-0.4,1.9,0,2.2,0.9c3,7.2,6.5,14.2,10.4,20.9     c0.5,0.8,0.2,1.9-0.6,2.3C396.8,667.5,396.5,667.5,396.2,667.5z M718.5,646.1c-0.2,0-0.4,0-0.6-0.1c-0.9-0.4-1.3-1.3-0.9-2.2     c3-7.2,5.5-14.6,7.5-22.1c0.2-0.9,1.2-1.4,2.1-1.2c0.9,0.2,1.4,1.2,1.2,2.1c-2,7.6-4.6,15.2-7.6,22.5     C719.8,645.7,719.2,646.1,718.5,646.1z M378.2,624.2c-0.7,0-1.4-0.5-1.6-1.3c-2.1-7.6-3.6-15.5-4.7-23.3     c-0.1-0.9,0.5-1.8,1.5-1.9c0.9-0.1,1.8,0.5,1.9,1.5c1,7.7,2.6,15.4,4.6,22.9c0.2,0.9-0.3,1.8-1.2,2.1     C378.5,624.2,378.3,624.2,378.2,624.2z M730.7,600.7c-0.1,0-0.1,0-0.2,0c-0.9-0.1-1.6-1-1.5-1.9c1-7.7,1.5-15.5,1.5-23.3v-0.8     c0-0.9,0.8-1.7,1.7-1.7c0.9,0,1.7,0.8,1.7,1.7v0.8c0,7.9-0.5,15.9-1.5,23.7C732.2,600.1,731.5,600.7,730.7,600.7z M372,577.6     c-0.9,0-1.7-0.8-1.7-1.7v-0.4c0-7.8,0.5-15.7,1.5-23.3c0.1-0.9,1-1.6,1.9-1.5c0.9,0.1,1.6,1,1.5,1.9c-1,7.5-1.5,15.2-1.5,22.9     v0.4C373.7,576.9,372.9,577.6,372,577.6z M730.6,553c-0.8,0-1.6-0.6-1.7-1.5c-1-7.7-2.6-15.4-4.6-22.9c-0.2-0.9,0.3-1.8,1.2-2.1     c0.9-0.2,1.8,0.3,2.1,1.2c2.1,7.6,3.7,15.4,4.7,23.3c0.1,0.9-0.5,1.8-1.5,1.9C730.7,553,730.6,553,730.6,553z M378,531     c-0.1,0-0.3,0-0.4-0.1c-0.9-0.2-1.4-1.2-1.2-2.1c2-7.6,4.6-15.2,7.6-22.5c0.4-0.9,1.3-1.3,2.2-0.9c0.9,0.4,1.3,1.3,0.9,2.2     c-3,7.2-5.5,14.6-7.4,22.1C379.4,530.5,378.7,531,378,531z M718.2,507.7c-0.7,0-1.3-0.4-1.6-1c-3-7.1-6.5-14.2-10.4-20.9     c-0.5-0.8-0.2-1.8,0.6-2.3c0.8-0.5,1.8-0.2,2.3,0.6c4,6.8,7.6,14,10.6,21.3c0.4,0.9,0,1.9-0.9,2.2     C718.7,507.6,718.5,507.7,718.2,507.7z M395.9,487.5c-0.3,0-0.6-0.1-0.8-0.2c-0.8-0.5-1.1-1.5-0.6-2.3     c3.9-6.8,8.4-13.5,13.2-19.8c0.6-0.7,1.6-0.9,2.4-0.3c0.7,0.6,0.9,1.6,0.3,2.4c-4.7,6.2-9.1,12.7-12.9,19.4     C397,487.2,396.5,487.5,395.9,487.5z M694.6,467.1c-0.5,0-1-0.2-1.3-0.7c-4.7-6.1-9.9-12-15.4-17.5c-0.7-0.7-0.7-1.7,0-2.4     c0.7-0.7,1.7-0.7,2.4,0c5.6,5.6,10.9,11.6,15.7,17.8c0.6,0.7,0.4,1.8-0.3,2.4C695.3,467,694.9,467.1,694.6,467.1z M424.4,450.2     c-0.4,0-0.9-0.2-1.2-0.5c-0.7-0.7-0.7-1.7,0-2.4c5.6-5.6,11.6-10.9,17.8-15.7c0.7-0.6,1.8-0.4,2.4,0.3c0.6,0.7,0.4,1.8-0.3,2.4     c-6.1,4.7-12,9.9-17.5,15.4C425.3,450,424.9,450.2,424.4,450.2z M661.2,434c-0.4,0-0.7-0.1-1-0.3c-6.2-4.7-12.7-9.1-19.4-12.9     c-0.8-0.5-1.1-1.5-0.6-2.3c0.5-0.8,1.5-1.1,2.3-0.6c6.9,3.9,13.5,8.4,19.8,13.2c0.7,0.6,0.9,1.6,0.3,2.4     C662.3,433.7,661.7,434,661.2,434z M461.6,421.5c-0.6,0-1.2-0.3-1.5-0.8c-0.5-0.8-0.2-1.8,0.6-2.3c6.8-4,14-7.5,21.3-10.6     c0.9-0.4,1.9,0,2.2,0.9c0.4,0.9,0,1.9-0.9,2.2c-7.1,3-14.2,6.5-20.9,10.4C462.2,421.4,461.9,421.5,461.6,421.5z M620.5,410.6     c-0.2,0-0.4,0-0.6-0.1c-7.2-3-14.6-5.4-22.1-7.4c-0.9-0.2-1.4-1.2-1.2-2.1c0.2-0.9,1.2-1.4,2.1-1.2c7.6,2,15.2,4.6,22.5,7.6     c0.9,0.4,1.3,1.3,0.9,2.2C621.8,410.2,621.1,410.6,620.5,410.6z M504.9,403.4c-0.7,0-1.4-0.5-1.6-1.3c-0.2-0.9,0.3-1.8,1.2-2.1     c7.6-2.1,15.5-3.6,23.3-4.7c0.9-0.1,1.8,0.5,1.9,1.5c0.1,0.9-0.5,1.8-1.5,1.9c-7.7,1-15.4,2.6-22.9,4.6     C505.2,403.4,505.1,403.4,504.9,403.4z M575,398.6c-0.1,0-0.1,0-0.2,0c-7.5-1-15.1-1.4-22.7-1.4h-0.6c-0.9,0-1.7-0.8-1.7-1.7     c0-0.9,0.8-1.7,1.7-1.7h0.6c7.7,0,15.5,0.5,23.2,1.5c0.9,0.1,1.6,1,1.5,1.9C576.6,398,575.9,398.6,575,398.6z"/>
		</g>
		<g>
			<path class="st0" d="M552.1,797.2c-4,0-7.9-0.1-11.8-0.3c-0.9,0-1.7-0.8-1.6-1.8c0-0.9,0.8-1.7,1.8-1.6c7.8,0.4,15.8,0.4,23.6,0     c1.1-0.1,1.7,0.7,1.8,1.6c0.1,0.9-0.7,1.7-1.6,1.8C560.2,797,556.1,797.2,552.1,797.2z M516.7,794.3c-0.1,0-0.2,0-0.3,0     c-7.9-1.3-15.8-3-23.4-5.1c-0.9-0.3-1.4-1.2-1.2-2.1c0.2-0.9,1.2-1.4,2.1-1.2c7.5,2.1,15.3,3.8,23.1,5c0.9,0.2,1.6,1,1.4,1.9     C518.2,793.7,517.5,794.3,516.7,794.3z M587.8,794.3c-0.8,0-1.5-0.6-1.7-1.4c-0.2-0.9,0.5-1.8,1.4-1.9c7.7-1.3,15.5-3,23.1-5.1     c0.9-0.3,1.8,0.3,2.1,1.2c0.3,0.9-0.3,1.8-1.2,2.1c-7.7,2.1-15.6,3.9-23.4,5.1C588,794.3,587.9,794.3,587.8,794.3z M470.8,781.7     c-0.2,0-0.4,0-0.6-0.1c-7.4-2.9-14.7-6.3-21.8-10.1c-0.8-0.4-1.1-1.5-0.7-2.3c0.4-0.8,1.5-1.1,2.3-0.7c6.9,3.7,14.1,7,21.4,9.9     c0.9,0.3,1.3,1.3,1,2.2C472.2,781.3,471.5,781.7,470.8,781.7z M633.6,781.5c-0.7,0-1.3-0.4-1.6-1.1c-0.3-0.9,0.1-1.9,0.9-2.2     c7.3-2.9,14.5-6.3,21.4-9.9c0.8-0.4,1.9-0.1,2.3,0.7c0.4,0.8,0.1,1.9-0.7,2.3c-7,3.7-14.4,7.1-21.8,10.1     C634,781.5,633.8,781.5,633.6,781.5z M428.8,759.4c-0.3,0-0.7-0.1-0.9-0.3c-6.6-4.5-13-9.3-19.1-14.5c-0.7-0.6-0.8-1.7-0.2-2.4     c0.6-0.7,1.7-0.8,2.4-0.2c6,5.1,12.3,9.9,18.8,14.3c0.8,0.5,1,1.6,0.5,2.4C429.9,759.1,429.4,759.4,428.8,759.4z M675.6,759.2     c-0.5,0-1.1-0.3-1.4-0.7c-0.5-0.8-0.3-1.8,0.4-2.4c6.5-4.4,12.8-9.2,18.8-14.3c0.7-0.6,1.8-0.5,2.4,0.2c0.6,0.7,0.5,1.8-0.2,2.4     c-6.1,5.2-12.5,10.1-19.1,14.5C676.2,759.1,675.9,759.2,675.6,759.2z M392.6,728.6c-0.4,0-0.9-0.2-1.2-0.5     c-5.5-5.8-10.7-11.9-15.6-18.3c-0.6-0.7-0.4-1.8,0.3-2.4c0.7-0.6,1.8-0.4,2.4,0.3c4.8,6.2,9.9,12.3,15.3,18     c0.6,0.7,0.6,1.8-0.1,2.4C393.4,728.5,393,728.6,392.6,728.6z M711.8,728.4c-0.4,0-0.8-0.2-1.2-0.5c-0.7-0.6-0.7-1.7-0.1-2.4     c5.4-5.7,10.6-11.8,15.3-18c0.6-0.7,1.6-0.9,2.4-0.3c0.7,0.6,0.9,1.6,0.3,2.4c-4.8,6.3-10,12.5-15.5,18.3     C712.7,728.3,712.2,728.4,711.8,728.4z M363.7,690.8c-0.6,0-1.1-0.3-1.5-0.8c-4.1-6.8-7.9-13.9-11.3-21.2c-0.4-0.9,0-1.9,0.8-2.3     c0.9-0.4,1.9,0,2.3,0.8c3.3,7.1,7,14.1,11.1,20.8c0.5,0.8,0.2,1.8-0.6,2.3C364.3,690.8,364,690.8,363.7,690.8z M740.6,690.6     c-0.3,0-0.6-0.1-0.9-0.2c-0.8-0.5-1.1-1.5-0.6-2.3c4.1-6.7,7.8-13.8,11.1-20.9c0.4-0.8,1.4-1.2,2.3-0.8c0.8,0.4,1.2,1.4,0.8,2.3     c-3.3,7.2-7.1,14.3-11.2,21.2C741.7,690.3,741.2,690.6,740.6,690.6z M343.7,647.7c-0.7,0-1.4-0.4-1.6-1.2     c-2.6-7.6-4.7-15.3-6.4-23.1c-0.2-0.9,0.4-1.8,1.3-2c0.9-0.2,1.8,0.4,2,1.3c1.7,7.7,3.8,15.3,6.3,22.8c0.3,0.9-0.2,1.8-1.1,2.1     C344.1,647.7,343.9,647.7,343.7,647.7z M760.6,647.4c-0.2,0-0.4,0-0.5-0.1c-0.9-0.3-1.4-1.3-1.1-2.1c2.5-7.4,4.6-15.1,6.3-22.8     c0.2-0.9,1.1-1.5,2-1.3c0.9,0.2,1.5,1.1,1.3,2c-1.7,7.8-3.9,15.6-6.4,23.1C761.9,647,761.3,647.4,760.6,647.4z M333.5,601.3     c-0.9,0-1.6-0.6-1.7-1.5c-0.9-7.9-1.3-15.9-1.3-23.9c0-0.9,0.8-1.7,1.7-1.7c0,0,0,0,0,0c0.9,0,1.7,0.8,1.7,1.7     c0,7.9,0.4,15.8,1.3,23.6c0.1,0.9-0.6,1.8-1.5,1.9C333.6,601.3,333.5,601.3,333.5,601.3z M770.7,601c-0.1,0-0.1,0-0.2,0     c-0.9-0.1-1.6-0.9-1.5-1.9c0.8-7.8,1.3-15.7,1.3-23.6v-0.7c0-0.9,0.8-1.7,1.7-1.7s1.7,0.8,1.7,1.7v0.7c0,8-0.4,16-1.3,23.9     C772.3,600.4,771.6,601,770.7,601z M333.4,553.8c-0.1,0-0.1,0-0.2,0c-0.9-0.1-1.6-0.9-1.5-1.9c0.8-7.9,2.1-15.9,3.8-23.7     c0.2-0.9,1.1-1.5,2-1.3c0.9,0.2,1.5,1.1,1.3,2c-1.7,7.7-2.9,15.5-3.8,23.3C335,553.2,334.3,553.8,333.4,553.8z M770.7,552.8     c-0.8,0-1.6-0.6-1.7-1.5c-0.9-7.8-2.2-15.7-3.9-23.3c-0.2-0.9,0.4-1.8,1.3-2c0.9-0.2,1.8,0.4,2,1.3c1.7,7.8,3,15.7,3.9,23.7     c0.1,0.9-0.6,1.8-1.5,1.9C770.8,552.8,770.7,552.8,770.7,552.8z M343.5,507.3c-0.2,0-0.4,0-0.5-0.1c-0.9-0.3-1.4-1.3-1.1-2.1     c2.5-7.6,5.5-15.1,8.9-22.3c0.4-0.8,1.4-1.2,2.2-0.8c0.8,0.4,1.2,1.4,0.8,2.2c-3.3,7.1-6.2,14.5-8.7,22     C344.9,506.9,344.2,507.3,343.5,507.3z M760.4,506.4c-0.7,0-1.4-0.4-1.6-1.1c-2.5-7.4-5.5-14.8-8.8-21.9c-0.4-0.8,0-1.9,0.8-2.3     c0.8-0.4,1.9,0,2.3,0.8c3.4,7.2,6.4,14.7,8.9,22.3c0.3,0.9-0.2,1.9-1.1,2.2C760.7,506.4,760.5,506.4,760.4,506.4z M363.4,464.2     c-0.3,0-0.6-0.1-0.9-0.2c-0.8-0.5-1.1-1.5-0.6-2.3c4.1-6.8,8.6-13.5,13.4-19.9c0.6-0.7,1.6-0.9,2.4-0.3c0.7,0.6,0.9,1.6,0.3,2.4     c-4.7,6.2-9.2,12.8-13.2,19.6C364.6,463.9,364,464.2,363.4,464.2z M740.3,463.3c-0.6,0-1.1-0.3-1.4-0.8     c-4.1-6.7-8.6-13.3-13.3-19.5c-0.6-0.7-0.4-1.8,0.3-2.4c0.7-0.6,1.8-0.4,2.4,0.3c4.8,6.3,9.4,13,13.5,19.8     c0.5,0.8,0.2,1.8-0.6,2.3C740.9,463.3,740.6,463.3,740.3,463.3z M392.2,426.3c-0.4,0-0.8-0.2-1.2-0.5c-0.7-0.6-0.7-1.7-0.1-2.4     c5.5-5.8,11.3-11.4,17.4-16.5c0.7-0.6,1.8-0.5,2.4,0.2c0.6,0.7,0.5,1.8-0.2,2.4c-6,5.1-11.7,10.6-17.1,16.3     C393.1,426.1,392.6,426.3,392.2,426.3z M711.4,425.6c-0.4,0-0.9-0.2-1.2-0.5c-5.4-5.7-11.2-11.1-17.2-16.2     c-0.7-0.6-0.8-1.7-0.2-2.4c0.6-0.7,1.7-0.8,2.4-0.2c6.1,5.1,12,10.7,17.5,16.5c0.6,0.7,0.6,1.8-0.1,2.4     C712.2,425.4,711.8,425.6,711.4,425.6z M428.3,395.4c-0.5,0-1.1-0.3-1.4-0.7c-0.5-0.8-0.3-1.8,0.4-2.4     c6.6-4.5,13.5-8.7,20.5-12.4c0.8-0.4,1.9-0.1,2.3,0.7c0.4,0.8,0.1,1.9-0.7,2.3c-6.9,3.7-13.7,7.8-20.2,12.2     C429,395.3,428.6,395.4,428.3,395.4z M675.1,394.9c-0.3,0-0.7-0.1-0.9-0.3c-6.5-4.4-13.3-8.5-20.3-12.2c-0.8-0.4-1.1-1.5-0.7-2.3     c0.4-0.8,1.5-1.1,2.3-0.7c7,3.7,14,7.9,20.6,12.3c0.8,0.5,1,1.6,0.5,2.4C676.1,394.6,675.6,394.9,675.1,394.9z M470.3,373     c-0.7,0-1.3-0.4-1.6-1.1c-0.3-0.9,0.1-1.9,0.9-2.2c7.4-3,15-5.6,22.7-7.7c0.9-0.3,1.8,0.3,2.1,1.2c0.3,0.9-0.3,1.8-1.2,2.1     c-7.6,2.1-15.1,4.7-22.4,7.6C470.7,373,470.5,373,470.3,373z M633,372.7c-0.2,0-0.4,0-0.6-0.1c-7.3-2.9-14.8-5.4-22.4-7.5     c-0.9-0.2-1.4-1.2-1.2-2.1c0.3-0.9,1.2-1.4,2.1-1.2c7.7,2.1,15.3,4.7,22.8,7.6c0.9,0.3,1.3,1.3,1,2.2     C634.3,372.3,633.7,372.7,633,372.7z M516,360.3c-0.8,0-1.5-0.6-1.7-1.4c-0.2-0.9,0.5-1.8,1.4-1.9c7.9-1.3,15.9-2.2,23.8-2.6     c0.9,0,1.7,0.7,1.8,1.6c0.1,0.9-0.7,1.7-1.6,1.8c-7.8,0.4-15.7,1.3-23.5,2.6C516.2,360.2,516.1,360.3,516,360.3z M587.2,360.1     c-0.1,0-0.2,0-0.3,0c-7.7-1.2-15.6-2.1-23.5-2.5c-0.9,0-1.7-0.8-1.6-1.8c0-0.9,0.7-1.6,1.8-1.6c8,0.4,16,1.3,23.9,2.5     c0.9,0.1,1.6,1,1.4,1.9C588.7,359.5,588,360.1,587.2,360.1z"/>
		</g>
		<g>
			<path class="st0" d="M552.2,834.3c-0.9,0-1.7-0.8-1.7-1.7c0-0.9,0.8-1.7,1.7-1.7c7.8,0,15.8-0.4,23.6-1.1c0.9,0,1.8,0.6,1.8,1.5     c0.1,0.9-0.6,1.8-1.5,1.8C568.2,834,560.2,834.3,552.2,834.3z M528.5,833.3c-0.1,0-0.1,0-0.2,0c-7.9-0.7-15.9-1.8-23.7-3.3     c-0.9-0.2-1.5-1.1-1.4-2c0.2-0.9,1.1-1.5,2-1.4c7.7,1.4,15.5,2.5,23.4,3.2c0.9,0.1,1.6,0.9,1.5,1.8     C530.1,832.6,529.4,833.3,528.5,833.3z M599.5,830c-0.8,0-1.5-0.6-1.7-1.4c-0.2-0.9,0.4-1.8,1.4-2c7.7-1.4,15.4-3.3,23-5.4     c0.9-0.3,1.8,0.3,2.1,1.2c0.3,0.9-0.3,1.8-1.2,2.1c-7.6,2.2-15.4,4-23.3,5.5C599.7,830,599.6,830,599.5,830z M481.9,824.6     c-0.2,0-0.3,0-0.5-0.1c-7.7-2.2-15.3-4.7-22.7-7.6c-0.9-0.3-1.3-1.3-1-2.2c0.3-0.9,1.3-1.3,2.2-1c7.3,2.8,14.8,5.3,22.4,7.5     c0.9,0.3,1.4,1.2,1.2,2.1C483.3,824.1,482.6,824.6,481.9,824.6z M645.1,817c-0.7,0-1.3-0.4-1.6-1.1c-0.3-0.9,0.1-1.9,1-2.2     c7.3-2.8,14.5-6,21.6-9.5c0.8-0.4,1.8-0.1,2.3,0.8c0.4,0.8,0.1,1.9-0.8,2.3c-7.1,3.5-14.4,6.8-21.8,9.7     C645.5,817,645.3,817,645.1,817z M437.6,807.5c-0.3,0-0.5-0.1-0.8-0.2c-7.1-3.5-14.1-7.5-20.9-11.6c-0.8-0.5-1-1.5-0.5-2.3     c0.5-0.8,1.5-1,2.3-0.5c6.7,4.1,13.6,8,20.6,11.5c0.8,0.4,1.2,1.4,0.8,2.3C438.9,807.2,438.3,807.5,437.6,807.5z M687.5,795.8     c-0.6,0-1.1-0.3-1.4-0.8c-0.5-0.8-0.2-1.8,0.5-2.3c6.6-4.1,13.2-8.6,19.4-13.4c0.7-0.6,1.8-0.4,2.4,0.3c0.6,0.7,0.4,1.8-0.3,2.4     c-6.3,4.8-13,9.3-19.7,13.5C688.1,795.7,687.8,795.8,687.5,795.8z M397.3,782.5c-0.4,0-0.7-0.1-1-0.3     c-6.3-4.8-12.5-9.9-18.4-15.3c-0.7-0.6-0.7-1.7-0.1-2.4c0.6-0.7,1.7-0.7,2.4-0.1c5.8,5.3,11.9,10.4,18.1,15.1     c0.7,0.6,0.9,1.6,0.3,2.4C398.3,782.3,397.8,782.5,397.3,782.5z M725.3,767.2c-0.5,0-0.9-0.2-1.3-0.6c-0.6-0.7-0.6-1.8,0.1-2.4     c5.8-5.3,11.4-10.9,16.7-16.7c0.6-0.7,1.7-0.7,2.4-0.1c0.7,0.6,0.7,1.7,0.1,2.4c-5.3,5.9-11,11.6-16.9,16.9     C726.2,767,725.7,767.2,725.3,767.2z M362.2,750.6c-0.5,0-0.9-0.2-1.3-0.6c-5.4-5.9-10.5-12-15.3-18.4c-0.6-0.7-0.4-1.8,0.3-2.4     c0.7-0.6,1.8-0.4,2.4,0.3c4.7,6.2,9.8,12.3,15.1,18.1c0.6,0.7,0.6,1.8-0.1,2.4C363.1,750.5,362.6,750.6,362.2,750.6z      M757.3,732.1c-0.4,0-0.7-0.1-1-0.3c-0.7-0.6-0.9-1.6-0.3-2.4c4.7-6.3,9.2-12.8,13.3-19.4c0.5-0.8,1.5-1,2.3-0.5     c0.8,0.5,1,1.5,0.5,2.3c-4.2,6.7-8.7,13.4-13.5,19.7C758.3,731.9,757.8,732.1,757.3,732.1z M333.6,712.8c-0.6,0-1.1-0.3-1.4-0.8     c-4.2-6.7-8.1-13.8-11.7-20.9c-0.4-0.8-0.1-1.9,0.8-2.3c0.8-0.4,1.9-0.1,2.3,0.8c3.5,7,7.4,13.9,11.5,20.6     c0.5,0.8,0.2,1.8-0.5,2.3C334.2,712.7,333.9,712.8,333.6,712.8z M782.3,691.8c-0.3,0-0.5-0.1-0.8-0.2c-0.8-0.4-1.2-1.4-0.8-2.3     c3.5-7,6.7-14.3,9.5-21.6c0.3-0.9,1.3-1.3,2.2-1c0.9,0.3,1.3,1.3,1,2.2c-2.9,7.4-6.1,14.8-9.7,21.9     C783.5,691.5,782.9,691.8,782.3,691.8z M312.4,670.4c-0.7,0-1.3-0.4-1.6-1.1c-2.9-7.4-5.4-15-7.6-22.7c-0.3-0.9,0.3-1.8,1.2-2.1     c0.9-0.3,1.8,0.3,2.1,1.2c2.1,7.5,4.7,15,7.5,22.4c0.3,0.9-0.1,1.9-1,2.2C312.8,670.3,312.6,670.4,312.4,670.4z M799.4,647.6     c-0.2,0-0.3,0-0.5-0.1c-0.9-0.3-1.4-1.2-1.2-2.1c2.1-7.5,3.9-15.3,5.4-23c0.2-0.9,1.1-1.5,2-1.4c0.9,0.2,1.5,1.1,1.4,2     c-1.4,7.8-3.3,15.6-5.4,23.3C800.9,647.1,800.2,647.6,799.4,647.6z M299.4,624.8c-0.8,0-1.5-0.6-1.7-1.4     c-1.5-7.8-2.6-15.7-3.3-23.7c-0.1-0.9,0.6-1.8,1.5-1.8c1-0.1,1.8,0.6,1.8,1.5c0.7,7.8,1.8,15.7,3.3,23.4c0.2,0.9-0.4,1.8-1.4,2     C299.6,624.7,299.5,624.8,299.4,624.8z M808.1,600.9c-0.1,0-0.1,0-0.2,0c-0.9-0.1-1.6-0.9-1.5-1.8c0.7-7.8,1.1-15.7,1.1-23.6     l0-0.6c0-0.9,0.8-1.7,1.7-1.7c0.9,0,1.7,0.8,1.7,1.7l0,0.6c0,8-0.4,16-1.1,23.9C809.7,600.3,809,600.9,808.1,600.9z M295,577.4     c-0.9,0-1.7-0.6-1.7-1.5v-0.3c0-7.9,0.4-15.8,1.1-23.6c0.1-0.9,0.9-1.6,1.8-1.5c0.9,0.1,1.6,0.9,1.5,1.8c-0.7,7.7-1,15.5-1,23.3     C296.7,576.5,295.9,577.4,295,577.4z M808,552.9c-0.9,0-1.6-0.7-1.7-1.5c-0.7-7.8-1.8-15.7-3.3-23.4c-0.2-0.9,0.4-1.8,1.4-2     c0.9-0.2,1.8,0.4,2,1.4c1.5,7.8,2.6,15.7,3.3,23.7c0.1,0.9-0.6,1.8-1.5,1.8C808.2,552.9,808.1,552.9,808,552.9z M299.3,530.3     c-0.1,0-0.2,0-0.3,0c-0.9-0.2-1.5-1.1-1.4-2c1.4-7.8,3.3-15.6,5.4-23.3c0.3-0.9,1.2-1.4,2.1-1.2c0.9,0.3,1.4,1.2,1.2,2.1     c-2.1,7.5-3.9,15.3-5.4,23C300.8,529.7,300.1,530.3,299.3,530.3z M799.3,506.3c-0.7,0-1.4-0.5-1.6-1.2c-2.2-7.5-4.7-15-7.5-22.3     c-0.3-0.9,0.1-1.9,1-2.2c0.9-0.3,1.9,0.1,2.2,1c2.9,7.4,5.5,15,7.6,22.6c0.3,0.9-0.3,1.8-1.2,2.1     C799.6,506.3,799.4,506.3,799.3,506.3z M312.2,484.7c-0.2,0-0.4,0-0.6-0.1c-0.9-0.3-1.3-1.3-1-2.2c2.9-7.4,6.1-14.8,9.6-21.9     c0.4-0.8,1.4-1.2,2.3-0.8c0.8,0.4,1.2,1.4,0.8,2.3c-3.5,7-6.7,14.3-9.5,21.6C313.5,484.2,312.8,484.7,312.2,484.7z M782,462.1     c-0.6,0-1.2-0.3-1.5-0.9c-3.5-7-7.4-13.9-11.5-20.6c-0.5-0.8-0.3-1.8,0.5-2.3c0.8-0.5,1.8-0.3,2.3,0.5     c4.2,6.7,8.1,13.8,11.7,20.8c0.4,0.8,0.1,1.9-0.8,2.3C782.6,462.1,782.3,462.1,782,462.1z M333.3,442.2c-0.3,0-0.6-0.1-0.9-0.3     c-0.8-0.5-1-1.5-0.5-2.3c4.2-6.7,8.7-13.4,13.5-19.7c0.6-0.7,1.6-0.9,2.4-0.3c0.7,0.6,0.9,1.6,0.3,2.4     c-4.7,6.3-9.2,12.8-13.3,19.5C334.4,441.9,333.8,442.2,333.3,442.2z M756.9,421.9c-0.5,0-1-0.2-1.3-0.7     c-4.7-6.2-9.8-12.3-15.1-18.1c-0.6-0.7-0.6-1.8,0.1-2.4c0.7-0.6,1.8-0.6,2.4,0.1c5.4,5.9,10.5,12,15.3,18.3     c0.6,0.7,0.4,1.8-0.3,2.4C757.7,421.8,757.3,421.9,756.9,421.9z M361.8,404.3c-0.4,0-0.8-0.1-1.1-0.4c-0.7-0.6-0.7-1.7-0.1-2.4     c5.3-5.9,11-11.6,16.9-16.9c0.7-0.6,1.8-0.6,2.4,0.1c0.6,0.7,0.6,1.8-0.1,2.4c-5.8,5.3-11.4,10.9-16.7,16.7     C362.8,404.1,362.3,404.3,361.8,404.3z M724.9,386.9c-0.4,0-0.8-0.1-1.1-0.4c-5.8-5.3-11.9-10.3-18.2-15     c-0.7-0.6-0.9-1.6-0.3-2.4c0.6-0.7,1.6-0.9,2.4-0.3c6.3,4.8,12.5,9.9,18.4,15.2c0.7,0.6,0.7,1.7,0.1,2.4     C725.8,386.7,725.4,386.9,724.9,386.9z M396.9,372.3c-0.5,0-1-0.2-1.4-0.7c-0.6-0.7-0.4-1.8,0.3-2.4c6.3-4.8,13-9.4,19.7-13.6     c0.8-0.5,1.8-0.3,2.3,0.5c0.5,0.8,0.3,1.8-0.5,2.3c-6.6,4.1-13.2,8.6-19.4,13.4C397.6,372.2,397.2,372.3,396.9,372.3z M687,358.4     c-0.3,0-0.6-0.1-0.9-0.3c-6.7-4.1-13.6-8-20.6-11.5c-0.8-0.4-1.2-1.4-0.8-2.3c0.4-0.8,1.4-1.2,2.3-0.8     c7.1,3.5,14.1,7.4,20.9,11.6c0.8,0.5,1,1.5,0.6,2.3C688.1,358.1,687.6,358.4,687,358.4z M437.1,347.2c-0.6,0-1.2-0.3-1.5-0.9     c-0.4-0.8-0.1-1.9,0.8-2.3c7.1-3.6,14.4-6.8,21.8-9.7c0.9-0.3,1.9,0.1,2.2,1c0.3,0.9-0.1,1.9-1,2.2c-7.3,2.8-14.6,6.1-21.6,9.6     C437.6,347.2,437.4,347.2,437.1,347.2z M644.5,337.3c-0.2,0-0.4,0-0.6-0.1c-7.3-2.8-14.9-5.3-22.4-7.4c-0.9-0.3-1.4-1.2-1.2-2.1     c0.3-0.9,1.2-1.4,2.1-1.2c7.6,2.1,15.3,4.7,22.7,7.5c0.9,0.3,1.3,1.3,1,2.2C645.8,336.8,645.2,337.3,644.5,337.3z M481.3,330     c-0.7,0-1.4-0.5-1.6-1.2c-0.3-0.9,0.3-1.8,1.2-2.1c7.6-2.2,15.5-4,23.3-5.5c0.9-0.2,1.8,0.4,2,1.4c0.2,0.9-0.4,1.8-1.4,2     c-7.7,1.4-15.4,3.3-23,5.4C481.6,330,481.5,330,481.3,330z M598.9,324.4c-0.1,0-0.2,0-0.3,0c-7.7-1.4-15.5-2.5-23.4-3.2     c-0.9-0.1-1.6-0.9-1.5-1.8c0.1-0.9,0.9-1.6,1.8-1.5c7.9,0.7,15.9,1.8,23.7,3.2c0.9,0.2,1.5,1.1,1.4,2     C600.4,323.8,599.7,324.4,598.9,324.4z M527.9,321.3c-0.9,0-1.6-0.7-1.7-1.5c-0.1-0.9,0.6-1.8,1.5-1.8c7.9-0.7,15.9-1.1,23.9-1.1     h0c0.9,0,1.7,0.8,1.7,1.7c0,0.9-0.8,1.7-1.7,1.7c-7.8,0-15.8,0.4-23.6,1.1C528,321.3,528,321.3,527.9,321.3z"/>
		</g>
	</g>
</g>
<g id="satellite-center">
	<g>
		<path class="st1" d="M699.5,575.5c0,81.4-66,147.4-147.4,147.4c-81.4,0-147.4-66-147.4-147.4c0-81.4,66-147.4,147.4-147.4    C633.5,428.2,699.5,494.1,699.5,575.5z"/>
	</g>
	<g>
		<path class="st2" d="M753.7,755.6c0,26.1-21.2,47.3-47.3,47.3c-26.1,0-47.3-21.2-47.3-47.3s21.2-47.3,47.3-47.3    C732.5,708.3,753.7,729.5,753.7,755.6z"/>
		<g>
			<path class="st0" d="M748.9,755.6c0,23.5-19.1,42.5-42.5,42.5c-23.5,0-42.6-19.1-42.6-42.5c0-23.5,19.1-42.5,42.6-42.5     C729.8,713,748.9,732.1,748.9,755.6z"/>
		</g>
	</g>
</g>
<g id="bottom-circle">
	<g>
		<g>
			<path class="st0" d="M771.2,893c-9.9,0-19.9-0.9-29.8-2.6c-92.3-16.3-154.1-104.6-137.8-196.9c14.4-81.4,84.7-140.4,167.1-140.4     c9.9,0,19.9,0.9,29.7,2.6c92.3,16.3,154.1,104.6,137.8,196.9C924,833.9,853.7,893,771.2,893z M770.8,555.6     c-81.2,0-150.5,58.2-164.6,138.3c-16,90.9,44.8,177.9,135.7,193.9c9.7,1.7,19.6,2.6,29.3,2.6c81.2,0,150.5-58.2,164.6-138.3     c16-90.9-44.8-177.9-135.7-193.9C790.5,556.5,780.6,555.6,770.8,555.6z"/>
		</g>
		<g>
			<g>
				<path class="st2" d="M668.4,654.9c0,28.2-22.8,51-51,51c-28.2,0-51-22.8-51-51c0-28.2,22.8-51,51-51      C645.5,603.9,668.4,626.7,668.4,654.9z"/>
				<g>
					<g>
						<path class="st0" d="M664.7,654.9c0,26.2-21.2,47.4-47.4,47.4c-26.2,0-47.4-21.2-47.4-47.4c0-26.2,21.2-47.4,47.4-47.4        C643.5,607.5,664.7,628.8,664.7,654.9z"/>
					</g>
				</g>
			</g>
		</g>
		<g>
			<path class="st2" d="M961,850.4c-0.2,43-35.2,77.8-78.2,77.6c-43-0.2-77.8-35.2-77.6-78.2c0.2-43,35.2-77.8,78.2-77.6     C926.4,772.3,961.1,807.3,961,850.4z"/>
			<g>
				<g>
					<path class="st3" d="M955.4,850.3c-0.1,39.9-32.6,72.2-72.6,72.1c-39.9-0.1-72.2-32.6-72.1-72.6c0.1-40,32.6-72.2,72.6-72.1       C923.3,777.9,955.6,810.4,955.4,850.3z"/>
				</g>
			</g>
		</g>
		<g>
			<path class="st2" d="M961.2,618.5c0,34.7-28.1,62.8-62.8,62.8c-34.7,0-62.8-28.1-62.8-62.8c0-34.7,28.1-62.8,62.8-62.8     C933.1,555.7,961.2,583.8,961.2,618.5z"/>
			<g>
				<g>
					<path class="st0" d="M955.1,618.5c0,31.3-25.4,56.7-56.7,56.7c-31.3,0-56.7-25.4-56.7-56.7c0-31.3,25.4-56.7,56.7-56.7       C929.8,561.8,955.1,587.2,955.1,618.5z"/>
				</g>
			</g>
		</g>
	</g>
</g>
<g id="left-circle">
	<g>
		<g>
			<path class="st0" d="M276,787.1c-117.9,0-213.9-95.9-213.9-213.9c0-117.9,96-213.9,213.9-213.9c117.9,0,213.9,96,213.9,213.9     C489.9,691.1,393.9,787.1,276,787.1z M276,361.9c-116.5,0-211.3,94.8-211.3,211.3c0,116.5,94.8,211.3,211.3,211.3     c116.5,0,211.3-94.8,211.3-211.3C487.3,456.7,392.5,361.9,276,361.9z"/>
		</g>
		<g>
			<g>
				<path class="st2" d="M480.5,723.5c0,30.9-25,55.9-55.9,55.9c-30.9,0-55.9-25-55.9-55.9c0-30.9,25-55.9,55.9-55.9      C455.5,667.6,480.5,692.6,480.5,723.5z"/>
				<g>
					<path class="st0" d="M474.9,723.5c0,27.7-22.5,50.2-50.3,50.2c-27.8,0-50.3-22.5-50.3-50.2c0-27.7,22.5-50.2,50.3-50.2       C452.4,673.2,474.9,695.7,474.9,723.5z"/>
				</g>
			</g>
		</g>
		<g>
			<path class="st2" d="M135.3,606.3c0,37.4-30.3,67.6-67.6,67.6C30.3,674,0,643.7,0,606.3c0-37.4,30.3-67.6,67.6-67.6     C105,538.7,135.3,569,135.3,606.3z"/>
			<g>
				<path class="st3" d="M128.5,606.3c0,33.6-27.2,60.8-60.8,60.8C34,667.2,6.8,640,6.8,606.3c0-33.6,27.2-60.8,60.8-60.8      C101.2,545.5,128.5,572.7,128.5,606.3z"/>
			</g>
		</g>
		<g>
			<path class="st2" d="M336.2,355c0,37.8-30.7,68.5-68.5,68.5c-37.8,0-68.5-30.7-68.5-68.5c0-37.8,30.7-68.5,68.5-68.5     C305.6,286.4,336.2,317.1,336.2,355z"/>
			<g>
				<g>
					<path class="st0" d="M331.3,354.9c0,35.1-28.5,63.6-63.6,63.6c-35.1,0-63.6-28.5-63.6-63.6c0-35.1,28.5-63.6,63.6-63.6       C302.9,291.3,331.3,319.8,331.3,354.9z"/>
				</g>
			</g>
		</g>
	</g>
</g>
<g id="top-circle">
	<g>
		<g>
			<path class="st2" d="M642.6,508.5c0,27.3-22.1,49.4-49.4,49.4c-27.3,0-49.4-22.1-49.4-49.4c0-27.3,22.1-49.4,49.4-49.4     C620.5,459.1,642.6,481.2,642.6,508.5z"/>
			<g>
				<path class="st0" d="M637.7,508.5c0,24.6-19.9,44.5-44.5,44.5s-44.5-19.9-44.5-44.5c0-24.6,19.9-44.5,44.5-44.5      S637.7,483.9,637.7,508.5z"/>
			</g>
		</g>
	</g>
	<g>
		<g>
			<path class="st0" d="M686.1,536.2C560.3,536.2,458,433.9,458,308.1C458,182.3,560.3,80,686.1,80s228.1,102.3,228.1,228.1     C914.2,433.9,811.9,536.2,686.1,536.2z M686.1,82.6c-124.4,0-225.6,101.2-225.6,225.6s101.2,225.6,225.6,225.6     s225.6-101.2,225.6-225.6S810.5,82.6,686.1,82.6z"/>
		</g>
		<g>
			<g>
				<path class="st0" d="M934.1,409.1c0,35.2-28.5,63.8-63.8,63.8c-35.2,0-63.8-28.5-63.8-63.8c0-35.2,28.5-63.8,63.8-63.8      C905.5,345.4,934.1,373.9,934.1,409.1z"/>
			</g>
		</g>
		<g>
			<g>
				<path class="st2" d="M542.2,354.8c0,36.2-29.4,65.6-65.6,65.6c-36.2,0-65.6-29.4-65.6-65.6c0-36.2,29.4-65.6,65.6-65.6      C512.8,289.2,542.2,318.6,542.2,354.8z"/>
				<g>
					<path class="st0" d="M535.8,354.8c0,32.7-26.5,59.2-59.2,59.2c-32.7,0-59.2-26.5-59.2-59.2c0-32.7,26.5-59.2,59.2-59.2       C509.3,295.6,535.8,322.1,535.8,354.8z"/>
				</g>
			</g>
		</g>
		<g>
			<path class="st2" d="M893.4,147.7c0,30.2-24.5,54.8-54.8,54.8c-30.2,0-54.8-24.5-54.8-54.8c0-30.2,24.5-54.8,54.8-54.8     C868.9,92.9,893.4,117.5,893.4,147.7z"/>
			<g>
				<g>
					<path class="st3" d="M889.3,147.7c0,28-22.7,50.7-50.7,50.7c-28,0-50.6-22.7-50.6-50.7c0-28,22.7-50.7,50.6-50.7       C866.7,97,889.3,119.7,889.3,147.7z"/>
				</g>
			</g>
		</g>
	</g>
</g>
</svg>