<?xml version="1.0" standalone="no"?>
<!DOCTYPE svg PUBLIC "-//W3C//DTD SVG 1.1//EN" "http://www.w3.org/Graphics/SVG/1.1/DTD/svg11.dtd" >
<svg xmlns="http://www.w3.org/2000/svg" xmlns:xlink="http://www.w3.org/1999/xlink" version="1.1">
<metadata>
Created by FontForge 20170731 at Tue Mar 28 19:18:49 2017
 By Aleksey,,,
Copyright (c) 2015-2017 Monotype GmbH. All rights reserved.
</metadata>
<defs>
<font id="RealTextPro-Demibold" horiz-adv-x="600" >
  <font-face 
    font-family="Real Text Pro Demibold"
    font-weight="600"
    font-stretch="normal"
    units-per-em="1000"
    panose-1="2 11 7 4 2 2 4 2 2 4"
    ascent="800"
    descent="-200"
    x-height="531"
    cap-height="700"
    bbox="-480 -320 1445 1068"
    underline-thickness="122"
    underline-position="-362"
    unicode-range="U+000D-1F310"
  />
<missing-glyph 
d="M531 700v-865h-462v865h462zM405 581h-210v-627h210v627z" />
    <glyph glyph-name="f_f" unicode="ff" horiz-adv-x="662" 
d="M595 610q-33 0 -47 -11t-14 -40v-37h131v-104h-131v-418h-146v418h-167v-418h-146v418h-72v104h72v48q0 67 50 107.5t146 40.5q82 0 161 -39q47 39 134 39q64 0 121 -19v-105q-50 16 -92 16zM388 522v47q0 9 2 27q-49 21 -102 21q-67 0 -67 -58v-37h167z" />
    <glyph glyph-name="f_f_i" unicode="ffi" horiz-adv-x="896" 
d="M534 522h308v-522h-146v418h-162v-418h-146v418h-167v-418h-146v418h-72v104h72v48q0 67 50.5 107.5t148.5 40.5q80 0 159 -40q51 40 153 40q81 0 144 -23v-107q-52 22 -115 22q-44 0 -62.5 -11t-18.5 -40v-37zM388 522v56q0 10 1 15q-48 22 -101 22q-67 0 -67 -56v-37
h167z" />
    <glyph glyph-name="f_f_j" unicode="ffj" horiz-adv-x="896" 
d="M534 522h308v-535q0 -89 -48 -132t-120 -43q-44 0 -75 7v107q12 -1 21 -1q44 0 60 20t16 80v393h-162v-418h-146v418h-167v-418h-146v418h-72v104h72v48q0 67 50.5 107.5t148.5 40.5q81 0 159 -40q51 40 153 40q81 0 144 -23v-107q-52 22 -115 22q-44 0 -62.5 -11
t-18.5 -40v-37zM388 522v56q0 10 1 15q-48 22 -101 22q-67 0 -67 -56v-37h167z" />
    <glyph glyph-name="f_f_l" unicode="ffl" horiz-adv-x="914" 
d="M880 105q10 0 20 1v-106q-32 -9 -74 -9q-137 0 -137 150v452q-36 17 -85 17q-37 0 -53.5 -11.5t-16.5 -40.5v-36h89v-104h-89v-418h-146v418h-167v-418h-146v418h-72v104h72v48q0 67 50.5 107.5t148.5 40.5q80 0 159 -39q49 39 139 39q67 0 119 -22l144 7v-541
q0 -36 7 -46.5t38 -10.5zM388 522v55q0 11 1 16q-48 22 -101 22q-67 0 -67 -56v-37h167z" />
    <glyph glyph-name="f_i" unicode="fi" horiz-adv-x="583" 
d="M274 718q79 0 144 -23v-107q-54 22 -115 22q-45 0 -63.5 -11t-18.5 -40v-37h308v-522h-146v418h-162v-418h-146v418h-72v104h72v56q0 65 48.5 102.5t150.5 37.5z" />
    <glyph glyph-name="f_j" unicode="fj" horiz-adv-x="583" 
d="M274 718q79 0 144 -23v-107q-54 22 -115 22q-45 0 -63.5 -11t-18.5 -40v-37h308v-535q0 -88 -48 -131.5t-119 -43.5q-46 0 -75 7v107q11 -1 20 -1q44 0 60 20t16 80v393h-162v-418h-146v418h-72v104h72v56q0 65 48.5 102.5t150.5 37.5z" />
    <glyph glyph-name="f_l" unicode="fl" horiz-adv-x="601" 
d="M259 718q67 0 119 -22l144 7v-541q0 -36 7 -46.5t38 -10.5q10 0 21 1v-106q-34 -9 -75 -9q-137 0 -137 150v452q-36 17 -85 17q-37 0 -53.5 -11.5t-16.5 -40.5v-36h89v-104h-89v-418h-146v418h-72v104h72v55q0 64 46 102.5t138 38.5z" />
    <glyph glyph-name=".notdef" 
d="M531 700v-865h-462v865h462zM405 581h-210v-627h210v627z" />
    <glyph glyph-name=".null" horiz-adv-x="0" 
 />
    <glyph glyph-name="nonmarkingreturn" horiz-adv-x="333" 
 />
    <glyph glyph-name="CR" unicode="&#xd;" horiz-adv-x="207" 
 />
    <glyph glyph-name="space" unicode=" " horiz-adv-x="207" 
 />
    <glyph glyph-name="exclam" unicode="!" horiz-adv-x="279" 
d="M219 703v-208l-21 -268h-117l-22 268v208h160zM139 161q37 0 63 -26t26 -62t-26 -62t-63 -26q-35 0 -61.5 26.5t-26.5 62.5t26 61.5t62 25.5z" />
    <glyph glyph-name="quotedbl" unicode="&#x22;" horiz-adv-x="468" 
d="M191 716v-319h-130v319h130zM406 716v-319h-130v319h130z" />
    <glyph glyph-name="numbersign" unicode="#" 
d="M52 141v93h84l30 203h-73v94h86l22 151h109l-22 -151h92l21 151h110l-22 -151h70v-94h-83l-29 -203h71v-93h-85l-20 -141h-110l21 141h-92l-20 -141h-109l20 141h-71zM246 234h91l29 203h-91z" />
    <glyph glyph-name="dollar" unicode="$" horiz-adv-x="660" 
d="M385 834v-119q144 -16 237 -121l-103 -81q-56 70 -143 83v-177q140 -27 198.5 -76t58.5 -139q0 -93 -66 -151.5t-182 -68.5v-133h-92v133q-171 11 -266 129l96 88q74 -87 178 -96v192q-129 26 -187 78t-58 139t64 140.5t173 61.5v118h92zM301 598q-89 -11 -89 -79
q0 -32 17.5 -50.5t71.5 -32.5v162zM376 281v-177q48 6 73.5 29t25.5 59q0 33 -19 53.5t-80 35.5z" />
    <glyph glyph-name="percent" unicode="%" horiz-adv-x="1029" 
d="M226 717q86 0 140.5 -60t54.5 -171q0 -116 -54 -174t-141 -58q-88 0 -141.5 58t-53.5 174q0 112 54 171.5t141 59.5zM783 712l-433 -724h-109l433 724h109zM226 630q-86 0 -86 -142q0 -147 86 -147q85 0 85 145q0 144 -85 144zM803 448q86 0 140.5 -60t54.5 -172
q0 -116 -53.5 -174t-141.5 -58q-87 0 -141 58t-54 174q0 112 54 172t141 60zM803 360q-85 0 -85 -143q0 -74 20.5 -109.5t64.5 -35.5q86 0 86 144t-86 144z" />
    <glyph glyph-name="ampersand" unicode="&#x26;" horiz-adv-x="723" 
d="M302 -19q-110 0 -190.5 57.5t-80.5 166.5q0 126 135 195q-44 45 -63.5 78t-19.5 74q0 79 60.5 122.5t156.5 43.5q97 0 153 -44.5t56 -110.5q0 -56 -31 -97t-118 -85l156 -146q19 61 12 141h136q0 -77 -12 -128.5t-41 -98.5q41 -33 105 -47l-42 -116q-90 19 -151 72
q-92 -77 -221 -77zM282 453q50 27 69.5 48t19.5 54q0 26 -20.5 43.5t-51.5 17.5q-35 0 -55.5 -17.5t-20.5 -46.5q0 -25 12 -44.5t47 -54.5zM314 103q74 0 122 38l-190 183q-63 -43 -63 -112q0 -51 35 -80t96 -29z" />
    <glyph glyph-name="quotesingle" unicode="'" horiz-adv-x="252" 
d="M191 716v-319h-130v319h130z" />
    <glyph glyph-name="parenleft" unicode="(" horiz-adv-x="318" 
d="M298 780q-55 -135 -79 -237.5t-24 -239.5t24 -239t79 -237h-115q-143 233 -143 476q0 244 143 477h115z" />
    <glyph glyph-name="parenright" unicode=")" horiz-adv-x="318" 
d="M20 780h115q143 -233 143 -477q0 -243 -143 -476h-115q55 135 79 237t24 239t-24 239.5t-79 237.5z" />
    <glyph glyph-name="asterisk" unicode="*" horiz-adv-x="476" 
d="M302 716l-19 -146l132 62l39 -122l-143 -26l104 -103l-105 -76l-72 127l-68 -129l-107 74l103 108l-145 25l40 122l132 -62l-20 146h129z" />
    <glyph glyph-name="plus" unicode="+" 
d="M370 505v-154h145v-118h-145v-154h-140v154h-145v118h145v154h140z" />
    <glyph glyph-name="comma" unicode="," horiz-adv-x="301" 
d="M149 173q42 0 69 -27.5t27 -70.5q0 -129 -117 -249l-76 40q44 71 50 141q-47 30 -47 80q0 35 27 60.5t67 25.5z" />
    <glyph glyph-name="hyphen" unicode="-" horiz-adv-x="376" 
d="M335 369v-123h-294v123h294z" />
    <glyph glyph-name="period" unicode="." horiz-adv-x="301" 
d="M151 173q38 0 66 -27.5t28 -66.5q0 -38 -28 -65.5t-66 -27.5t-66.5 28t-28.5 66t28.5 65.5t66.5 27.5z" />
    <glyph glyph-name="slash" unicode="/" horiz-adv-x="542" 
d="M510 775l-353 -939h-124l353 939h124z" />
    <glyph glyph-name="zero" unicode="0" horiz-adv-x="638" 
d="M319 598q133 0 211.5 -84t78.5 -225t-78.5 -222t-211.5 -81t-211 81t-78 222t78.5 225t210.5 84zM319 481q-66 0 -102 -51t-36 -141q0 -89 36 -138t102 -49t102 48.5t36 138.5q0 89 -36.5 140.5t-101.5 51.5z" />
    <glyph glyph-name="one" unicode="1" horiz-adv-x="497" 
d="M47 0v117h161v234h-162v100h21q87 0 123 32t47 97h117v-463h132v-117h-439z" />
    <glyph glyph-name="two" unicode="2" horiz-adv-x="572" 
d="M293 598q105 0 170 -53.5t65 -137.5q0 -90 -59.5 -152t-204.5 -138h269v-117h-490v114q201 117 265.5 171.5t64.5 114.5q0 38 -23 60t-61 22q-48 0 -74 -30t-26 -79h-148q3 93 70 159t182 66z" />
    <glyph glyph-name="three" unicode="3" horiz-adv-x="575" 
d="M290 598q111 0 172.5 -53.5t61.5 -136.5q0 -62 -34.5 -104t-92.5 -55q63 -9 105.5 -54t42.5 -119q0 -102 -72.5 -163t-186.5 -61q-103 0 -174.5 52t-93.5 144l133 32q23 -111 130 -111q51 0 83 29t32 84q0 51 -30 79.5t-81 28.5h-74v104h61q44 0 74 22.5t30 76.5
q0 46 -27 68t-68 22q-94 0 -117 -97l-134 23q19 85 88 137t172 52z" />
    <glyph glyph-name="four" unicode="4" horiz-adv-x="621" 
d="M358 -130v130h-326v119l282 461h189v-463h93v-117h-93v-130h-145zM175 117h182v310z" />
    <glyph glyph-name="five" unicode="5" horiz-adv-x="590" 
d="M523 580l-17 -117h-285l-20 -154q57 54 143 54q89 0 153.5 -64.5t64.5 -171.5q0 -124 -73 -199.5t-203 -75.5q-101 0 -167.5 49.5t-91.5 121.5l134 39q13 -44 45.5 -68.5t80.5 -24.5q58 0 90 40.5t32 105.5q0 62 -30.5 95.5t-85.5 33.5q-73 0 -114 -62l-128 19l51 379
h421z" />
    <glyph glyph-name="six" unicode="6" horiz-adv-x="598" 
d="M315 697q164 0 233 -146l-133 -41q-30 76 -100 76q-57 0 -91.5 -55t-41.5 -160q61 83 164 83q92 0 156 -62t64 -167q0 -108 -72.5 -173.5t-185.5 -65.5q-122 0 -197.5 81.5t-75.5 242.5q0 183 75.5 285t204.5 102zM306 340q-49 0 -79.5 -33.5t-30.5 -86.5q0 -52 30.5 -86
t78.5 -34q50 0 80 33t30 89q0 53 -28 85.5t-81 32.5z" />
    <glyph glyph-name="seven" unicode="7" horiz-adv-x="521" 
d="M514 580v-118q-113 -143 -174 -276t-80 -316h-158q10 106 36 195.5t67.5 161.5t81.5 123.5t97 111.5h-246v-80h-125v198h501z" />
    <glyph glyph-name="eight" unicode="8" horiz-adv-x="613" 
d="M304 697q117 0 182 -55.5t65 -128.5q0 -92 -104 -138q61 -23 100 -69t39 -112q0 -37 -14.5 -71.5t-45 -66.5t-88 -51t-134.5 -19q-139 0 -208 61.5t-69 143.5q0 118 125 171q-49 30 -69 66.5t-20 85.5q0 73 62.5 128t178.5 55zM304 587q-42 0 -68 -22t-26 -58
q0 -33 22 -52t73 -35l34 -10q65 42 65 97q0 32 -27 56t-73 24zM257 318q-78 -46 -78 -116q0 -44 34.5 -73t91.5 -29q65 0 97 30.5t32 69.5q0 29 -19 49t-38.5 28t-66.5 23q-8 3 -12 4z" />
    <glyph glyph-name="nine" unicode="9" horiz-adv-x="602" 
d="M297 598q123 0 197.5 -81t74.5 -254q0 -205 -72.5 -308t-213.5 -103q-178 0 -248 143l125 52q37 -80 121 -80q64 0 100 60t42 168q-62 -81 -167 -81q-91 0 -155 64.5t-64 173.5q0 113 74 179.5t186 66.5zM300 482q-50 0 -81 -33t-31 -93q0 -54 28.5 -89.5t80.5 -35.5
q49 0 79 35t30 91q0 61 -29 93t-77 32z" />
    <glyph glyph-name="colon" unicode=":" horiz-adv-x="301" 
d="M151 527q38 0 66 -27.5t28 -66.5q0 -38 -28 -65.5t-66 -27.5t-66.5 28t-28.5 66t28.5 65.5t66.5 27.5zM151 173q38 0 66 -27.5t28 -66.5q0 -38 -28 -65.5t-66 -27.5t-66.5 28t-28.5 66t28.5 65.5t66.5 27.5z" />
    <glyph glyph-name="semicolon" unicode=";" horiz-adv-x="301" 
d="M149 527q38 0 66 -27.5t28 -66.5q0 -38 -28 -65.5t-66 -27.5t-66.5 28t-28.5 66t28.5 65.5t66.5 27.5zM149 173q42 0 69 -27.5t27 -70.5q0 -129 -117 -249l-76 40q44 71 50 141q-47 30 -47 80q0 35 27 60.5t67 25.5z" />
    <glyph glyph-name="less" unicode="&#x3c;" horiz-adv-x="562" 
d="M477 539v-143l-294 -107l294 -108v-143l-392 171v159z" />
    <glyph glyph-name="equal" unicode="=" 
d="M515 475v-123h-430v123h430zM515 253v-123h-430v123h430z" />
    <glyph glyph-name="greater" unicode="&#x3e;" horiz-adv-x="562" 
d="M85 539l392 -171v-159l-392 -171v143l294 108l-294 107v143z" />
    <glyph glyph-name="question" unicode="?" horiz-adv-x="534" 
d="M273 714q115 0 176.5 -56.5t61.5 -133.5q0 -43 -14 -76.5t-35 -52t-46 -36t-46 -30.5t-35 -32.5t-14 -44.5v-25h-134v41q0 40 17 71.5t41.5 51.5t49.5 37.5t42 39.5t17 48q0 38 -23 58t-63 20q-83 0 -117 -94l-133 36q21 73 85.5 125.5t169.5 52.5zM256 161
q36 0 62.5 -26t26.5 -62t-26.5 -62t-62.5 -26t-62.5 26t-26.5 63q0 36 26.5 61.5t62.5 25.5z" />
    <glyph glyph-name="at" unicode="@" horiz-adv-x="1051" 
d="M554 717q196 0 312.5 -108t116.5 -274q0 -53 -12.5 -105.5t-38 -100.5t-72.5 -78t-109 -30q-60 0 -89.5 28t-34.5 68q-24 -45 -68.5 -70t-101.5 -25q-83 0 -133.5 57t-50.5 148q0 127 74.5 209.5t177.5 82.5q93 0 126 -67l7 41h105l-53 -310q-11 -70 45 -70q51 0 81.5 66
t30.5 162q0 125 -84.5 205.5t-230.5 80.5q-166 0 -268 -106t-102 -270q0 -150 89.5 -246.5t231.5 -96.5q107 0 202 32l31 -89q-118 -39 -231 -39q-197 0 -318 122t-121 315q0 206 136 337t352 131zM536 414q-63 0 -97 -56.5t-34 -136.5q0 -95 79 -95q51 0 90 49.5t39 144.5
q0 94 -77 94z" />
    <glyph glyph-name="A" unicode="A" horiz-adv-x="656" 
d="M489 0l-32 110h-264l-32 -110h-156l227 700h192l227 -700h-162zM325 583l-98 -351h196z" />
    <glyph glyph-name="B" unicode="B" horiz-adv-x="672" 
d="M487 378q158 -31 158 -176q0 -92 -68.5 -147t-211.5 -55h-290v700h251q148 0 214.5 -45.5t66.5 -133.5q0 -113 -120 -143zM337 579h-109v-160h126q44 0 71 20t27 62q0 43 -28.5 60.5t-86.5 17.5zM371 121q53 0 84.5 23t31.5 69q0 98 -118 98h-141v-190h143z" />
    <glyph glyph-name="C" unicode="C" horiz-adv-x="743" 
d="M383 717q103 0 184.5 -48t122.5 -156l-148 -39q-45 115 -159 115q-84 0 -132.5 -62.5t-48.5 -174.5q0 -114 47 -177.5t136 -63.5q67 0 108.5 32.5t65.5 98.5l145 -45q-40 -104 -126 -159t-196 -55q-65 0 -123 20.5t-107 62.5t-78 115.5t-29 169.5q0 76 18.5 138
t50.5 103.5t75.5 70t92 41.5t101.5 13z" />
    <glyph glyph-name="D" unicode="D" horiz-adv-x="718" 
d="M303 700q76 0 141 -19t117 -58t82 -106.5t30 -156.5q0 -99 -29.5 -171.5t-80 -112t-108 -58t-122.5 -18.5h-258v700h228zM308 575h-80v-450h105q183 0 183 234q0 216 -208 216z" />
    <glyph glyph-name="E" unicode="E" horiz-adv-x="599" 
d="M542 700v-126h-314v-156h293v-122h-293v-170h323v-126h-476v700h467z" />
    <glyph glyph-name="F" unicode="F" horiz-adv-x="568" 
d="M531 700v-126h-303v-174h280v-123h-280v-277h-153v700h456z" />
    <glyph glyph-name="G" unicode="G" horiz-adv-x="756" 
d="M383 718q220 0 304 -187l-138 -49q-47 111 -166 111q-88 0 -134.5 -64t-46.5 -180t45.5 -179.5t136.5 -63.5q71 0 115 37.5t44 102.5v26h-150v113h303v-385h-139v63q-73 -82 -197 -82q-60 0 -114 20t-100 61.5t-73.5 114.5t-27.5 169q0 183 97 277.5t241 94.5z" />
    <glyph glyph-name="H" unicode="H" horiz-adv-x="733" 
d="M658 700v-700h-152v300h-278v-300h-153v700h153v-274h278v274h152z" />
    <glyph glyph-name="I" unicode="I" horiz-adv-x="408" 
d="M367 700v-113h-88v-474h88v-113h-329v113h89v474h-89v113h329z" />
    <glyph glyph-name="J" unicode="J" horiz-adv-x="423" 
d="M353 700v-484q0 -111 -51.5 -170.5t-175.5 -59.5q-50 0 -101 6v128q36 -2 55 -2q70 0 95.5 23.5t25.5 85.5v473h152z" />
    <glyph glyph-name="K" unicode="K" horiz-adv-x="693" 
d="M512 0l-197 308l-87 -98v-210h-153v700h153v-306l259 306h180l-248 -285l273 -415h-180z" />
    <glyph glyph-name="L" unicode="L" horiz-adv-x="553" 
d="M228 700v-569h302v-131h-455v700h153z" />
    <glyph glyph-name="M" unicode="M" horiz-adv-x="873" 
d="M769 700l53 -700h-146l-36 553l-122 -553h-165l-122 553l-36 -553h-144l54 700h226l106 -527l106 527h226z" />
    <glyph glyph-name="N" unicode="N" horiz-adv-x="728" 
d="M653 700v-700h-176l-264 465v-465h-138v700h176l264 -477v477h138z" />
    <glyph glyph-name="O" unicode="O" horiz-adv-x="785" 
d="M392 718q65 0 124 -19.5t111 -60.5t82.5 -115.5t30.5 -173.5q0 -93 -28.5 -165.5t-78 -115.5t-111 -65t-130.5 -22q-64 0 -123 20t-110.5 61.5t-82.5 116t-31 172.5q0 94 29 166.5t78.5 115.5t110 64t129.5 21zM392 591q-86 0 -138 -63.5t-52 -175.5q0 -115 49 -179.5
t141 -64.5q86 0 138.5 63t52.5 177t-49 178.5t-142 64.5z" />
    <glyph glyph-name="P" unicode="P" horiz-adv-x="654" 
d="M340 700q141 0 211 -63.5t70 -169.5q0 -112 -70.5 -174t-208.5 -62h-114v-231h-153v700h265zM348 354q116 0 116 114q0 49 -29.5 77.5t-82.5 28.5h-124v-220h120z" />
    <glyph glyph-name="Q" unicode="Q" horiz-adv-x="785" 
d="M392 718q65 0 124 -19.5t111 -60.5t82.5 -115.5t30.5 -173.5q0 -185 -126 -289q53 -37 143 -51l-52 -142q-124 34 -200 135q-55 -21 -113 -21q-64 0 -123 20.5t-110.5 62t-82.5 115.5t-31 172q0 94 29 166.5t78.5 115.5t110 64t129.5 21zM392 590q-86 0 -138 -63
t-52 -175q0 -115 49 -179t141 -64q85 0 138 63t53 176q0 114 -49 178t-142 64z" />
    <glyph glyph-name="R" unicode="R" horiz-adv-x="666" 
d="M341 700q139 0 208 -60t69 -157q0 -142 -144 -194l183 -289h-179l-154 265h-96v-265h-153v700h266zM351 576h-123v-193h119q114 0 114 99q0 94 -110 94z" />
    <glyph glyph-name="S" unicode="S" horiz-adv-x="667" 
d="M336 -19q-199 0 -314 132l99 91q94 -96 219 -96q61 0 99 23t38 63q0 41 -34.5 63t-140.5 41q-127 23 -186 73t-59 141q0 95 75 150.5t198 55.5q187 0 294 -125l-104 -84q-73 83 -188 83q-57 0 -88 -20t-31 -57q0 -36 33 -55.5t135 -37.5q133 -23 193 -73.5t60 -144.5
q0 -104 -79.5 -163.5t-218.5 -59.5z" />
    <glyph glyph-name="T" unicode="T" horiz-adv-x="589" 
d="M568 700v-127h-197v-573h-153v573h-197v127h547z" />
    <glyph glyph-name="U" unicode="U" horiz-adv-x="716" 
d="M646 700v-443q0 -121 -71.5 -198.5t-217.5 -77.5q-148 0 -217.5 77.5t-69.5 198.5v443h153v-441q0 -79 32.5 -115t102.5 -36q135 0 135 151v441h153z" />
    <glyph glyph-name="V" unicode="V" horiz-adv-x="621" 
d="M616 700l-208 -700h-192l-211 700h162l147 -576l143 576h159z" />
    <glyph glyph-name="W" unicode="W" horiz-adv-x="872" 
d="M862 700l-151 -700h-174l-95 528l-99 -528h-180l-153 700h162l86 -550l105 550h161l97 -545l87 545h154z" />
    <glyph glyph-name="X" unicode="X" horiz-adv-x="656" 
d="M415 382l236 -382h-181l-147 272l-142 -272h-176l226 374l-202 326h174l121 -221l118 221h169z" />
    <glyph glyph-name="Y" unicode="Y" horiz-adv-x="624" 
d="M628 700l-240 -422v-278h-152v276l-240 424h173l145 -299l147 299h167z" />
    <glyph glyph-name="Z" unicode="Z" horiz-adv-x="624" 
d="M576 700v-120l-355 -455h366v-125h-555v117l358 460h-335v123h521z" />
    <glyph glyph-name="bracketleft" unicode="[" horiz-adv-x="323" 
d="M292 790v-117h-105v-728h105v-118h-251v963h251z" />
    <glyph glyph-name="backslash" unicode="\" horiz-adv-x="542" 
d="M157 775l353 -939h-125l-352 939h124z" />
    <glyph glyph-name="bracketright" unicode="]" horiz-adv-x="323" 
d="M31 790h251v-963h-251v118h105v728h-105v117z" />
    <glyph glyph-name="asciicircum" unicode="^" horiz-adv-x="627" 
d="M386 717l186 -389h-148l-114 264l-113 -264h-142l186 389h145z" />
    <glyph glyph-name="underscore" unicode="_" horiz-adv-x="578" 
d="M581 -57v-122h-584v122h584z" />
    <glyph glyph-name="grave" unicode="`" horiz-adv-x="338" 
d="M205 744l97 -151h-111l-164 151h178z" />
    <glyph glyph-name="a" unicode="a" horiz-adv-x="577" 
d="M291 545q117 0 170 -42.5t53 -124.5v-262q0 -72 18 -116h-145q-11 24 -16 54q-52 -68 -156 -68q-83 0 -130.5 45t-47.5 118q0 77 52 121.5t168 59.5l111 14v24q0 43 -16.5 59t-63.5 16q-45 0 -64.5 -16t-21.5 -54h-144q3 86 63.5 129t169.5 43zM368 251l-75 -10
q-58 -8 -82.5 -26t-24.5 -52q0 -30 18 -47t54 -17q46 0 78 28.5t32 71.5v52z" />
    <glyph glyph-name="b" unicode="b" horiz-adv-x="635" 
d="M214 700v-220q55 65 147 65q105 0 169.5 -77.5t64.5 -203.5q0 -121 -65.5 -199.5t-168.5 -78.5q-99 0 -152 67v-53h-141v700h146zM325 429q-56 0 -88 -41.5t-32 -123.5q0 -80 32.5 -121t85.5 -41q55 0 87 42.5t32 119.5q0 80 -30.5 122.5t-86.5 42.5z" />
    <glyph glyph-name="c" unicode="c" horiz-adv-x="582" 
d="M310 545q175 0 243 -144l-127 -50q-30 78 -108 78q-58 0 -91.5 -41t-33.5 -121t33 -122.5t92 -42.5q82 0 115 90l126 -50q-73 -156 -249 -156q-125 0 -197.5 77.5t-72.5 201.5t73.5 202t196.5 78z" />
    <glyph glyph-name="d" unicode="d" horiz-adv-x="635" 
d="M568 700v-700h-142v58q-55 -72 -154 -72q-105 0 -168.5 78t-63.5 201q0 125 67 202.5t170 77.5q91 0 145 -60v215h146zM313 430q-57 0 -88.5 -42.5t-31.5 -121.5q0 -80 31 -121.5t89 -41.5q55 0 86.5 41t31.5 122q0 80 -32.5 122t-85.5 42z" />
    <glyph glyph-name="e" unicode="e" horiz-adv-x="597" 
d="M303 545q119 0 188 -78t69 -208v-28h-370q4 -65 37.5 -98.5t91.5 -33.5q81 0 120 70l117 -57q-80 -126 -244 -126q-125 0 -198.5 78.5t-73.5 201.5q0 125 70 202t193 77zM302 439q-48 0 -78 -29t-34 -86h221q-7 115 -109 115z" />
    <glyph glyph-name="f" unicode="f" horiz-adv-x="377" 
d="M268 718q63 0 120 -19v-105q-50 16 -91 16q-33 0 -47.5 -11t-14.5 -40v-37h131v-104h-131v-418h-146v418h-72v104h72v47q0 69 44 109t135 40z" />
    <glyph glyph-name="g" unicode="g" horiz-adv-x="595" 
d="M574 580v-119q-48 0 -76 -10q26 -36 26 -86q0 -77 -60.5 -124.5t-171.5 -47.5q-54 0 -102 16q-15 -15 -15 -31q0 -20 15 -30t52 -10h92q113 0 169 -43.5t56 -114.5q0 -79 -69.5 -123.5t-200.5 -44.5q-257 0 -257 138q0 68 76 105q-51 31 -51 89q0 56 63 96
q-72 46 -72 127q0 78 61 128t174 50q83 0 141 -29q53 64 150 64zM288 449q-46 0 -70.5 -21t-24.5 -58q0 -35 24 -55.5t70 -20.5q45 0 69.5 20t24.5 56q0 37 -24 58t-69 21zM305 26h-115q-34 -22 -34 -54q0 -30 28.5 -45t99.5 -15q127 0 127 60q0 29 -23.5 41.5t-82.5 12.5z
" />
    <glyph glyph-name="h" unicode="h" horiz-adv-x="613" 
d="M214 700v-233q60 78 156 78q86 0 133 -52.5t47 -148.5v-344h-146v306q0 59 -18.5 88t-64.5 29q-47 0 -77 -36.5t-30 -93.5v-293h-146v700h146z" />
    <glyph glyph-name="i" unicode="i" horiz-adv-x="282" 
d="M141 774q35 0 60.5 -24t25.5 -58t-25.5 -58.5t-60.5 -24.5t-60.5 24.5t-25.5 58.5t25.5 58t60.5 24zM214 531v-531h-146v531h146z" />
    <glyph glyph-name="j" unicode="j" horiz-adv-x="282" 
d="M141 774q35 0 60.5 -24t25.5 -58t-25.5 -58.5t-60.5 -24.5t-60.5 24.5t-25.5 58.5t25.5 58t60.5 24zM214 531v-544q0 -88 -48 -131.5t-119 -43.5q-46 0 -75 7v107q11 -1 20 -1q44 0 60 19.5t16 80.5v506h146z" />
    <glyph glyph-name="k" unicode="k" horiz-adv-x="598" 
d="M214 700v-375l202 206h170l-204 -202l211 -329h-169l-141 230l-69 -68v-162h-146v700h146z" />
    <glyph glyph-name="l" unicode="l" horiz-adv-x="302" 
d="M209 700v-537q0 -37 7 -47.5t38 -10.5q10 0 21 1v-106q-34 -9 -75 -9q-137 0 -137 150v559h146z" />
    <glyph glyph-name="m" unicode="m" horiz-adv-x="905" 
d="M673 545q83 0 126 -52.5t43 -150.5v-342h-146v289q0 73 -15 103.5t-58 30.5q-42 0 -68.5 -34.5t-26.5 -91.5v-297h-146v289q0 74 -14.5 104t-58.5 30q-42 0 -68.5 -35t-26.5 -91v-297h-146v531h141v-61q58 75 150 75q108 0 146 -86q57 86 168 86z" />
    <glyph glyph-name="n" unicode="n" horiz-adv-x="613" 
d="M372 545q85 0 131.5 -52.5t46.5 -148.5v-344h-146v300q0 63 -18 93t-65 30t-77 -36.5t-30 -93.5v-293h-146v531h141v-70q57 84 163 84z" />
    <glyph glyph-name="o" unicode="o" horiz-adv-x="635" 
d="M317 545q126 0 202 -78.5t76 -200.5q0 -127 -75 -203.5t-203 -76.5t-202.5 77.5t-74.5 202.5t75 202t202 77zM317 429q-58 0 -91 -40.5t-33 -120.5q0 -81 32.5 -123.5t91.5 -42.5q60 0 92.5 42.5t32.5 123.5q0 80 -33.5 120.5t-91.5 40.5z" />
    <glyph glyph-name="p" unicode="p" horiz-adv-x="634" 
d="M359 545q105 0 170 -77.5t65 -200.5q0 -124 -65 -202.5t-171 -78.5q-93 0 -145 62v-215h-145v698h141v-56q55 70 150 70zM322 429q-54 0 -85.5 -41.5t-31.5 -121.5q0 -81 32 -122.5t85 -41.5q55 0 87.5 43t32.5 123q0 77 -31 119t-89 42z" />
    <glyph glyph-name="q" unicode="q" horiz-adv-x="635" 
d="M277 545q97 0 149 -65v51h142v-698h-146v219q-52 -66 -146 -66q-106 0 -171 77.5t-65 201.5q0 126 66 203t171 77zM312 429q-57 0 -88 -42.5t-31 -122.5q0 -79 31 -120.5t88 -41.5q56 0 87.5 42t31.5 125q0 79 -33 119.5t-86 40.5z" />
    <glyph glyph-name="r" unicode="r" horiz-adv-x="411" 
d="M354 545q14 0 38 -2v-142q-18 1 -32 1q-69 0 -107.5 -40.5t-38.5 -141.5v-220h-146v531h141v-86q52 100 145 100z" />
    <glyph glyph-name="s" unicode="s" horiz-adv-x="547" 
d="M280 545q140 0 225 -80l-75 -82q-67 55 -145 55q-85 0 -85 -50q0 -25 23.5 -36.5t103.5 -26.5q97 -17 143.5 -56.5t46.5 -112.5q0 -77 -64 -123.5t-178 -46.5q-159 0 -255 91l75 86q74 -67 167 -67q102 0 102 54q0 26 -23.5 39.5t-104.5 27.5q-95 17 -140.5 56t-45.5 107
q0 77 64.5 121t165.5 44z" />
    <glyph glyph-name="t" unicode="t" horiz-adv-x="397" 
d="M235 660v-138h128v-104h-128v-249q0 -34 13.5 -49.5t48.5 -15.5q34 0 76 11v-112q-54 -17 -115 -17q-91 0 -130 41t-39 119v272h-72v104h72v138h146z" />
    <glyph glyph-name="u" unicode="u" horiz-adv-x="607" 
d="M539 531v-531h-142v63q-58 -77 -157 -77q-80 0 -128.5 46.5t-48.5 138.5v360h146v-326q0 -50 18.5 -72t59.5 -22q47 0 76.5 33.5t29.5 87.5v299h146z" />
    <glyph glyph-name="v" unicode="v" horiz-adv-x="537" 
d="M532 531l-174 -531h-179l-174 531h162l102 -411l107 411h156z" />
    <glyph glyph-name="w" unicode="w" horiz-adv-x="802" 
d="M792 531l-140 -531h-170l-80 387l-85 -387h-169l-138 531h157l71 -391l82 391h162l86 -391l74 391h150z" />
    <glyph glyph-name="x" unicode="x" horiz-adv-x="547" 
d="M522 531l-157 -241l182 -290h-173l-104 197l-102 -197h-167l180 285l-160 246h172l82 -156l82 156h165z" />
    <glyph glyph-name="y" unicode="y" horiz-adv-x="535" 
d="M530 531l-165 -550q-26 -86 -71 -127.5t-139 -41.5q-39 0 -74 7v102q25 -2 48 -2q54 0 74 16.5t30 64.5h-56l-174 531h163l107 -428l99 428h158z" />
    <glyph glyph-name="z" unicode="z" horiz-adv-x="501" 
d="M461 531v-112l-255 -300h263v-119h-442v109l258 305h-233v117h409z" />
    <glyph glyph-name="braceleft" unicode="{" horiz-adv-x="331" 
d="M313 790v-113h-16q-37 0 -49.5 -17t-12.5 -52v-181q0 -55 -29.5 -84t-65.5 -34q36 -5 65.5 -34.5t29.5 -84.5v-179q0 -35 12.5 -52t49.5 -17h16v-113h-56q-80 0 -124.5 42t-44.5 110v190q0 48 -13.5 67.5t-46.5 26.5v88q34 7 47 26t13 67v192q0 68 44.5 110t124.5 42h56z
" />
    <glyph glyph-name="bar" unicode="|" horiz-adv-x="316" 
d="M214 774v-939h-112v939h112z" />
    <glyph glyph-name="braceright" unicode="}" horiz-adv-x="331" 
d="M18 790h56q80 0 124.5 -42t44.5 -110v-192q0 -48 13 -67t47 -26v-88q-33 -7 -46.5 -26.5t-13.5 -67.5v-190q0 -68 -44.5 -110t-124.5 -42h-56v113h16q37 0 49.5 17t12.5 52v179q0 55 29.5 84.5t65.5 34.5q-36 5 -65.5 34t-29.5 84v181q0 35 -12.5 52t-49.5 17h-16v113z
" />
    <glyph glyph-name="asciitilde" unicode="~" 
d="M215 398q50 0 104 -29t72 -29q48 0 81 56l75 -65q-24 -45 -65 -75.5t-97 -30.5q-48 0 -103 29t-73 29q-49 0 -81 -57l-75 65q59 107 162 107z" />
    <glyph glyph-name="uni00A0" unicode="&#xa0;" horiz-adv-x="207" 
 />
    <glyph glyph-name="exclamdown" unicode="&#xa1;" horiz-adv-x="279" 
d="M140 543q36 0 62 -25.5t26 -61.5q0 -37 -26 -63t-62 -26t-62.5 26t-26.5 62t26.5 62t62.5 26zM198 294l21 -251v-208h-160v208l22 251h117z" />
    <glyph glyph-name="cent" unicode="&#xa2;" 
d="M48 265q0 114 57 188t158 88v127h86v-126q69 -8 119.5 -44.5t76.5 -96.5l-110 -45q-30 73 -95 84v-348q69 11 99 89l112 -41q-26 -64 -78 -103.5t-124 -47.5v-138h-86v138q-101 13 -158 88t-57 188zM181 267q0 -155 93 -175v346q-93 -20 -93 -171z" />
    <glyph glyph-name="sterling" unicode="&#xa3;" horiz-adv-x="660" 
d="M373 718q85 0 142 -40t80 -109l-131 -42q-11 41 -31.5 59.5t-58.5 18.5q-40 0 -64 -25t-24 -69v-134h194v-78h-194v-56q0 -46 -9.5 -72.5t-38.5 -48.5h330v-122h-473l-16 111q38 16 51.5 43.5t13.5 87.5v57h-82v78h82v145q0 83 60 139.5t169 56.5z" />
    <glyph glyph-name="currency" unicode="&#xa4;" horiz-adv-x="638" 
d="M93 585l103 -103q59 31 123 31q69 0 124 -31l102 102l78 -78l-99 -99q33 -58 33 -125q0 -69 -34 -126l100 -99l-78 -78l-103 102q-57 -30 -122 -30q-67 0 -124 30l-103 -103l-78 78l101 101q-33 55 -33 125q0 68 32 124l-100 101zM319 405q-50 0 -78.5 -32.5t-28.5 -90.5
t28.5 -90.5t79.5 -32.5q50 0 78.5 32.5t28.5 90.5t-28.5 90.5t-79.5 32.5z" />
    <glyph glyph-name="yen" unicode="&#xa5;" horiz-adv-x="660" 
d="M646 700l-210 -362h120v-78h-150v-51h150v-78h-150v-131h-152v131h-150v78h150v51h-150v78h119l-209 362h174l144 -299l146 299h168z" />
    <glyph glyph-name="brokenbar" unicode="&#xa6;" horiz-adv-x="316" 
d="M214 774v-369h-112v369h112zM214 204v-369h-112v369h112z" />
    <glyph glyph-name="section" unicode="&#xa7;" 
d="M304 718q133 0 218 -80l-77 -78q-60 52 -136 52q-41 0 -61.5 -13.5t-20.5 -36.5q0 -24 25 -38.5t97 -27.5q99 -19 147.5 -58t48.5 -108q0 -42 -20.5 -72.5t-64.5 -62.5q58 -40 58 -112q0 -78 -63 -120.5t-163 -42.5q-135 0 -225 85l78 76q62 -54 144 -54q83 0 83 48
q0 25 -23.5 38.5t-91.5 26.5q-103 19 -152.5 59.5t-49.5 109.5q0 42 20.5 72.5t64.5 61.5q-59 42 -59 113q0 76 62.5 119t160.5 43zM231 405q-35 -40 -35 -78q0 -31 26 -51t98 -34l49 -9q35 41 35 80q0 31 -24.5 50.5t-91.5 31.5q-9 1 -28 5t-29 5z" />
    <glyph glyph-name="dieresis" unicode="&#xa8;" horiz-adv-x="464" 
d="M114 758q32 0 56 -23.5t24 -56.5q0 -32 -24 -56t-56 -24t-56.5 24t-24.5 56q0 33 24 56.5t57 23.5zM350 758q33 0 57 -23.5t24 -56.5q0 -32 -24 -56t-57 -24q-32 0 -56 24t-24 56q0 33 24 56.5t56 23.5z" />
    <glyph glyph-name="copyright" unicode="&#xa9;" horiz-adv-x="900" 
d="M451 717q159 0 265 -106.5t106 -261.5t-106 -260.5t-265 -105.5t-266 105.5t-107 260.5t107 261.5t266 106.5zM451 647q-128 0 -211 -87.5t-83 -210.5t83 -209.5t211 -86.5t210 86.5t82 209.5q0 124 -82 211t-210 87zM451 570q132 0 182 -123l-91 -25q-26 70 -91 70
q-48 0 -76 -36.5t-28 -104.5q0 -65 27 -103t78 -38q72 0 100 77l88 -28q-52 -127 -189 -127q-89 0 -145.5 60t-56.5 159q0 111 60 165t142 54z" />
    <glyph glyph-name="ordfeminine" unicode="&#xaa;" horiz-adv-x="418" 
d="M213 718q90 0 131 -31.5t41 -93.5v-198q0 -57 14 -87h-115q-10 23 -12 40q-39 -50 -119 -50q-63 0 -99.5 34t-36.5 88q0 58 40 92t130 44l82 10v19q0 31 -12 42.5t-47 11.5q-62 0 -63 -50h-113q1 64 48 96.5t131 32.5zM269 495l-54 -7q-43 -6 -61.5 -19.5t-18.5 -37.5
q0 -45 53 -45q34 0 57.5 20t23.5 51v38z" />
    <glyph glyph-name="guillemotleft" unicode="&#xab;" horiz-adv-x="535" 
d="M181 511l84 -59l-98 -174l98 -174l-84 -59l-150 168v130zM420 511l84 -59l-98 -174l98 -174l-84 -59l-150 168v130z" />
    <glyph glyph-name="logicalnot" unicode="&#xac;" 
d="M515 351v-268h-145v146h-285v122h430z" />
    <glyph glyph-name="uni00AD" unicode="&#xad;" horiz-adv-x="376" 
d="M335 369v-123h-294v123h294z" />
    <glyph glyph-name="registered" unicode="&#xae;" horiz-adv-x="900" 
d="M451 717q159 0 265 -106.5t106 -261.5t-106 -260.5t-265 -105.5t-266 105.5t-107 260.5t107 261.5t266 106.5zM451 647q-128 0 -211 -87.5t-83 -210.5t83 -209.5t211 -86.5t210 86.5t82 209.5q0 124 -82 211t-210 87zM463 566q77 0 119.5 -34t42.5 -94q0 -43 -24.5 -72
t-62.5 -40l100 -167h-108l-85 152h-56v-152h-92v407h166zM466 491h-77v-109h74q65 0 65 55q0 25 -17.5 39.5t-44.5 14.5z" />
    <glyph glyph-name="macron" unicode="&#xaf;" horiz-adv-x="417" 
d="M387 717v-99h-357v99h357z" />
    <glyph glyph-name="degree" unicode="&#xb0;" 
d="M263 715q79 0 137.5 -51t58.5 -135t-58.5 -134.5t-137.5 -50.5q-78 0 -137.5 51t-59.5 135t59.5 134.5t137.5 50.5zM263 622q-33 0 -56.5 -23.5t-23.5 -68.5q0 -46 23.5 -69.5t56.5 -23.5q34 0 57.5 23.5t23.5 68.5t-24 69t-57 24z" />
    <glyph glyph-name="plusminus" unicode="&#xb1;" horiz-adv-x="606" 
d="M376 534v-154h144v-118h-144v-102h-141v102h-144v118h144v154h141zM515 122v-122h-430v122h430z" />
    <glyph glyph-name="uni00B2" unicode="&#xb2;" horiz-adv-x="400" 
d="M202 763q73 0 116.5 -36t43.5 -93q0 -64 -43 -113.5t-139 -101.5h188v-89h-337v86q124 85 168 128.5t44 86.5q0 45 -46 45q-51 0 -52 -70h-113q0 70 43.5 113.5t126.5 43.5z" />
    <glyph glyph-name="uni00B3" unicode="&#xb3;" horiz-adv-x="400" 
d="M204 763q76 0 118.5 -32.5t42.5 -83.5q0 -73 -82 -95q42 -6 69 -31t27 -67q0 -62 -48.5 -98.5t-129.5 -36.5q-71 0 -118.5 31.5t-61.5 90.5l104 24q14 -59 76 -59q28 0 45 13.5t17 38.5q0 24 -17.5 37t-47.5 13h-45v80h37q62 0 62 46q0 21 -14.5 32t-37.5 11
q-51 0 -67 -50l-104 16q14 55 60.5 87.5t114.5 32.5z" />
    <glyph glyph-name="acute" unicode="&#xb4;" horiz-adv-x="338" 
d="M311 744l-164 -151h-111l97 151h178z" />
    <glyph glyph-name="uni00B5" unicode="&#xb5;" horiz-adv-x="584" 
d="M530 531v-531h-142v57q-41 -71 -118 -71q-51 0 -79 32v-185h-137v698h146v-321q0 -55 19 -78.5t59 -23.5q47 0 76.5 34t29.5 90v299h146z" />
    <glyph glyph-name="paragraph" unicode="&#xb6;" 
d="M544 700v-862h-92v780h-103v-780h-91v460q-92 7 -148 63.5t-56 136.5q0 88 61 145t171 57h258z" />
    <glyph glyph-name="periodcentered" unicode="&#xb7;" horiz-adv-x="301" 
d="M151 395q38 0 66 -27.5t28 -66.5q0 -38 -28 -65.5t-66 -27.5t-66.5 28t-28.5 66t28.5 65.5t66.5 27.5z" />
    <glyph glyph-name="cedilla" unicode="&#xb8;" horiz-adv-x="331" 
d="M193 10l-1 -54q52 -5 81.5 -30t29.5 -62q0 -51 -41 -79t-107 -28q-71 0 -125 28l34 70q39 -17 76 -17q49 0 49 30q0 21 -25 29t-79 8l17 105h91z" />
    <glyph glyph-name="uni00B9" unicode="&#xb9;" horiz-adv-x="400" 
d="M64 330v89h106v180h-108v74h9q62 0 88.5 20t31.5 57h89v-331h84v-89h-300z" />
    <glyph glyph-name="ordmasculine" unicode="&#xba;" horiz-adv-x="468" 
d="M233 718q97 0 155.5 -59.5t58.5 -150.5q0 -94 -58 -151.5t-156 -57.5q-99 0 -156.5 58t-57.5 151q0 94 58 152t156 58zM233 628q-44 0 -68.5 -29.5t-24.5 -88.5t24 -89.5t69 -30.5q44 0 68.5 31t24.5 89t-25 88t-68 30z" />
    <glyph glyph-name="guillemotright" unicode="&#xbb;" horiz-adv-x="535" 
d="M115 511l150 -168v-130l-150 -168l-84 59l98 174l-98 174zM354 511l150 -168v-130l-150 -168l-84 59l98 174l-98 174z" />
    <glyph glyph-name="onequarter" unicode="&#xbc;" horiz-adv-x="952" 
d="M792 712l-433 -724h-109l433 724h109zM64 280v89h106v180h-108v74h9q62 0 88.5 20t31.5 57h89v-331h84v-89h-300zM883 420v-263h55v-88h-55v-69h-108v69h-210v91l175 260h143zM773 309l-102 -152h102v152z" />
    <glyph glyph-name="onehalf" unicode="&#xbd;" horiz-adv-x="1002" 
d="M792 712l-433 -724h-109l433 724h109zM64 280v89h106v180h-108v74h9q62 0 88.5 20t31.5 57h89v-331h84v-89h-300zM804 433q73 0 116.5 -36t43.5 -93q0 -64 -43 -113.5t-139 -101.5h188v-89h-337v86q124 85 168 128.5t44 86.5q0 45 -46 45q-51 0 -52 -70h-113
q0 70 43.5 113.5t126.5 43.5z" />
    <glyph glyph-name="threequarters" unicode="&#xbe;" horiz-adv-x="912" 
d="M204 713q76 0 118.5 -32.5t42.5 -83.5q0 -73 -82 -95q42 -6 69 -31t27 -67q0 -62 -48.5 -98.5t-129.5 -36.5q-71 0 -118.5 31.5t-61.5 90.5l104 24q14 -59 76 -59q28 0 45 13.5t17 38.5q0 24 -17.5 37t-47.5 13h-45v80h37q62 0 62 46q0 21 -14.5 32t-37.5 11
q-51 0 -67 -50l-104 16q14 55 60.5 87.5t114.5 32.5zM752 712l-433 -724h-109l433 724h109zM843 420v-263h55v-88h-55v-69h-108v69h-210v91l175 260h143zM733 309l-102 -152h102v152z" />
    <glyph glyph-name="questiondown" unicode="&#xbf;" horiz-adv-x="534" 
d="M273 369q-36 0 -62.5 26t-26.5 62t26.5 62t62.5 26t62.5 -26t26.5 -63q0 -36 -26.5 -61.5t-62.5 -25.5zM256 -184q-115 0 -176.5 56.5t-61.5 133.5q0 43 14 76.5t35 52t46 36t46 30.5t35 32.5t14 44.5v25h134v-41q0 -40 -17 -71.5t-42 -51.5t-49.5 -37.5t-41.5 -39.5
t-17 -48q0 -38 23 -58t63 -20q83 0 117 94l133 -36q-21 -73 -85.5 -125.5t-169.5 -52.5z" />
    <glyph glyph-name="Agrave" unicode="&#xc0;" horiz-adv-x="656" 
d="M398 753h-115l-168 149h184zM489 0l-32 110h-264l-32 -110h-156l227 700h192l227 -700h-162zM325 583l-98 -351h196z" />
    <glyph glyph-name="Aacute" unicode="&#xc1;" horiz-adv-x="656" 
d="M554 902l-169 -149h-115l99 149h185zM489 0l-32 110h-264l-32 -110h-156l227 700h192l227 -700h-162zM325 583l-98 -351h196z" />
    <glyph glyph-name="Acircumflex" unicode="&#xc2;" horiz-adv-x="656" 
d="M328 819l-79 -66h-133l138 147h148l138 -147h-133zM489 0l-32 110h-264l-32 -110h-156l227 700h192l227 -700h-162zM325 583l-98 -351h196z" />
    <glyph glyph-name="Atilde" unicode="&#xc3;" horiz-adv-x="656" 
d="M258 800q-28 0 -44 -35h-78q9 61 42.5 96t85.5 35q32 0 58.5 -12t44.5 -24t29 -12q28 0 44 36h79q-7 -60 -42.5 -96t-85.5 -36q-33 0 -59.5 12t-44.5 24t-29 12zM489 0l-32 110h-264l-32 -110h-156l227 700h192l227 -700h-162zM325 583l-98 -351h196z" />
    <glyph glyph-name="Adieresis" unicode="&#xc4;" horiz-adv-x="656" 
d="M210 758q-32 0 -56.5 24t-24.5 56q0 33 24 56.5t57 23.5q32 0 56 -23.5t24 -56.5q0 -32 -24 -56t-56 -24zM446 758q-32 0 -56 24t-24 56q0 33 24 56.5t56 23.5q33 0 57 -23.5t24 -56.5q0 -32 -24 -56t-57 -24zM489 0l-32 110h-264l-32 -110h-156l227 700h192l227 -700
h-162zM325 583l-98 -351h196z" />
    <glyph glyph-name="Aring" unicode="&#xc5;" horiz-adv-x="656" 
d="M489 0l-32 110h-264l-32 -110h-156l221 680q-33 35 -33 86q0 56 40 92t96 36t96 -36t40 -92q0 -51 -34 -87l220 -679h-162zM329 816q-20 0 -33 -13.5t-13 -36.5t13.5 -37t32.5 -14t32.5 14t13.5 37t-13 36.5t-33 13.5zM423 232l-98 351l-98 -351h196z" />
    <glyph glyph-name="AE" unicode="&#xc6;" horiz-adv-x="955" 
d="M877 700v-126h-331l25 -156h288v-122h-269l26 -170h311v-126h-448l-14 108h-262l-46 -108h-162l320 700h562zM400 578l-149 -349h197z" />
    <glyph glyph-name="Ccedilla" unicode="&#xc7;" horiz-adv-x="743" 
d="M704 197q-35 -92 -106.5 -145.5t-165.5 -65.5l-1 -30q52 -5 81.5 -30t29.5 -62q0 -51 -41 -79t-107 -28q-71 0 -125 28l34 70q39 -17 76 -17q49 0 49 30q0 21 -25 29t-79 8l13 80q-59 7 -109.5 31t-92.5 66.5t-66 111.5t-24 157q0 76 18.5 138t50.5 103.5t75.5 70
t92 41.5t101.5 13q103 0 184.5 -48t122.5 -156l-148 -39q-45 115 -159 115q-84 0 -132.5 -62.5t-48.5 -174.5q0 -114 47 -177.5t136 -63.5q67 0 108.5 32.5t65.5 98.5z" />
    <glyph glyph-name="Egrave" unicode="&#xc8;" horiz-adv-x="599" 
d="M279 902l99 -149h-115l-168 149h184zM542 700v-126h-314v-156h293v-122h-293v-170h323v-126h-476v700h467z" />
    <glyph glyph-name="Eacute" unicode="&#xc9;" horiz-adv-x="599" 
d="M534 902l-169 -149h-115l99 149h185zM542 700v-126h-314v-156h293v-122h-293v-170h323v-126h-476v700h467z" />
    <glyph glyph-name="Ecircumflex" unicode="&#xca;" horiz-adv-x="599" 
d="M382 900l138 -147h-133l-79 66l-79 -66h-133l138 147h148zM542 700v-126h-314v-156h293v-122h-293v-170h323v-126h-476v700h467z" />
    <glyph glyph-name="Edieresis" unicode="&#xcb;" horiz-adv-x="599" 
d="M190 918q32 0 56 -23.5t24 -56.5q0 -32 -24 -56t-56 -24t-56.5 24t-24.5 56q0 33 24 56.5t57 23.5zM426 918q33 0 57 -23.5t24 -56.5q0 -32 -24 -56t-57 -24q-32 0 -56 24t-24 56q0 33 24 56.5t56 23.5zM542 700v-126h-314v-156h293v-122h-293v-170h323v-126h-476v700
h467z" />
    <glyph glyph-name="Igrave" unicode="&#xcc;" horiz-adv-x="408" 
d="M174 902l99 -149h-115l-168 149h184zM367 700v-113h-88v-474h88v-113h-329v113h89v474h-89v113h329z" />
    <glyph glyph-name="Iacute" unicode="&#xcd;" horiz-adv-x="408" 
d="M429 902l-169 -149h-115l99 149h185zM367 700v-113h-88v-474h88v-113h-329v113h89v474h-89v113h329z" />
    <glyph glyph-name="Icircumflex" unicode="&#xce;" horiz-adv-x="408" 
d="M277 900l138 -147h-133l-79 66l-79 -66h-133l138 147h148zM367 700v-113h-88v-474h88v-113h-329v113h89v474h-89v113h329z" />
    <glyph glyph-name="Idieresis" unicode="&#xcf;" horiz-adv-x="408" 
d="M85 918q32 0 56 -23.5t24 -56.5q0 -32 -24 -56t-56 -24t-56.5 24t-24.5 56q0 33 24 56.5t57 23.5zM321 918q33 0 57 -23.5t24 -56.5q0 -32 -24 -56t-57 -24q-32 0 -56 24t-24 56q0 33 24 56.5t56 23.5zM367 700v-113h-88v-474h88v-113h-329v113h89v474h-89v113h329z" />
    <glyph glyph-name="Eth" unicode="&#xd0;" horiz-adv-x="741" 
d="M326 700q76 0 141 -19t117 -58t82 -106.5t30 -156.5q0 -80 -20 -143t-53 -103t-78 -66.5t-91.5 -37t-97.5 -10.5h-258v314h-71v103h71v283h228zM356 125q36 0 66 10t57.5 34.5t43.5 73t16 116.5q0 216 -208 216h-81v-158h155v-103h-155v-189h106z" />
    <glyph glyph-name="Ntilde" unicode="&#xd1;" horiz-adv-x="728" 
d="M294 896q32 0 58.5 -12t44.5 -24t29 -12q28 0 44 36h79q-7 -60 -42.5 -96t-85.5 -36q-32 0 -59 12t-45 24t-29 12q-28 0 -44 -35h-78q9 61 42.5 96t85.5 35zM653 700v-700h-176l-264 465v-465h-138v700h176l264 -477v477h138z" />
    <glyph glyph-name="Ograve" unicode="&#xd2;" horiz-adv-x="785" 
d="M363 902l99 -149h-115l-168 149h184zM392 718q65 0 124 -19.5t111 -60.5t82.5 -115.5t30.5 -173.5q0 -93 -28.5 -165.5t-78 -115.5t-111 -65t-130.5 -22q-64 0 -123 20t-110.5 61.5t-82.5 116t-31 172.5q0 94 29 166.5t78.5 115.5t110 64t129.5 21zM392 591
q-86 0 -138 -63.5t-52 -175.5q0 -115 49 -179.5t141 -64.5q86 0 138.5 63t52.5 177t-49 178.5t-142 64.5z" />
    <glyph glyph-name="Oacute" unicode="&#xd3;" horiz-adv-x="785" 
d="M618 902l-169 -149h-115l99 149h185zM392 718q65 0 124 -19.5t111 -60.5t82.5 -115.5t30.5 -173.5q0 -93 -28.5 -165.5t-78 -115.5t-111 -65t-130.5 -22q-64 0 -123 20t-110.5 61.5t-82.5 116t-31 172.5q0 94 29 166.5t78.5 115.5t110 64t129.5 21zM392 591
q-86 0 -138 -63.5t-52 -175.5q0 -115 49 -179.5t141 -64.5q86 0 138.5 63t52.5 177t-49 178.5t-142 64.5z" />
    <glyph glyph-name="Ocircumflex" unicode="&#xd4;" horiz-adv-x="785" 
d="M466 900l138 -147h-133l-79 66l-79 -66h-133l138 147h148zM392 718q65 0 124 -19.5t111 -60.5t82.5 -115.5t30.5 -173.5q0 -93 -28.5 -165.5t-78 -115.5t-111 -65t-130.5 -22q-64 0 -123 20t-110.5 61.5t-82.5 116t-31 172.5q0 94 29 166.5t78.5 115.5t110 64t129.5 21z
M392 591q-86 0 -138 -63.5t-52 -175.5q0 -115 49 -179.5t141 -64.5q86 0 138.5 63t52.5 177t-49 178.5t-142 64.5z" />
    <glyph glyph-name="Otilde" unicode="&#xd5;" horiz-adv-x="785" 
d="M328 896q32 0 58.5 -12t44.5 -24t29 -12q28 0 44 36h79q-7 -60 -42.5 -96t-85.5 -36q-32 0 -59 12t-45 24t-29 12q-28 0 -44 -35h-78q9 61 42.5 96t85.5 35zM392 718q65 0 124 -19.5t111 -60.5t82.5 -115.5t30.5 -173.5q0 -93 -28.5 -165.5t-78 -115.5t-111 -65
t-130.5 -22q-64 0 -123 20t-110.5 61.5t-82.5 116t-31 172.5q0 94 29 166.5t78.5 115.5t110 64t129.5 21zM392 591q-86 0 -138 -63.5t-52 -175.5q0 -115 49 -179.5t141 -64.5q86 0 138.5 63t52.5 177t-49 178.5t-142 64.5z" />
    <glyph glyph-name="Odieresis" unicode="&#xd6;" horiz-adv-x="785" 
d="M274 918q32 0 56 -23.5t24 -56.5q0 -32 -24 -56t-56 -24t-56.5 24t-24.5 56q0 33 24 56.5t57 23.5zM510 918q33 0 57 -23.5t24 -56.5q0 -32 -24 -56t-57 -24q-32 0 -56 24t-24 56q0 33 24 56.5t56 23.5zM392 718q65 0 124 -19.5t111 -60.5t82.5 -115.5t30.5 -173.5
q0 -93 -28.5 -165.5t-78 -115.5t-111 -65t-130.5 -22q-64 0 -123 20t-110.5 61.5t-82.5 116t-31 172.5q0 94 29 166.5t78.5 115.5t110 64t129.5 21zM392 591q-86 0 -138 -63.5t-52 -175.5q0 -115 49 -179.5t141 -64.5q86 0 138.5 63t52.5 177t-49 178.5t-142 64.5z" />
    <glyph glyph-name="multiply" unicode="&#xd7;" horiz-adv-x="638" 
d="M463 508l87 -86l-145 -145l145 -144l-87 -86l-144 144l-144 -144l-87 86l145 144l-145 145l87 86l144 -145z" />
    <glyph glyph-name="Oslash" unicode="&#xd8;" horiz-adv-x="785" 
d="M45 351q0 94 29 166.5t78.5 115.5t110 64t129.5 21q90 0 161 -36l49 77h121l-84 -134q101 -99 101 -276q0 -93 -28.5 -165t-78 -115.5t-111 -65.5t-130.5 -22q-78 0 -144 30l-63 -101h-123l98 153q-115 100 -115 288zM202 352q0 -110 43 -173l247 386q-40 25 -100 25
q-86 0 -138 -63t-52 -175zM310 126q36 -17 82 -17q85 0 138 63t53 176q0 97 -34 156z" />
    <glyph glyph-name="Ugrave" unicode="&#xd9;" horiz-adv-x="716" 
d="M329 902l99 -149h-115l-168 149h184zM646 700v-443q0 -121 -71.5 -198.5t-217.5 -77.5q-148 0 -217.5 77.5t-69.5 198.5v443h153v-441q0 -79 32.5 -115t102.5 -36q135 0 135 151v441h153z" />
    <glyph glyph-name="Uacute" unicode="&#xda;" horiz-adv-x="716" 
d="M584 902l-169 -149h-115l99 149h185zM646 700v-443q0 -121 -71.5 -198.5t-217.5 -77.5q-148 0 -217.5 77.5t-69.5 198.5v443h153v-441q0 -79 32.5 -115t102.5 -36q135 0 135 151v441h153z" />
    <glyph glyph-name="Ucircumflex" unicode="&#xdb;" horiz-adv-x="716" 
d="M432 900l138 -147h-133l-79 66l-79 -66h-133l138 147h148zM646 700v-443q0 -121 -71.5 -198.5t-217.5 -77.5q-148 0 -217.5 77.5t-69.5 198.5v443h153v-441q0 -79 32.5 -115t102.5 -36q135 0 135 151v441h153z" />
    <glyph glyph-name="Udieresis" unicode="&#xdc;" horiz-adv-x="716" 
d="M240 918q32 0 56 -23.5t24 -56.5q0 -32 -24 -56t-56 -24t-56.5 24t-24.5 56q0 33 24 56.5t57 23.5zM476 918q33 0 57 -23.5t24 -56.5q0 -32 -24 -56t-57 -24q-32 0 -56 24t-24 56q0 33 24 56.5t56 23.5zM646 700v-443q0 -121 -71.5 -198.5t-217.5 -77.5
q-148 0 -217.5 77.5t-69.5 198.5v443h153v-441q0 -79 32.5 -115t102.5 -36q135 0 135 151v441h153z" />
    <glyph glyph-name="Yacute" unicode="&#xdd;" horiz-adv-x="624" 
d="M541 902l-169 -149h-115l99 149h185zM628 700l-240 -422v-278h-152v276l-240 424h173l145 -299l147 299h167z" />
    <glyph glyph-name="Thorn" unicode="&#xde;" horiz-adv-x="654" 
d="M228 700v-109h112q141 0 211 -65t70 -173q0 -113 -70.5 -176.5t-208.5 -63.5h-114v-113h-153v700h153zM352 465h-124v-229h120q52 0 84 28t32 90q0 51 -30 81t-82 30z" />
    <glyph glyph-name="germandbls" unicode="&#xdf;" horiz-adv-x="631" 
d="M298 718q107 0 162.5 -44.5t55.5 -109.5q0 -32 -14.5 -58.5t-32 -40.5t-32 -32t-14.5 -36t19.5 -31t46.5 -25.5t54.5 -30t47 -53t19.5 -86.5q0 -77 -54 -131t-159 -54q-91 0 -158 51l62 94q35 -29 86 -29q32 0 51.5 17.5t19.5 52.5q0 28 -18 47.5t-44 32.5t-52.5 27
t-44.5 39t-18 61q0 29 14.5 54t32.5 40t32.5 35t14.5 39q0 31 -22 45.5t-55 14.5q-84 0 -84 -100v-507h-146v503q0 100 60 157.5t170 57.5z" />
    <glyph glyph-name="agrave" unicode="&#xe0;" horiz-adv-x="577" 
d="M264 744l97 -151h-111l-164 151h178zM291 545q117 0 170 -42.5t53 -124.5v-262q0 -72 18 -116h-145q-11 24 -16 54q-52 -68 -156 -68q-83 0 -130.5 45t-47.5 118q0 77 52 121.5t168 59.5l111 14v24q0 43 -16.5 59t-63.5 16q-45 0 -64.5 -16t-21.5 -54h-144q3 86 63.5 129
t169.5 43zM368 251l-75 -10q-58 -8 -82.5 -26t-24.5 -52q0 -30 18 -47t54 -17q46 0 78 28.5t32 71.5v52z" />
    <glyph glyph-name="aacute" unicode="&#xe1;" horiz-adv-x="577" 
d="M508 744l-164 -151h-111l97 151h178zM291 545q117 0 170 -42.5t53 -124.5v-262q0 -72 18 -116h-145q-11 24 -16 54q-52 -68 -156 -68q-83 0 -130.5 45t-47.5 118q0 77 52 121.5t168 59.5l111 14v24q0 43 -16.5 59t-63.5 16q-45 0 -64.5 -16t-21.5 -54h-144q3 86 63.5 129
t169.5 43zM368 251l-75 -10q-58 -8 -82.5 -26t-24.5 -52q0 -30 18 -47t54 -17q46 0 78 28.5t32 71.5v52z" />
    <glyph glyph-name="acircumflex" unicode="&#xe2;" horiz-adv-x="577" 
d="M370 749l138 -151h-133l-79 73l-79 -73h-133l138 151h148zM291 545q117 0 170 -42.5t53 -124.5v-262q0 -72 18 -116h-145q-11 24 -16 54q-52 -68 -156 -68q-83 0 -130.5 45t-47.5 118q0 77 52 121.5t168 59.5l111 14v24q0 43 -16.5 59t-63.5 16q-45 0 -64.5 -16
t-21.5 -54h-144q3 86 63.5 129t169.5 43zM368 251l-75 -10q-58 -8 -82.5 -26t-24.5 -52q0 -30 18 -47t54 -17q46 0 78 28.5t32 71.5v52z" />
    <glyph glyph-name="atilde" unicode="&#xe3;" horiz-adv-x="577" 
d="M232 736q32 0 58.5 -12t44.5 -24t29 -12q28 0 44 36h79q-7 -60 -42.5 -96t-85.5 -36q-32 0 -59 12t-45 24t-29 12q-28 0 -44 -35h-78q9 61 42.5 96t85.5 35zM291 545q117 0 170 -42.5t53 -124.5v-262q0 -72 18 -116h-145q-11 24 -16 54q-52 -68 -156 -68q-83 0 -130.5 45
t-47.5 118q0 77 52 121.5t168 59.5l111 14v24q0 43 -16.5 59t-63.5 16q-45 0 -64.5 -16t-21.5 -54h-144q3 86 63.5 129t169.5 43zM368 251l-75 -10q-58 -8 -82.5 -26t-24.5 -52q0 -30 18 -47t54 -17q46 0 78 28.5t32 71.5v52z" />
    <glyph glyph-name="adieresis" unicode="&#xe4;" horiz-adv-x="577" 
d="M178 758q32 0 56 -23.5t24 -56.5q0 -32 -24 -56t-56 -24t-56.5 24t-24.5 56q0 33 24 56.5t57 23.5zM414 758q33 0 57 -23.5t24 -56.5q0 -32 -24 -56t-57 -24q-32 0 -56 24t-24 56q0 33 24 56.5t56 23.5zM291 545q117 0 170 -42.5t53 -124.5v-262q0 -72 18 -116h-145
q-11 24 -16 54q-52 -68 -156 -68q-83 0 -130.5 45t-47.5 118q0 77 52 121.5t168 59.5l111 14v24q0 43 -16.5 59t-63.5 16q-45 0 -64.5 -16t-21.5 -54h-144q3 86 63.5 129t169.5 43zM368 251l-75 -10q-58 -8 -82.5 -26t-24.5 -52q0 -30 18 -47t54 -17q46 0 78 28.5t32 71.5
v52z" />
    <glyph glyph-name="aring" unicode="&#xe5;" horiz-adv-x="577" 
d="M296 842q56 0 96 -36t40 -92q0 -57 -40 -93t-96 -36t-96 36t-40 93q0 56 40 92t96 36zM296 764q-20 0 -33 -13.5t-13 -36.5t13.5 -37t32.5 -14t32.5 14t13.5 37t-13 36.5t-33 13.5zM291 545q117 0 170 -42.5t53 -124.5v-262q0 -72 18 -116h-145q-11 24 -16 54
q-52 -68 -156 -68q-83 0 -130.5 45t-47.5 118q0 77 52 121.5t168 59.5l111 14v24q0 43 -16.5 59t-63.5 16q-45 0 -64.5 -16t-21.5 -54h-144q3 86 63.5 129t169.5 43zM368 251l-75 -10q-58 -8 -82.5 -26t-24.5 -52q0 -30 18 -47t54 -17q46 0 78 28.5t32 71.5v52z" />
    <glyph glyph-name="ae" unicode="&#xe6;" horiz-adv-x="913" 
d="M628 545q113 0 180 -78.5t67 -208.5v-28h-367q3 -65 36 -97.5t90 -32.5q81 0 121 69l116 -57q-79 -126 -244 -126q-135 0 -203 98q-67 -98 -201 -98q-88 0 -137 45t-49 117q0 78 52 123.5t168 58.5l122 14q2 15 11 44q-9 30 -32 42.5t-69 12.5t-65.5 -16.5t-21.5 -54.5
h-144q3 86 61.5 129.5t165.5 43.5q73 0 110.5 -17.5t61.5 -47.5q25 26 70.5 45.5t100.5 19.5zM620 439q-48 0 -78 -29t-34 -87h221q-7 116 -109 116zM375 251l-86 -11q-54 -6 -78.5 -24.5t-24.5 -53.5q0 -63 72 -63q44 0 80.5 25t41.5 55q-5 34 -5 72z" />
    <glyph glyph-name="ccedilla" unicode="&#xe7;" horiz-adv-x="582" 
d="M559 142q-63 -135 -204 -153l-1 -33q52 -5 81.5 -30t29.5 -62q0 -51 -41 -79t-107 -28q-71 0 -125 28l34 70q39 -17 76 -17q49 0 49 30q0 21 -25 29t-79 8l14 85q-103 15 -162 89.5t-59 185.5q0 124 73.5 202t196.5 78q175 0 243 -144l-127 -50q-30 78 -108 78
q-58 0 -91.5 -41t-33.5 -121t33 -122.5t92 -42.5q82 0 115 90z" />
    <glyph glyph-name="egrave" unicode="&#xe8;" horiz-adv-x="597" 
d="M271 744l97 -151h-111l-164 151h178zM303 545q119 0 188 -78t69 -208v-28h-370q4 -65 37.5 -98.5t91.5 -33.5q81 0 120 70l117 -57q-80 -126 -244 -126q-125 0 -198.5 78.5t-73.5 201.5q0 125 70 202t193 77zM302 439q-48 0 -78 -29t-34 -86h221q-7 115 -109 115z" />
    <glyph glyph-name="eacute" unicode="&#xe9;" horiz-adv-x="597" 
d="M515 744l-164 -151h-111l97 151h178zM303 545q119 0 188 -78t69 -208v-28h-370q4 -65 37.5 -98.5t91.5 -33.5q81 0 120 70l117 -57q-80 -126 -244 -126q-125 0 -198.5 78.5t-73.5 201.5q0 125 70 202t193 77zM302 439q-48 0 -78 -29t-34 -86h221q-7 115 -109 115z" />
    <glyph glyph-name="ecircumflex" unicode="&#xea;" horiz-adv-x="597" 
d="M377 749l138 -151h-133l-79 73l-79 -73h-133l138 151h148zM303 545q119 0 188 -78t69 -208v-28h-370q4 -65 37.5 -98.5t91.5 -33.5q81 0 120 70l117 -57q-80 -126 -244 -126q-125 0 -198.5 78.5t-73.5 201.5q0 125 70 202t193 77zM302 439q-48 0 -78 -29t-34 -86h221
q-7 115 -109 115z" />
    <glyph glyph-name="edieresis" unicode="&#xeb;" horiz-adv-x="597" 
d="M185 758q32 0 56 -23.5t24 -56.5q0 -32 -24 -56t-56 -24t-56.5 24t-24.5 56q0 33 24 56.5t57 23.5zM421 758q33 0 57 -23.5t24 -56.5q0 -32 -24 -56t-57 -24q-32 0 -56 24t-24 56q0 33 24 56.5t56 23.5zM303 545q119 0 188 -78t69 -208v-28h-370q4 -65 37.5 -98.5
t91.5 -33.5q81 0 120 70l117 -57q-80 -126 -244 -126q-125 0 -198.5 78.5t-73.5 201.5q0 125 70 202t193 77zM302 439q-48 0 -78 -29t-34 -86h221q-7 115 -109 115z" />
    <glyph glyph-name="igrave" unicode="&#xec;" horiz-adv-x="282" 
d="M109 744l97 -151h-111l-164 151h178zM214 531v-531h-146v531h146z" />
    <glyph glyph-name="iacute" unicode="&#xed;" horiz-adv-x="282" 
d="M353 744l-164 -151h-111l97 151h178zM214 531v-531h-146v531h146z" />
    <glyph glyph-name="icircumflex" unicode="&#xee;" horiz-adv-x="282" 
d="M215 749l138 -151h-133l-79 73l-79 -73h-133l138 151h148zM214 531v-531h-146v531h146z" />
    <glyph glyph-name="idieresis" unicode="&#xef;" horiz-adv-x="282" 
d="M23 758q32 0 56 -23.5t24 -56.5q0 -32 -24 -56t-56 -24t-56.5 24t-24.5 56q0 33 24 56.5t57 23.5zM259 758q33 0 57 -23.5t24 -56.5q0 -32 -24 -56t-57 -24q-32 0 -56 24t-24 56q0 33 24 56.5t56 23.5zM214 531v-531h-146v531h146z" />
    <glyph glyph-name="eth" unicode="&#xf0;" horiz-adv-x="621" 
d="M463 604q118 -118 118 -300q0 -156 -76 -238t-203 -82q-118 0 -190 65.5t-72 175.5t66.5 172t162.5 62q117 0 172 -81q-11 94 -94 177l-108 -46l-32 65l80 34q-52 40 -139 92h184q5 -3 18 -11t25.5 -16.5t24.5 -16.5l100 42l31 -65zM308 100q53 0 84 32.5t31 90.5
q0 56 -30.5 88.5t-86.5 32.5t-86 -33.5t-30 -86.5q0 -59 32 -91.5t86 -32.5z" />
    <glyph glyph-name="ntilde" unicode="&#xf1;" horiz-adv-x="613" 
d="M264 736q32 0 58.5 -12t44.5 -24t29 -12q28 0 44 36h79q-7 -60 -42.5 -96t-85.5 -36q-33 0 -59.5 12t-44.5 24t-29 12q-28 0 -44 -35h-78q9 61 42.5 96t85.5 35zM372 545q85 0 131.5 -52.5t46.5 -148.5v-344h-146v300q0 63 -18 93t-65 30t-77 -36.5t-30 -93.5v-293h-146
v531h141v-70q57 84 163 84z" />
    <glyph glyph-name="ograve" unicode="&#xf2;" horiz-adv-x="635" 
d="M285 744l97 -151h-111l-164 151h178zM317 545q126 0 202 -78.5t76 -200.5q0 -127 -75 -203.5t-203 -76.5t-202.5 77.5t-74.5 202.5t75 202t202 77zM317 429q-58 0 -91 -40.5t-33 -120.5q0 -81 32.5 -123.5t91.5 -42.5q60 0 92.5 42.5t32.5 123.5q0 80 -33.5 120.5
t-91.5 40.5z" />
    <glyph glyph-name="oacute" unicode="&#xf3;" horiz-adv-x="635" 
d="M529 744l-164 -151h-111l97 151h178zM317 545q126 0 202 -78.5t76 -200.5q0 -127 -75 -203.5t-203 -76.5t-202.5 77.5t-74.5 202.5t75 202t202 77zM317 429q-58 0 -91 -40.5t-33 -120.5q0 -81 32.5 -123.5t91.5 -42.5q60 0 92.5 42.5t32.5 123.5q0 80 -33.5 120.5
t-91.5 40.5z" />
    <glyph glyph-name="ocircumflex" unicode="&#xf4;" horiz-adv-x="635" 
d="M391 749l138 -151h-133l-79 73l-79 -73h-133l138 151h148zM317 545q126 0 202 -78.5t76 -200.5q0 -127 -75 -203.5t-203 -76.5t-202.5 77.5t-74.5 202.5t75 202t202 77zM317 429q-58 0 -91 -40.5t-33 -120.5q0 -81 32.5 -123.5t91.5 -42.5q60 0 92.5 42.5t32.5 123.5
q0 80 -33.5 120.5t-91.5 40.5z" />
    <glyph glyph-name="otilde" unicode="&#xf5;" horiz-adv-x="635" 
d="M253 736q32 0 58.5 -12t44.5 -24t29 -12q28 0 44 36h79q-7 -60 -42.5 -96t-85.5 -36q-32 0 -59 12t-45 24t-29 12q-28 0 -44 -35h-78q9 61 42.5 96t85.5 35zM317 545q126 0 202 -78.5t76 -200.5q0 -127 -75 -203.5t-203 -76.5t-202.5 77.5t-74.5 202.5t75 202t202 77z
M317 429q-58 0 -91 -40.5t-33 -120.5q0 -81 32.5 -123.5t91.5 -42.5q60 0 92.5 42.5t32.5 123.5q0 80 -33.5 120.5t-91.5 40.5z" />
    <glyph glyph-name="odieresis" unicode="&#xf6;" horiz-adv-x="635" 
d="M199 758q32 0 56 -23.5t24 -56.5q0 -32 -24 -56t-56 -24t-56.5 24t-24.5 56q0 33 24 56.5t57 23.5zM435 758q33 0 57 -23.5t24 -56.5q0 -32 -24 -56t-57 -24q-32 0 -56 24t-24 56q0 33 24 56.5t56 23.5zM317 545q126 0 202 -78.5t76 -200.5q0 -127 -75 -203.5t-203 -76.5
t-202.5 77.5t-74.5 202.5t75 202t202 77zM317 429q-58 0 -91 -40.5t-33 -120.5q0 -81 32.5 -123.5t91.5 -42.5q60 0 92.5 42.5t32.5 123.5q0 80 -33.5 120.5t-91.5 40.5z" />
    <glyph glyph-name="divide" unicode="&#xf7;" 
d="M301 588q37 0 63.5 -26.5t26.5 -63.5q0 -36 -26.5 -62.5t-63.5 -26.5t-64 26.5t-27 63.5t27 63t64 26zM515 361v-123h-430v123h430zM301 191q37 0 63.5 -26.5t26.5 -63.5q0 -36 -26.5 -62.5t-63.5 -26.5t-64 26.5t-27 63.5t27 63t64 26z" />
    <glyph glyph-name="oslash" unicode="&#xf8;" horiz-adv-x="635" 
d="M583 605l-76 -131q88 -82 88 -209q0 -126 -75 -202.5t-203 -76.5q-54 0 -102 17l-48 -84h-114l78 130q-91 76 -91 216q0 125 75 202.5t202 77.5q55 0 106 -19l49 79h111zM317 429q-58 0 -91.5 -41t-33.5 -121q0 -69 22 -108l156 261q-24 9 -53 9zM424 366l-154 -256
q22 -8 47 -8q60 0 93 42.5t33 122.5q0 61 -19 99z" />
    <glyph glyph-name="ugrave" unicode="&#xf9;" horiz-adv-x="607" 
d="M269 744l97 -151h-111l-164 151h178zM539 531v-531h-142v63q-58 -77 -157 -77q-80 0 -128.5 46.5t-48.5 138.5v360h146v-326q0 -50 18.5 -72t59.5 -22q47 0 76.5 33.5t29.5 87.5v299h146z" />
    <glyph glyph-name="uacute" unicode="&#xfa;" horiz-adv-x="607" 
d="M513 744l-164 -151h-111l97 151h178zM539 531v-531h-142v63q-58 -77 -157 -77q-80 0 -128.5 46.5t-48.5 138.5v360h146v-326q0 -50 18.5 -72t59.5 -22q47 0 76.5 33.5t29.5 87.5v299h146z" />
    <glyph glyph-name="ucircumflex" unicode="&#xfb;" horiz-adv-x="607" 
d="M375 749l138 -151h-133l-79 73l-79 -73h-133l138 151h148zM539 531v-531h-142v63q-58 -77 -157 -77q-80 0 -128.5 46.5t-48.5 138.5v360h146v-326q0 -50 18.5 -72t59.5 -22q47 0 76.5 33.5t29.5 87.5v299h146z" />
    <glyph glyph-name="udieresis" unicode="&#xfc;" horiz-adv-x="607" 
d="M183 758q32 0 56 -23.5t24 -56.5q0 -32 -24 -56t-56 -24t-56.5 24t-24.5 56q0 33 24 56.5t57 23.5zM419 758q33 0 57 -23.5t24 -56.5q0 -32 -24 -56t-57 -24q-32 0 -56 24t-24 56q0 33 24 56.5t56 23.5zM539 531v-531h-142v63q-58 -77 -157 -77q-80 0 -128.5 46.5
t-48.5 138.5v360h146v-326q0 -50 18.5 -72t59.5 -22q47 0 76.5 33.5t29.5 87.5v299h146z" />
    <glyph glyph-name="yacute" unicode="&#xfd;" horiz-adv-x="535" 
d="M481 744l-164 -151h-111l97 151h178zM530 531l-165 -550q-26 -86 -71 -127.5t-139 -41.5q-39 0 -74 7v102q25 -2 48 -2q54 0 74 16.5t30 64.5h-56l-174 531h163l107 -428l99 428h158z" />
    <glyph glyph-name="thorn" unicode="&#xfe;" horiz-adv-x="635" 
d="M214 700v-222q50 67 150 67q102 0 166.5 -77.5t64.5 -202.5q0 -122 -65.5 -200.5t-168.5 -78.5q-96 0 -147 61v-214h-146v867h146zM322 429q-54 0 -85.5 -41.5t-31.5 -123.5q0 -79 32 -120.5t85 -41.5q55 0 87.5 43t32.5 120q0 80 -31 122t-89 42z" />
    <glyph glyph-name="ydieresis" unicode="&#xff;" horiz-adv-x="535" 
d="M151 758q32 0 56 -23.5t24 -56.5q0 -32 -24 -56t-56 -24t-56.5 24t-24.5 56q0 33 24 56.5t57 23.5zM387 758q33 0 57 -23.5t24 -56.5q0 -32 -24 -56t-57 -24q-32 0 -56 24t-24 56q0 33 24 56.5t56 23.5zM530 531l-165 -550q-26 -86 -71 -127.5t-139 -41.5q-39 0 -74 7
v102q25 -2 48 -2q54 0 74 16.5t30 64.5h-56l-174 531h163l107 -428l99 428h158z" />
    <glyph glyph-name="Amacron" unicode="&#x100;" horiz-adv-x="656" 
d="M506 877v-99h-357v99h357zM489 0l-32 110h-264l-32 -110h-156l227 700h192l227 -700h-162zM325 583l-98 -351h196z" />
    <glyph glyph-name="amacron" unicode="&#x101;" horiz-adv-x="577" 
d="M474 717v-99h-357v99h357zM291 545q117 0 170 -42.5t53 -124.5v-262q0 -72 18 -116h-145q-11 24 -16 54q-52 -68 -156 -68q-83 0 -130.5 45t-47.5 118q0 77 52 121.5t168 59.5l111 14v24q0 43 -16.5 59t-63.5 16q-45 0 -64.5 -16t-21.5 -54h-144q3 86 63.5 129t169.5 43z
M368 251l-75 -10q-58 -8 -82.5 -26t-24.5 -52q0 -30 18 -47t54 -17q46 0 78 28.5t32 71.5v52z" />
    <glyph glyph-name="Abreve" unicode="&#x102;" horiz-adv-x="656" 
d="M328 755q-74 0 -119 40.5t-56 113.5h85q11 -57 90 -57q77 0 90 57h85q-24 -154 -175 -154zM489 0l-32 110h-264l-32 -110h-156l227 700h192l227 -700h-162zM325 583l-98 -351h196z" />
    <glyph glyph-name="abreve" unicode="&#x103;" horiz-adv-x="577" 
d="M471 748q-12 -74 -56 -115.5t-119 -41.5q-73 0 -118.5 41.5t-56.5 115.5h85q6 -29 30.5 -44.5t59.5 -15.5q77 0 90 60h85zM291 545q117 0 170 -42.5t53 -124.5v-262q0 -72 18 -116h-145q-11 24 -16 54q-52 -68 -156 -68q-83 0 -130.5 45t-47.5 118q0 77 52 121.5
t168 59.5l111 14v24q0 43 -16.5 59t-63.5 16q-45 0 -64.5 -16t-21.5 -54h-144q3 86 63.5 129t169.5 43zM368 251l-75 -10q-58 -8 -82.5 -26t-24.5 -52q0 -30 18 -47t54 -17q46 0 78 28.5t32 71.5v52z" />
    <glyph glyph-name="Aogonek" unicode="&#x104;" horiz-adv-x="656" 
d="M650 0q-69 -19 -100 -49.5t-31 -62.5q0 -49 62 -49q21 0 35 3l25 -73q-33 -11 -78 -11q-72 0 -112.5 30.5t-40.5 82.5q0 75 79 130l-32 109h-264l-32 -110h-156l227 700h192l227 -700h-1zM325 583l-98 -351h196z" />
    <glyph glyph-name="aogonek" unicode="&#x105;" horiz-adv-x="577" 
d="M463 -161q21 0 35 3l25 -73q-33 -11 -78 -11q-72 0 -112.5 30.5t-40.5 82.5q0 81 91 138q-9 21 -12 45q-52 -68 -156 -68q-83 0 -130.5 45t-47.5 118q0 77 52 121.5t168 59.5l111 14v24q0 43 -16.5 59t-63.5 16q-45 0 -64.5 -16t-21.5 -54h-144q3 86 63.5 129t169.5 43
q117 0 170 -42.5t53 -124.5v-262q0 -72 18 -116q-69 -19 -100 -49.5t-31 -62.5q0 -49 62 -49zM368 199v52l-75 -10q-58 -8 -82.5 -26t-24.5 -52q0 -30 18 -47t54 -17q46 0 78 28.5t32 71.5z" />
    <glyph glyph-name="Cacute" unicode="&#x106;" horiz-adv-x="743" 
d="M609 902l-169 -149h-115l99 149h185zM383 717q103 0 184.5 -48t122.5 -156l-148 -39q-45 115 -159 115q-84 0 -132.5 -62.5t-48.5 -174.5q0 -114 47 -177.5t136 -63.5q67 0 108.5 32.5t65.5 98.5l145 -45q-40 -104 -126 -159t-196 -55q-65 0 -123 20.5t-107 62.5
t-78 115.5t-29 169.5q0 76 18.5 138t50.5 103.5t75.5 70t92 41.5t101.5 13z" />
    <glyph glyph-name="cacute" unicode="&#x107;" horiz-adv-x="582" 
d="M524 744l-164 -151h-111l97 151h178zM310 545q175 0 243 -144l-127 -50q-30 78 -108 78q-58 0 -91.5 -41t-33.5 -121t33 -122.5t92 -42.5q82 0 115 90l126 -50q-73 -156 -249 -156q-125 0 -197.5 77.5t-72.5 201.5t73.5 202t196.5 78z" />
    <glyph glyph-name="Ccircumflex" unicode="&#x108;" horiz-adv-x="743" 
d="M457 900l138 -147h-133l-79 66l-79 -66h-133l138 147h148zM383 717q103 0 184.5 -48t122.5 -156l-148 -39q-45 115 -159 115q-84 0 -132.5 -62.5t-48.5 -174.5q0 -114 47 -177.5t136 -63.5q67 0 108.5 32.5t65.5 98.5l145 -45q-40 -104 -126 -159t-196 -55
q-65 0 -123 20.5t-107 62.5t-78 115.5t-29 169.5q0 76 18.5 138t50.5 103.5t75.5 70t92 41.5t101.5 13z" />
    <glyph glyph-name="ccircumflex" unicode="&#x109;" horiz-adv-x="582" 
d="M386 749l138 -151h-133l-79 73l-79 -73h-133l138 151h148zM310 545q175 0 243 -144l-127 -50q-30 78 -108 78q-58 0 -91.5 -41t-33.5 -121t33 -122.5t92 -42.5q82 0 115 90l126 -50q-73 -156 -249 -156q-125 0 -197.5 77.5t-72.5 201.5t73.5 202t196.5 78z" />
    <glyph glyph-name="Cdotaccent" unicode="&#x10a;" horiz-adv-x="743" 
d="M385 949q35 0 60.5 -24t25.5 -58t-25.5 -58.5t-60.5 -24.5t-60.5 24.5t-25.5 58.5t25.5 58t60.5 24zM383 717q103 0 184.5 -48t122.5 -156l-148 -39q-45 115 -159 115q-84 0 -132.5 -62.5t-48.5 -174.5q0 -114 47 -177.5t136 -63.5q67 0 108.5 32.5t65.5 98.5l145 -45
q-40 -104 -126 -159t-196 -55q-65 0 -123 20.5t-107 62.5t-78 115.5t-29 169.5q0 76 18.5 138t50.5 103.5t75.5 70t92 41.5t101.5 13z" />
    <glyph glyph-name="cdotaccent" unicode="&#x10b;" horiz-adv-x="582" 
d="M312 774q35 0 60.5 -24t25.5 -58t-25.5 -58.5t-60.5 -24.5t-60.5 24.5t-25.5 58.5t25.5 58t60.5 24zM310 545q175 0 243 -144l-127 -50q-30 78 -108 78q-58 0 -91.5 -41t-33.5 -121t33 -122.5t92 -42.5q82 0 115 90l126 -50q-73 -156 -249 -156q-125 0 -197.5 77.5
t-72.5 201.5t73.5 202t196.5 78z" />
    <glyph glyph-name="Ccaron" unicode="&#x10c;" horiz-adv-x="743" 
d="M595 910l-138 -147h-148l-138 147h133l79 -65l79 65h133zM383 717q103 0 184.5 -48t122.5 -156l-148 -39q-45 115 -159 115q-84 0 -132.5 -62.5t-48.5 -174.5q0 -114 47 -177.5t136 -63.5q67 0 108.5 32.5t65.5 98.5l145 -45q-40 -104 -126 -159t-196 -55
q-65 0 -123 20.5t-107 62.5t-78 115.5t-29 169.5q0 76 18.5 138t50.5 103.5t75.5 70t92 41.5t101.5 13z" />
    <glyph glyph-name="ccaron" unicode="&#x10d;" horiz-adv-x="582" 
d="M524 749l-138 -151h-148l-138 151h133l79 -72l79 72h133zM310 545q175 0 243 -144l-127 -50q-30 78 -108 78q-58 0 -91.5 -41t-33.5 -121t33 -122.5t92 -42.5q82 0 115 90l126 -50q-73 -156 -249 -156q-125 0 -197.5 77.5t-72.5 201.5t73.5 202t196.5 78z" />
    <glyph glyph-name="Dcaron" unicode="&#x10e;" horiz-adv-x="718" 
d="M515 910l-138 -147h-148l-138 147h133l79 -65l79 65h133zM303 700q76 0 141 -19t117 -58t82 -106.5t30 -156.5q0 -99 -29.5 -171.5t-80 -112t-108 -58t-122.5 -18.5h-258v700h228zM308 575h-80v-450h105q183 0 183 234q0 216 -208 216z" />
    <glyph glyph-name="dcaron" unicode="&#x10f;" horiz-adv-x="705" 
d="M756 744l-91 -155h-87l36 155h142zM568 700v-700h-142v58q-55 -72 -154 -72q-105 0 -168.5 78t-63.5 201q0 125 67 202.5t170 77.5q91 0 145 -60v215h146zM313 430q-57 0 -88.5 -42.5t-31.5 -121.5q0 -80 31 -121.5t89 -41.5q55 0 86.5 41t31.5 122q0 80 -32.5 122
t-85.5 42z" />
    <glyph glyph-name="Dcroat" unicode="&#x110;" horiz-adv-x="741" 
d="M326 700q76 0 141 -19t117 -58t82 -106.5t30 -156.5q0 -80 -20 -143t-53 -103t-78 -66.5t-91.5 -37t-97.5 -10.5h-258v314h-71v103h71v283h228zM356 125q36 0 66 10t57.5 34.5t43.5 73t16 116.5q0 216 -208 216h-81v-158h155v-103h-155v-189h106z" />
    <glyph glyph-name="dcroat" unicode="&#x111;" horiz-adv-x="648" 
d="M639 658v-87h-71v-571h-142v55q-52 -69 -150 -69q-106 0 -171 77.5t-65 199.5q0 123 66 199.5t169 76.5q99 0 156 -67v99h-156v87h156v42h137v-42h71zM312 102q55 0 87 41t32 120t-32.5 119.5t-86.5 40.5q-56 0 -87.5 -41t-31.5 -119t31 -119.5t88 -41.5z" />
    <glyph glyph-name="Emacron" unicode="&#x112;" horiz-adv-x="599" 
d="M486 877v-99h-357v99h357zM542 700v-126h-314v-156h293v-122h-293v-170h323v-126h-476v700h467z" />
    <glyph glyph-name="emacron" unicode="&#x113;" horiz-adv-x="597" 
d="M481 717v-99h-357v99h357zM303 545q119 0 188 -78t69 -208v-28h-370q4 -65 37.5 -98.5t91.5 -33.5q81 0 120 70l117 -57q-80 -126 -244 -126q-125 0 -198.5 78.5t-73.5 201.5q0 125 70 202t193 77zM302 439q-48 0 -78 -29t-34 -86h221q-7 115 -109 115z" />
    <glyph glyph-name="Ebreve" unicode="&#x114;" horiz-adv-x="599" 
d="M483 909q-24 -154 -175 -154q-74 0 -119 40.5t-56 113.5h85q11 -57 90 -57q77 0 90 57h85zM542 700v-126h-314v-156h293v-122h-293v-170h323v-126h-476v700h467z" />
    <glyph glyph-name="ebreve" unicode="&#x115;" horiz-adv-x="597" 
d="M478 748q-12 -74 -56 -115.5t-119 -41.5q-73 0 -118.5 41.5t-56.5 115.5h85q6 -29 30.5 -44.5t59.5 -15.5q77 0 90 60h85zM303 545q119 0 188 -78t69 -208v-28h-370q4 -65 37.5 -98.5t91.5 -33.5q81 0 120 70l117 -57q-80 -126 -244 -126q-125 0 -198.5 78.5t-73.5 201.5
q0 125 70 202t193 77zM302 439q-48 0 -78 -29t-34 -86h221q-7 115 -109 115z" />
    <glyph glyph-name="Edotaccent" unicode="&#x116;" horiz-adv-x="599" 
d="M310 949q35 0 60.5 -24t25.5 -58t-25.5 -58.5t-60.5 -24.5t-60.5 24.5t-25.5 58.5t25.5 58t60.5 24zM542 700v-126h-314v-156h293v-122h-293v-170h323v-126h-476v700h467z" />
    <glyph glyph-name="edotaccent" unicode="&#x117;" horiz-adv-x="597" 
d="M303 774q35 0 60.5 -24t25.5 -58t-25.5 -58.5t-60.5 -24.5t-60.5 24.5t-25.5 58.5t25.5 58t60.5 24zM303 545q119 0 188 -78t69 -208v-28h-370q4 -65 37.5 -98.5t91.5 -33.5q81 0 120 70l117 -57q-80 -126 -244 -126q-125 0 -198.5 78.5t-73.5 201.5q0 125 70 202t193 77
zM302 439q-48 0 -78 -29t-34 -86h221q-7 115 -109 115z" />
    <glyph glyph-name="Eogonek" unicode="&#x118;" horiz-adv-x="599" 
d="M541 -146l26 -73q-52 -23 -112 -23q-67 0 -106 28t-39 76q0 89 108 138h-343v700h467v-126h-314v-156h293v-122h-293v-170h323v-126h-46q-83 -52 -83 -112q0 -46 55 -46q28 0 64 12z" />
    <glyph glyph-name="eogonek" unicode="&#x119;" horiz-adv-x="597" 
d="M560 259v-28h-370q4 -65 37.5 -98.5t91.5 -33.5q81 0 120 70l117 -57q-37 -59 -92 -89q-103 -74 -103 -132q0 -49 55 -49q28 0 64 12l26 -73q-51 -23 -111 -23q-67 0 -106.5 28t-39.5 76q0 76 82 124h-19q-125 0 -198.5 78.5t-73.5 201.5q0 125 70 202t193 77
q119 0 188 -78t69 -208zM190 324h221q-7 115 -109 115q-48 0 -78 -29t-34 -86z" />
    <glyph glyph-name="Ecaron" unicode="&#x11a;" horiz-adv-x="599" 
d="M520 910l-138 -147h-148l-138 147h133l79 -65l79 65h133zM542 700v-126h-314v-156h293v-122h-293v-170h323v-126h-476v700h467z" />
    <glyph glyph-name="ecaron" unicode="&#x11b;" horiz-adv-x="597" 
d="M515 749l-138 -151h-148l-138 151h133l79 -72l79 72h133zM303 545q119 0 188 -78t69 -208v-28h-370q4 -65 37.5 -98.5t91.5 -33.5q81 0 120 70l117 -57q-80 -126 -244 -126q-125 0 -198.5 78.5t-73.5 201.5q0 125 70 202t193 77zM302 439q-48 0 -78 -29t-34 -86h221
q-7 115 -109 115z" />
    <glyph glyph-name="Gcircumflex" unicode="&#x11c;" horiz-adv-x="756" 
d="M451 900l138 -147h-133l-79 66l-79 -66h-133l138 147h148zM383 718q220 0 304 -187l-138 -49q-47 111 -166 111q-88 0 -134.5 -64t-46.5 -180t45.5 -179.5t136.5 -63.5q71 0 115 37.5t44 102.5v26h-150v113h303v-385h-139v63q-73 -82 -197 -82q-60 0 -114 20t-100 61.5
t-73.5 114.5t-27.5 169q0 183 97 277.5t241 94.5z" />
    <glyph glyph-name="gcircumflex" unicode="&#x11d;" horiz-adv-x="595" 
d="M361 749l138 -151h-133l-79 73l-79 -73h-133l138 151h148zM574 580v-119q-48 0 -76 -10q26 -36 26 -86q0 -77 -60.5 -124.5t-171.5 -47.5q-54 0 -102 16q-15 -15 -15 -31q0 -20 15 -30t52 -10h92q113 0 169 -43.5t56 -114.5q0 -79 -69.5 -123.5t-200.5 -44.5
q-257 0 -257 138q0 68 76 105q-51 31 -51 89q0 56 63 96q-72 46 -72 127q0 78 61 128t174 50q83 0 141 -29q53 64 150 64zM288 449q-46 0 -70.5 -21t-24.5 -58q0 -35 24 -55.5t70 -20.5q45 0 69.5 20t24.5 56q0 37 -24 58t-69 21zM305 26h-115q-34 -22 -34 -54
q0 -30 28.5 -45t99.5 -15q127 0 127 60q0 29 -23.5 41.5t-82.5 12.5z" />
    <glyph glyph-name="Gbreve" unicode="&#x11e;" horiz-adv-x="756" 
d="M552 909q-24 -154 -175 -154q-74 0 -119 40.5t-56 113.5h85q11 -57 90 -57q77 0 90 57h85zM383 718q220 0 304 -187l-138 -49q-47 111 -166 111q-88 0 -134.5 -64t-46.5 -180t45.5 -179.5t136.5 -63.5q71 0 115 37.5t44 102.5v26h-150v113h303v-385h-139v63
q-73 -82 -197 -82q-60 0 -114 20t-100 61.5t-73.5 114.5t-27.5 169q0 183 97 277.5t241 94.5z" />
    <glyph glyph-name="gbreve" unicode="&#x11f;" horiz-adv-x="595" 
d="M462 748q-12 -74 -56 -115.5t-119 -41.5q-73 0 -118.5 41.5t-56.5 115.5h85q6 -29 30.5 -44.5t59.5 -15.5q77 0 90 60h85zM574 580v-119q-48 0 -76 -10q26 -36 26 -86q0 -77 -60.5 -124.5t-171.5 -47.5q-54 0 -102 16q-15 -15 -15 -31q0 -20 15 -30t52 -10h92
q113 0 169 -43.5t56 -114.5q0 -79 -69.5 -123.5t-200.5 -44.5q-257 0 -257 138q0 68 76 105q-51 31 -51 89q0 56 63 96q-72 46 -72 127q0 78 61 128t174 50q83 0 141 -29q53 64 150 64zM288 449q-46 0 -70.5 -21t-24.5 -58q0 -35 24 -55.5t70 -20.5q45 0 69.5 20t24.5 56
q0 37 -24 58t-69 21zM305 26h-115q-34 -22 -34 -54q0 -30 28.5 -45t99.5 -15q127 0 127 60q0 29 -23.5 41.5t-82.5 12.5z" />
    <glyph glyph-name="Gdotaccent" unicode="&#x120;" horiz-adv-x="756" 
d="M379 949q35 0 60.5 -24t25.5 -58t-25.5 -58.5t-60.5 -24.5t-60.5 24.5t-25.5 58.5t25.5 58t60.5 24zM383 718q220 0 304 -187l-138 -49q-47 111 -166 111q-88 0 -134.5 -64t-46.5 -180t45.5 -179.5t136.5 -63.5q71 0 115 37.5t44 102.5v26h-150v113h303v-385h-139v63
q-73 -82 -197 -82q-60 0 -114 20t-100 61.5t-73.5 114.5t-27.5 169q0 183 97 277.5t241 94.5z" />
    <glyph glyph-name="gdotaccent" unicode="&#x121;" horiz-adv-x="595" 
d="M287 774q35 0 60.5 -24t25.5 -58t-25.5 -58.5t-60.5 -24.5t-60.5 24.5t-25.5 58.5t25.5 58t60.5 24zM574 580v-119q-48 0 -76 -10q26 -36 26 -86q0 -77 -60.5 -124.5t-171.5 -47.5q-54 0 -102 16q-15 -15 -15 -31q0 -20 15 -30t52 -10h92q113 0 169 -43.5t56 -114.5
q0 -79 -69.5 -123.5t-200.5 -44.5q-257 0 -257 138q0 68 76 105q-51 31 -51 89q0 56 63 96q-72 46 -72 127q0 78 61 128t174 50q83 0 141 -29q53 64 150 64zM288 449q-46 0 -70.5 -21t-24.5 -58q0 -35 24 -55.5t70 -20.5q45 0 69.5 20t24.5 56q0 37 -24 58t-69 21zM305 26
h-115q-34 -22 -34 -54q0 -30 28.5 -45t99.5 -15q127 0 127 60q0 29 -23.5 41.5t-82.5 12.5z" />
    <glyph glyph-name="uni0122" unicode="&#x122;" horiz-adv-x="756" 
d="M383 718q220 0 304 -187l-138 -49q-47 111 -166 111q-88 0 -134.5 -64t-46.5 -180t45.5 -179.5t136.5 -63.5q71 0 115 37.5t44 102.5v26h-150v113h303v-385h-139v63q-73 -82 -197 -82q-60 0 -114 20t-100 61.5t-73.5 114.5t-27.5 169q0 183 97 277.5t241 94.5zM375 -60
q34 0 54 -21.5t20 -53.5q0 -85 -89 -185l-60 25q32 53 39 105q-37 24 -37 62q0 28 21.5 48t51.5 20z" />
    <glyph glyph-name="uni0123" unicode="&#x123;" horiz-adv-x="595" 
d="M290 587q-34 0 -54 21.5t-20 53.5q0 85 89 185l60 -25q-32 -53 -39 -105q37 -24 37 -62q0 -28 -21.5 -48t-51.5 -20zM574 580v-119q-48 0 -76 -10q26 -36 26 -86q0 -77 -60.5 -124.5t-171.5 -47.5q-54 0 -102 16q-15 -15 -15 -31q0 -20 15 -30t52 -10h92q113 0 169 -43.5
t56 -114.5q0 -79 -69.5 -123.5t-200.5 -44.5q-257 0 -257 138q0 68 76 105q-51 31 -51 89q0 56 63 96q-72 46 -72 127q0 78 61 128t174 50q83 0 141 -29q53 64 150 64zM288 449q-46 0 -70.5 -21t-24.5 -58q0 -35 24 -55.5t70 -20.5q45 0 69.5 20t24.5 56q0 37 -24 58t-69 21
zM305 26h-115q-34 -22 -34 -54q0 -30 28.5 -45t99.5 -15q127 0 127 60q0 29 -23.5 41.5t-82.5 12.5z" />
    <glyph glyph-name="Hcircumflex" unicode="&#x124;" horiz-adv-x="733" 
d="M441 900l138 -147h-133l-79 66l-79 -66h-133l138 147h148zM658 700v-700h-152v300h-278v-300h-153v700h153v-274h278v274h152z" />
    <glyph glyph-name="hcircumflex" unicode="&#x125;" horiz-adv-x="613" 
d="M385 900l138 -147h-133l-79 66l-79 -66h-133l138 147h148zM214 700v-233q60 78 156 78q86 0 133 -52.5t47 -148.5v-344h-146v306q0 59 -18.5 88t-64.5 29q-47 0 -77 -36.5t-30 -93.5v-293h-146v700h146z" />
    <glyph glyph-name="Hbar" unicode="&#x126;" horiz-adv-x="769" 
d="M30 525v88h63v87h152v-87h279v87h152v-87h63v-88h-63v-525h-152v300h-279v-300h-152v525h-63zM245 426h279v99h-279v-99z" />
    <glyph glyph-name="hbar" unicode="&#x127;" horiz-adv-x="620" 
d="M378 539q86 0 133 -53t47 -148v-338h-146v283q0 70 -18 101.5t-65 31.5t-77 -36t-30 -94v-286h-146v571h-71v87h71v42h137v-42h157v-87h-157v-117q59 85 165 85z" />
    <glyph glyph-name="Itilde" unicode="&#x128;" horiz-adv-x="408" 
d="M139 896q32 0 58.5 -12t44.5 -24t29 -12q28 0 44 36h79q-7 -60 -42.5 -96t-85.5 -36q-32 0 -59 12t-45 24t-29 12q-28 0 -44 -35h-78q9 61 42.5 96t85.5 35zM367 700v-113h-88v-474h88v-113h-329v113h89v474h-89v113h329z" />
    <glyph glyph-name="itilde" unicode="&#x129;" horiz-adv-x="282" 
d="M77 736q32 0 58.5 -12t44.5 -24t29 -12q28 0 44 36h79q-7 -60 -42.5 -96t-85.5 -36q-32 0 -59 12t-45 24t-29 12q-28 0 -44 -35h-78q9 61 42.5 96t85.5 35zM214 531v-531h-146v531h146z" />
    <glyph glyph-name="Imacron" unicode="&#x12a;" horiz-adv-x="408" 
d="M381 877v-99h-357v99h357zM367 700v-113h-88v-474h88v-113h-329v113h89v474h-89v113h329z" />
    <glyph glyph-name="imacron" unicode="&#x12b;" horiz-adv-x="282" 
d="M319 717v-99h-357v99h357zM214 531v-531h-146v531h146z" />
    <glyph glyph-name="Ibreve" unicode="&#x12c;" horiz-adv-x="408" 
d="M378 909q-24 -154 -175 -154q-74 0 -119 40.5t-56 113.5h85q11 -57 90 -57q77 0 90 57h85zM367 700v-113h-88v-474h88v-113h-329v113h89v474h-89v113h329z" />
    <glyph glyph-name="ibreve" unicode="&#x12d;" horiz-adv-x="282" 
d="M316 748q-12 -74 -56 -115.5t-119 -41.5q-73 0 -118.5 41.5t-56.5 115.5h85q6 -29 30.5 -44.5t59.5 -15.5q77 0 90 60h85zM214 531v-531h-146v531h146z" />
    <glyph glyph-name="Iogonek" unicode="&#x12e;" horiz-adv-x="408" 
d="M360 -146l26 -73q-52 -23 -112 -23q-67 0 -106 28t-39 76q0 89 108 138h-199v113h89v474h-89v113h329v-113h-88v-474h88v-113h-43q-83 -52 -83 -112q0 -46 55 -46q28 0 64 12z" />
    <glyph glyph-name="iogonek" unicode="&#x12f;" horiz-adv-x="282" 
d="M141 609q-35 0 -60.5 24.5t-25.5 58.5t25.5 58t60.5 24t60.5 -24t25.5 -58t-25.5 -58.5t-60.5 -24.5zM68 10v521h146v-531q-69 -19 -100 -49.5t-31 -62.5q0 -49 62 -49q21 0 35 3l25 -73q-33 -11 -78 -11q-72 0 -112.5 30.5t-40.5 82.5q0 83 94 139z" />
    <glyph glyph-name="Idotaccent" unicode="&#x130;" horiz-adv-x="408" 
d="M205 949q35 0 60.5 -24t25.5 -58t-25.5 -58.5t-60.5 -24.5t-60.5 24.5t-25.5 58.5t25.5 58t60.5 24zM367 700v-113h-88v-474h88v-113h-329v113h89v474h-89v113h329z" />
    <glyph glyph-name="dotlessi" unicode="&#x131;" horiz-adv-x="254" 
d="M200 531v-531h-146v531h146z" />
    <glyph glyph-name="IJ" unicode="&#x132;" horiz-adv-x="803" 
d="M367 700v-113h-88v-474h88v-113h-329v113h89v474h-89v113h329zM733 700v-484q0 -111 -51.5 -170.5t-175.5 -59.5q-50 0 -101 6v128q36 -2 55 -2q70 0 95.5 23.5t25.5 85.5v473h152z" />
    <glyph glyph-name="ij" unicode="&#x133;" horiz-adv-x="536" 
d="M141 774q35 0 60.5 -24t25.5 -58t-25.5 -58.5t-60.5 -24.5t-60.5 24.5t-25.5 58.5t25.5 58t60.5 24zM395 774q35 0 60.5 -24t25.5 -58t-25.5 -58.5t-60.5 -24.5t-60.5 24.5t-25.5 58.5t25.5 58t60.5 24zM214 531v-531h-146v531h146zM468 531v-544q0 -88 -48 -131.5
t-119 -43.5q-46 0 -75 7v107q11 -1 20 -1q44 0 60 19.5t16 80.5v506h146z" />
    <glyph glyph-name="Jcircumflex" unicode="&#x134;" horiz-adv-x="423" 
d="M351 900l138 -147h-133l-79 66l-79 -66h-133l138 147h148zM353 700v-484q0 -111 -51.5 -170.5t-175.5 -59.5q-50 0 -101 6v128q36 -2 55 -2q70 0 95.5 23.5t25.5 85.5v473h152z" />
    <glyph glyph-name="jcircumflex" unicode="&#x135;" horiz-adv-x="282" 
d="M215 749l138 -151h-133l-79 73l-79 -73h-133l138 151h148zM214 531v-544q0 -88 -48 -131.5t-119 -43.5q-46 0 -75 7v107q11 -1 20 -1q44 0 60 19.5t16 80.5v506h146z" />
    <glyph glyph-name="uni0136" unicode="&#x136;" horiz-adv-x="693" 
d="M419 415l273 -415h-180l-197 308l-87 -98v-210h-153v700h153v-306l259 306h180zM368 -60q34 0 54 -21.5t20 -53.5q0 -85 -89 -185l-60 25q32 53 39 105q-37 24 -37 62q0 28 21.5 48t51.5 20z" />
    <glyph glyph-name="uni0137" unicode="&#x137;" horiz-adv-x="598" 
d="M214 700v-375l202 206h170l-204 -202l211 -329h-169l-141 230l-69 -68v-162h-146v700h146zM317 -60q34 0 54 -21.5t20 -53.5q0 -85 -89 -185l-60 25q32 53 39 105q-37 24 -37 62q0 28 21.5 48t51.5 20z" />
    <glyph glyph-name="kgreenlandic" unicode="&#x138;" horiz-adv-x="598" 
d="M586 531l-204 -206l211 -325h-168l-142 228l-69 -69v-159h-146v531h146v-210l198 210h174z" />
    <glyph glyph-name="Lacute" unicode="&#x139;" horiz-adv-x="553" 
d="M376 902l-169 -149h-115l99 149h185zM228 700v-569h302v-131h-455v700h153z" />
    <glyph glyph-name="lacute" unicode="&#x13a;" horiz-adv-x="302" 
d="M361 902l-169 -149h-115l99 149h185zM209 700v-537q0 -37 7 -47.5t38 -10.5q10 0 21 1v-106q-34 -9 -75 -9q-137 0 -137 150v559h146z" />
    <glyph glyph-name="uni013B" unicode="&#x13b;" horiz-adv-x="553" 
d="M228 700v-569h302v-131h-455v700h153zM301 -60q34 0 54 -21.5t20 -53.5q0 -85 -89 -185l-60 25q32 53 39 105q-37 24 -37 62q0 28 21.5 48t51.5 20z" />
    <glyph glyph-name="uni013C" unicode="&#x13c;" horiz-adv-x="302" 
d="M209 700v-537q0 -37 7 -47.5t38 -10.5q10 0 21 1v-106q-34 -9 -75 -9q-137 0 -137 150v559h146zM174 -60q34 0 54 -21.5t20 -53.5q0 -85 -89 -185l-60 25q32 53 39 105q-37 24 -37 62q0 28 21.5 48t51.5 20z" />
    <glyph glyph-name="Lcaron" unicode="&#x13d;" horiz-adv-x="553" 
d="M447 744l-99 -176h-86l42 176h143zM228 700v-569h302v-131h-455v700h153z" />
    <glyph glyph-name="lcaron" unicode="&#x13e;" horiz-adv-x="356" 
d="M406 744l-91 -155h-87l36 155h142zM209 700v-537q0 -37 7 -47.5t38 -10.5q10 0 21 1v-106q-34 -9 -75 -9q-137 0 -137 150v559h146z" />
    <glyph glyph-name="Ldot" unicode="&#x13f;" horiz-adv-x="553" 
d="M228 700v-569h302v-131h-455v700h153zM408 461q35 0 61 -25.5t26 -60.5t-26 -60.5t-61 -25.5t-61 25.5t-26 60.5t26 60.5t61 25.5z" />
    <glyph glyph-name="ldot" unicode="&#x140;" horiz-adv-x="379" 
d="M209 700v-537q0 -37 7 -47.5t38 -10.5q10 0 21 1v-106q-34 -9 -75 -9q-137 0 -137 150v559h146zM310 429q31 0 53 -22t22 -53q0 -30 -22 -52.5t-53 -22.5t-53.5 22.5t-22.5 53.5q0 30 22.5 52t53.5 22z" />
    <glyph glyph-name="Lslash" unicode="&#x141;" horiz-adv-x="580" 
d="M250 131h303v-131h-455v257l-71 -38v107l71 38v336h152v-255l158 84v-106l-158 -85v-207z" />
    <glyph glyph-name="lslash" unicode="&#x142;" horiz-adv-x="314" 
d="M295 373l-76 -41v-169q0 -37 7 -47.5t38 -10.5q10 0 21 1v-106q-34 -9 -75 -9q-137 0 -137 150v111l-53 -29v102l53 29v346h146v-266l76 42v-103z" />
    <glyph glyph-name="Nacute" unicode="&#x143;" horiz-adv-x="728" 
d="M584 902l-169 -149h-115l99 149h185zM653 700v-700h-176l-264 465v-465h-138v700h176l264 -477v477h138z" />
    <glyph glyph-name="nacute" unicode="&#x144;" horiz-adv-x="613" 
d="M540 744l-164 -151h-111l97 151h178zM372 545q85 0 131.5 -52.5t46.5 -148.5v-344h-146v300q0 63 -18 93t-65 30t-77 -36.5t-30 -93.5v-293h-146v531h141v-70q57 84 163 84z" />
    <glyph glyph-name="uni0145" unicode="&#x145;" horiz-adv-x="728" 
d="M653 700v-700h-176l-264 465v-465h-138v700h176l264 -477v477h138zM362 -60q34 0 54 -21.5t20 -53.5q0 -85 -89 -185l-60 25q32 53 39 105q-37 24 -37 62q0 28 21.5 48t51.5 20z" />
    <glyph glyph-name="uni0146" unicode="&#x146;" horiz-adv-x="613" 
d="M372 545q85 0 131.5 -52.5t46.5 -148.5v-344h-146v300q0 63 -18 93t-65 30t-77 -36.5t-30 -93.5v-293h-146v531h141v-70q57 84 163 84zM305 -60q34 0 54 -21.5t20 -53.5q0 -85 -89 -185l-60 25q32 53 39 105q-37 24 -37 62q0 28 21.5 48t51.5 20z" />
    <glyph glyph-name="Ncaron" unicode="&#x147;" horiz-adv-x="728" 
d="M570 910l-138 -147h-148l-138 147h133l79 -65l79 65h133zM653 700v-700h-176l-264 465v-465h-138v700h176l264 -477v477h138z" />
    <glyph glyph-name="ncaron" unicode="&#x148;" horiz-adv-x="613" 
d="M540 749l-138 -151h-148l-138 151h133l79 -72l79 72h133zM372 545q85 0 131.5 -52.5t46.5 -148.5v-344h-146v300q0 63 -18 93t-65 30t-77 -36.5t-30 -93.5v-293h-146v531h141v-70q57 84 163 84z" />
    <glyph glyph-name="napostrophe" unicode="&#x149;" horiz-adv-x="652" 
d="M92 806q34 0 54 -21.5t20 -53.5q0 -85 -89 -185l-60 25q32 53 39 105q-37 24 -37 62q0 28 21.5 48t51.5 20zM411 545q85 0 131.5 -52.5t46.5 -148.5v-344h-146v300q0 63 -18 93t-65 30t-77 -36.5t-30 -93.5v-293h-146v531h141v-70q57 84 163 84z" />
    <glyph glyph-name="Eng" unicode="&#x14a;" horiz-adv-x="728" 
d="M515 700h138v-700q0 -188 -217 -188q-52 0 -103 6v103q42 -2 62 -2q74 0 95.5 14t22.5 67h-36l-264 465v-465h-138v700h176l264 -477v477z" />
    <glyph glyph-name="eng" unicode="&#x14b;" horiz-adv-x="613" 
d="M68 0v531h141v-70q57 84 163 84q85 0 131.5 -52.5t46.5 -148.5v-364q0 -84 -48.5 -126t-119.5 -42q-46 0 -75 7v107q12 -1 20 -1q44 0 60.5 20t16.5 80v275q0 63 -18 93t-65 30t-77 -36.5t-30 -93.5v-293h-146z" />
    <glyph glyph-name="Omacron" unicode="&#x14c;" horiz-adv-x="785" 
d="M570 877v-99h-357v99h357zM392 718q65 0 124 -19.5t111 -60.5t82.5 -115.5t30.5 -173.5q0 -93 -28.5 -165.5t-78 -115.5t-111 -65t-130.5 -22q-64 0 -123 20t-110.5 61.5t-82.5 116t-31 172.5q0 94 29 166.5t78.5 115.5t110 64t129.5 21zM392 591q-86 0 -138 -63.5
t-52 -175.5q0 -115 49 -179.5t141 -64.5q86 0 138.5 63t52.5 177t-49 178.5t-142 64.5z" />
    <glyph glyph-name="omacron" unicode="&#x14d;" horiz-adv-x="635" 
d="M495 717v-99h-357v99h357zM317 545q126 0 202 -78.5t76 -200.5q0 -127 -75 -203.5t-203 -76.5t-202.5 77.5t-74.5 202.5t75 202t202 77zM317 429q-58 0 -91 -40.5t-33 -120.5q0 -81 32.5 -123.5t91.5 -42.5q60 0 92.5 42.5t32.5 123.5q0 80 -33.5 120.5t-91.5 40.5z" />
    <glyph glyph-name="Obreve" unicode="&#x14e;" horiz-adv-x="785" 
d="M567 909q-24 -154 -175 -154q-74 0 -119 40.5t-56 113.5h85q11 -57 90 -57q77 0 90 57h85zM392 718q65 0 124 -19.5t111 -60.5t82.5 -115.5t30.5 -173.5q0 -93 -28.5 -165.5t-78 -115.5t-111 -65t-130.5 -22q-64 0 -123 20t-110.5 61.5t-82.5 116t-31 172.5
q0 94 29 166.5t78.5 115.5t110 64t129.5 21zM392 591q-86 0 -138 -63.5t-52 -175.5q0 -115 49 -179.5t141 -64.5q86 0 138.5 63t52.5 177t-49 178.5t-142 64.5z" />
    <glyph glyph-name="obreve" unicode="&#x14f;" horiz-adv-x="635" 
d="M492 748q-12 -74 -56 -115.5t-119 -41.5q-73 0 -118.5 41.5t-56.5 115.5h85q6 -29 30.5 -44.5t59.5 -15.5q77 0 90 60h85zM317 545q126 0 202 -78.5t76 -200.5q0 -127 -75 -203.5t-203 -76.5t-202.5 77.5t-74.5 202.5t75 202t202 77zM317 429q-58 0 -91 -40.5t-33 -120.5
q0 -81 32.5 -123.5t91.5 -42.5q60 0 92.5 42.5t32.5 123.5q0 80 -33.5 120.5t-91.5 40.5z" />
    <glyph glyph-name="Ohungarumlaut" unicode="&#x150;" horiz-adv-x="785" 
d="M483 912l-145 -160h-101l88 160h158zM686 912l-151 -160h-102l96 160h157zM392 718q65 0 124 -19.5t111 -60.5t82.5 -115.5t30.5 -173.5q0 -93 -28.5 -165.5t-78 -115.5t-111 -65t-130.5 -22q-64 0 -123 20t-110.5 61.5t-82.5 116t-31 172.5q0 94 29 166.5t78.5 115.5
t110 64t129.5 21zM392 591q-86 0 -138 -63.5t-52 -175.5q0 -115 49 -179.5t141 -64.5q86 0 138.5 63t52.5 177t-49 178.5t-142 64.5z" />
    <glyph glyph-name="ohungarumlaut" unicode="&#x151;" horiz-adv-x="635" 
d="M400 754l-142 -161h-104l87 161h159zM604 754l-150 -161h-104l94 161h160zM317 545q126 0 202 -78.5t76 -200.5q0 -127 -75 -203.5t-203 -76.5t-202.5 77.5t-74.5 202.5t75 202t202 77zM317 429q-58 0 -91 -40.5t-33 -120.5q0 -81 32.5 -123.5t91.5 -42.5q60 0 92.5 42.5
t32.5 123.5q0 80 -33.5 120.5t-91.5 40.5z" />
    <glyph glyph-name="OE" unicode="&#x152;" horiz-adv-x="993" 
d="M392 718q68 0 128 -18h417v-126h-305v-157h284v-120h-284v-171h314v-126h-432q-63 -19 -122 -19q-64 0 -123 20.5t-110.5 62t-82.5 116t-31 171.5q0 94 29 166.5t78.5 115t110 64t129.5 21.5zM392 593q-86 0 -138 -64.5t-52 -176.5q0 -114 49 -179.5t141 -65.5
q47 0 87 17v453q-38 16 -87 16z" />
    <glyph glyph-name="oe" unicode="&#x153;" horiz-adv-x="1000" 
d="M712 545q115 0 183 -78.5t68 -201.5v-34h-370q7 -132 128 -132q80 0 121 69l116 -58q-82 -124 -243 -124q-134 0 -201 96q-72 -96 -200 -96q-127 0 -200.5 77.5t-73.5 201.5q0 125 74.5 202.5t200.5 77.5q134 0 201 -96q68 96 196 96zM704 439q-99 0 -111 -115h220
q-12 115 -109 115zM316 429q-58 0 -90.5 -41t-32.5 -121t32 -122.5t91 -42.5t92.5 42.5t33.5 122.5t-34 121t-92 41z" />
    <glyph glyph-name="Racute" unicode="&#x154;" horiz-adv-x="666" 
d="M543 902l-169 -149h-115l99 149h185zM341 700q139 0 208 -60t69 -157q0 -142 -144 -194l183 -289h-179l-154 265h-96v-265h-153v700h266zM351 576h-123v-193h119q114 0 114 99q0 94 -110 94z" />
    <glyph glyph-name="racute" unicode="&#x155;" horiz-adv-x="411" 
d="M441 744l-164 -151h-111l97 151h178zM354 545q14 0 38 -2v-142q-18 1 -32 1q-69 0 -107.5 -40.5t-38.5 -141.5v-220h-146v531h141v-86q52 100 145 100z" />
    <glyph glyph-name="uni0156" unicode="&#x156;" horiz-adv-x="666" 
d="M341 700q139 0 208 -60t69 -157q0 -142 -144 -194l183 -289h-179l-154 265h-96v-265h-153v700h266zM351 576h-123v-193h119q114 0 114 99q0 94 -110 94zM351 -60q34 0 54 -21.5t20 -53.5q0 -85 -89 -185l-60 25q32 53 39 105q-37 24 -37 62q0 28 21.5 48t51.5 20z" />
    <glyph glyph-name="uni0157" unicode="&#x157;" horiz-adv-x="411" 
d="M354 545q14 0 38 -2v-142q-18 1 -32 1q-69 0 -107.5 -40.5t-38.5 -141.5v-220h-146v531h141v-86q52 100 145 100zM139 -60q34 0 54 -21.5t20 -53.5q0 -85 -89 -185l-60 25q32 53 39 105q-37 24 -37 62q0 28 21.5 48t51.5 20z" />
    <glyph glyph-name="Rcaron" unicode="&#x158;" horiz-adv-x="666" 
d="M529 910l-138 -147h-148l-138 147h133l79 -65l79 65h133zM341 700q139 0 208 -60t69 -157q0 -142 -144 -194l183 -289h-179l-154 265h-96v-265h-153v700h266zM351 576h-123v-193h119q114 0 114 99q0 94 -110 94z" />
    <glyph glyph-name="rcaron" unicode="&#x159;" horiz-adv-x="411" 
d="M441 749l-138 -151h-148l-138 151h133l79 -72l79 72h133zM354 545q14 0 38 -2v-142q-18 1 -32 1q-69 0 -107.5 -40.5t-38.5 -141.5v-220h-146v531h141v-86q52 100 145 100z" />
    <glyph glyph-name="Sacute" unicode="&#x15a;" horiz-adv-x="667" 
d="M561 902l-169 -149h-115l99 149h185zM336 -19q-199 0 -314 132l99 91q94 -96 219 -96q61 0 99 23t38 63q0 41 -34.5 63t-140.5 41q-127 23 -186 73t-59 141q0 95 75 150.5t198 55.5q187 0 294 -125l-104 -84q-73 83 -188 83q-57 0 -88 -20t-31 -57q0 -36 33 -55.5
t135 -37.5q133 -23 193 -73.5t60 -144.5q0 -104 -79.5 -163.5t-218.5 -59.5z" />
    <glyph glyph-name="sacute" unicode="&#x15b;" horiz-adv-x="547" 
d="M493 744l-164 -151h-111l97 151h178zM280 545q140 0 225 -80l-75 -82q-67 55 -145 55q-85 0 -85 -50q0 -25 23.5 -36.5t103.5 -26.5q97 -17 143.5 -56.5t46.5 -112.5q0 -77 -64 -123.5t-178 -46.5q-159 0 -255 91l75 86q74 -67 167 -67q102 0 102 54q0 26 -23.5 39.5
t-104.5 27.5q-95 17 -140.5 56t-45.5 107q0 77 64.5 121t165.5 44z" />
    <glyph glyph-name="Scircumflex" unicode="&#x15c;" horiz-adv-x="667" 
d="M409 900l138 -147h-133l-79 66l-79 -66h-133l138 147h148zM336 -19q-199 0 -314 132l99 91q94 -96 219 -96q61 0 99 23t38 63q0 41 -34.5 63t-140.5 41q-127 23 -186 73t-59 141q0 95 75 150.5t198 55.5q187 0 294 -125l-104 -84q-73 83 -188 83q-57 0 -88 -20t-31 -57
q0 -36 33 -55.5t135 -37.5q133 -23 193 -73.5t60 -144.5q0 -104 -79.5 -163.5t-218.5 -59.5z" />
    <glyph glyph-name="scircumflex" unicode="&#x15d;" horiz-adv-x="547" 
d="M355 749l138 -151h-133l-79 73l-79 -73h-133l138 151h148zM280 545q140 0 225 -80l-75 -82q-67 55 -145 55q-85 0 -85 -50q0 -25 23.5 -36.5t103.5 -26.5q97 -17 143.5 -56.5t46.5 -112.5q0 -77 -64 -123.5t-178 -46.5q-159 0 -255 91l75 86q74 -67 167 -67q102 0 102 54
q0 26 -23.5 39.5t-104.5 27.5q-95 17 -140.5 56t-45.5 107q0 77 64.5 121t165.5 44z" />
    <glyph glyph-name="Scedilla" unicode="&#x15e;" horiz-adv-x="667" 
d="M634 204q0 -94 -66.5 -152.5t-184.5 -68.5v-27q52 -5 81.5 -30t29.5 -62q0 -51 -41 -79t-107 -28q-71 0 -125 28l34 70q39 -17 76 -17q49 0 49 30q0 21 -25 29t-79 8l13 78q-166 15 -267 130l99 91q94 -96 219 -96q61 0 99 23t38 63q0 41 -34.5 63t-140.5 41
q-127 23 -186 73t-59 141q0 95 75 150.5t198 55.5q187 0 294 -125l-104 -84q-73 83 -188 83q-57 0 -88 -20t-31 -57q0 -36 33 -55.5t135 -37.5q133 -23 193 -73.5t60 -144.5z" />
    <glyph glyph-name="scedilla" unicode="&#x15f;" horiz-adv-x="547" 
d="M517 156q0 -69 -53 -114.5t-148 -53.5l-1 -32q52 -5 81.5 -30t29.5 -62q0 -51 -41 -79t-107 -28q-71 0 -125 28l34 70q39 -17 76 -17q49 0 49 30q0 21 -25 29t-79 8l14 84q-121 12 -202 88l75 86q74 -67 167 -67q102 0 102 54q0 26 -23.5 39.5t-104.5 27.5
q-95 17 -140.5 56t-45.5 107q0 77 64.5 121t165.5 44q140 0 225 -80l-75 -82q-67 55 -145 55q-85 0 -85 -50q0 -25 23.5 -36.5t103.5 -26.5q97 -17 143.5 -56.5t46.5 -112.5z" />
    <glyph glyph-name="Scaron" unicode="&#x160;" horiz-adv-x="667" 
d="M547 910l-138 -147h-148l-138 147h133l79 -65l79 65h133zM336 -19q-199 0 -314 132l99 91q94 -96 219 -96q61 0 99 23t38 63q0 41 -34.5 63t-140.5 41q-127 23 -186 73t-59 141q0 95 75 150.5t198 55.5q187 0 294 -125l-104 -84q-73 83 -188 83q-57 0 -88 -20t-31 -57
q0 -36 33 -55.5t135 -37.5q133 -23 193 -73.5t60 -144.5q0 -104 -79.5 -163.5t-218.5 -59.5z" />
    <glyph glyph-name="scaron" unicode="&#x161;" horiz-adv-x="547" 
d="M493 749l-138 -151h-148l-138 151h133l79 -72l79 72h133zM280 545q140 0 225 -80l-75 -82q-67 55 -145 55q-85 0 -85 -50q0 -25 23.5 -36.5t103.5 -26.5q97 -17 143.5 -56.5t46.5 -112.5q0 -77 -64 -123.5t-178 -46.5q-159 0 -255 91l75 86q74 -67 167 -67q102 0 102 54
q0 26 -23.5 39.5t-104.5 27.5q-95 17 -140.5 56t-45.5 107q0 77 64.5 121t165.5 44z" />
    <glyph glyph-name="uni0162" unicode="&#x162;" horiz-adv-x="589" 
d="M371 0h-32v-44q51 -5 81 -30t30 -62q0 -51 -41 -79t-107 -28q-71 0 -125 28l34 70q39 -17 75 -17q49 0 49 30q0 21 -24.5 29t-78.5 8l15 95h-29v573h-197v127h547v-127h-197v-573z" />
    <glyph glyph-name="uni0163" unicode="&#x163;" horiz-adv-x="397" 
d="M283 -44q52 -5 81.5 -30t29.5 -62q0 -51 -41 -79t-107 -28q-71 0 -125 28l34 70q39 -17 76 -17q49 0 49 30q0 21 -25 29t-79 8l14 89q-101 26 -101 152v272h-72v104h72v138h146v-138h128v-104h-128v-249q0 -34 13.5 -49.5t48.5 -15.5q34 0 76 11v-112q-43 -13 -89 -16z
" />
    <glyph glyph-name="Tcaron" unicode="&#x164;" horiz-adv-x="589" 
d="M506 910l-138 -147h-148l-138 147h133l79 -65l79 65h133zM568 700v-127h-197v-573h-153v573h-197v127h547z" />
    <glyph glyph-name="tcaron" unicode="&#x165;" horiz-adv-x="419" 
d="M448 744l-91 -155h-87l36 155h142zM235 660v-138h128v-104h-128v-249q0 -34 13.5 -49.5t48.5 -15.5q34 0 76 11v-112q-54 -17 -115 -17q-91 0 -130 41t-39 119v272h-72v104h72v138h146z" />
    <glyph glyph-name="Tbar" unicode="&#x166;" horiz-adv-x="589" 
d="M568 573h-197v-122h102v-99h-102v-352h-153v352h-102v99h102v122h-197v127h547v-127z" />
    <glyph glyph-name="tbar" unicode="&#x167;" horiz-adv-x="402" 
d="M297 104q34 0 76 11v-112q-54 -17 -115 -17q-91 0 -130 41t-39 119v125h-68v96h68v51h-72v104h72v138h146v-138h128v-104h-128v-51h120v-96h-120v-102q0 -34 13.5 -49.5t48.5 -15.5z" />
    <glyph glyph-name="Utilde" unicode="&#x168;" horiz-adv-x="716" 
d="M294 896q32 0 58.5 -12t44.5 -24t29 -12q28 0 44 36h79q-7 -60 -42.5 -96t-85.5 -36q-32 0 -59 12t-45 24t-29 12q-28 0 -44 -35h-78q9 61 42.5 96t85.5 35zM646 700v-443q0 -121 -71.5 -198.5t-217.5 -77.5q-148 0 -217.5 77.5t-69.5 198.5v443h153v-441
q0 -79 32.5 -115t102.5 -36q135 0 135 151v441h153z" />
    <glyph glyph-name="utilde" unicode="&#x169;" horiz-adv-x="607" 
d="M237 736q32 0 58.5 -12t44.5 -24t29 -12q28 0 44 36h79q-7 -60 -42.5 -96t-85.5 -36q-32 0 -59 12t-45 24t-29 12q-28 0 -44 -35h-78q9 61 42.5 96t85.5 35zM539 531v-531h-142v63q-58 -77 -157 -77q-80 0 -128.5 46.5t-48.5 138.5v360h146v-326q0 -50 18.5 -72t59.5 -22
q47 0 76.5 33.5t29.5 87.5v299h146z" />
    <glyph glyph-name="Umacron" unicode="&#x16a;" horiz-adv-x="716" 
d="M536 877v-99h-357v99h357zM646 700v-443q0 -121 -71.5 -198.5t-217.5 -77.5q-148 0 -217.5 77.5t-69.5 198.5v443h153v-441q0 -79 32.5 -115t102.5 -36q135 0 135 151v441h153z" />
    <glyph glyph-name="umacron" unicode="&#x16b;" horiz-adv-x="607" 
d="M479 717v-99h-357v99h357zM539 531v-531h-142v63q-58 -77 -157 -77q-80 0 -128.5 46.5t-48.5 138.5v360h146v-326q0 -50 18.5 -72t59.5 -22q47 0 76.5 33.5t29.5 87.5v299h146z" />
    <glyph glyph-name="Ubreve" unicode="&#x16c;" horiz-adv-x="716" 
d="M533 909q-24 -154 -175 -154q-74 0 -119 40.5t-56 113.5h85q11 -57 90 -57q77 0 90 57h85zM646 700v-443q0 -121 -71.5 -198.5t-217.5 -77.5q-148 0 -217.5 77.5t-69.5 198.5v443h153v-441q0 -79 32.5 -115t102.5 -36q135 0 135 151v441h153z" />
    <glyph glyph-name="ubreve" unicode="&#x16d;" horiz-adv-x="607" 
d="M476 748q-12 -74 -56 -115.5t-119 -41.5q-73 0 -118.5 41.5t-56.5 115.5h85q6 -29 30.5 -44.5t59.5 -15.5q77 0 90 60h85zM539 531v-531h-142v63q-58 -77 -157 -77q-80 0 -128.5 46.5t-48.5 138.5v360h146v-326q0 -50 18.5 -72t59.5 -22q47 0 76.5 33.5t29.5 87.5v299
h146z" />
    <glyph glyph-name="Uring" unicode="&#x16e;" horiz-adv-x="716" 
d="M359 994q56 0 96 -36t40 -92q0 -57 -40 -93t-96 -36t-96 36t-40 93q0 56 40 92t96 36zM359 916q-20 0 -33 -13.5t-13 -36.5t13.5 -37t32.5 -14t32.5 14t13.5 37t-13 36.5t-33 13.5zM646 700v-443q0 -121 -71.5 -198.5t-217.5 -77.5q-148 0 -217.5 77.5t-69.5 198.5v443
h153v-441q0 -79 32.5 -115t102.5 -36q135 0 135 151v441h153z" />
    <glyph glyph-name="uring" unicode="&#x16f;" horiz-adv-x="607" 
d="M301 842q56 0 96 -36t40 -92q0 -57 -40 -93t-96 -36t-96 36t-40 93q0 56 40 92t96 36zM301 764q-20 0 -33 -13.5t-13 -36.5t13.5 -37t32.5 -14t32.5 14t13.5 37t-13 36.5t-33 13.5zM539 531v-531h-142v63q-58 -77 -157 -77q-80 0 -128.5 46.5t-48.5 138.5v360h146v-326
q0 -50 18.5 -72t59.5 -22q47 0 76.5 33.5t29.5 87.5v299h146z" />
    <glyph glyph-name="Uhungarumlaut" unicode="&#x170;" horiz-adv-x="716" 
d="M449 912l-145 -160h-101l88 160h158zM652 912l-151 -160h-102l96 160h157zM646 700v-443q0 -121 -71.5 -198.5t-217.5 -77.5q-148 0 -217.5 77.5t-69.5 198.5v443h153v-441q0 -79 32.5 -115t102.5 -36q135 0 135 151v441h153z" />
    <glyph glyph-name="uhungarumlaut" unicode="&#x171;" horiz-adv-x="607" 
d="M384 754l-142 -161h-104l87 161h159zM588 754l-150 -161h-104l94 161h160zM539 531v-531h-142v63q-58 -77 -157 -77q-80 0 -128.5 46.5t-48.5 138.5v360h146v-326q0 -50 18.5 -72t59.5 -22q47 0 76.5 33.5t29.5 87.5v299h146z" />
    <glyph glyph-name="Uogonek" unicode="&#x172;" horiz-adv-x="716" 
d="M493 700h153v-443q0 -163 -115 -233q-105 -74 -105 -133q0 -49 55 -49q28 0 64 12l26 -73q-51 -23 -111 -23q-67 0 -106.5 28t-39.5 76q0 72 75 120q-10 -1 -32 -1q-148 0 -217.5 77.5t-69.5 198.5v443h153v-441q0 -79 32.5 -115t102.5 -36q135 0 135 151v441z" />
    <glyph glyph-name="uogonek" unicode="&#x173;" horiz-adv-x="607" 
d="M539 0q-69 -19 -100 -49.5t-31 -62.5q0 -49 62 -49q22 0 35 3l25 -73q-33 -11 -78 -11q-72 0 -112.5 30.5t-40.5 82.5q0 44 28 81t70 61v50q-58 -77 -157 -77q-80 0 -128.5 46.5t-48.5 138.5v360h146v-326q0 -50 18.5 -72t59.5 -22q47 0 76.5 33.5t29.5 87.5v299h146
v-531z" />
    <glyph glyph-name="Wcircumflex" unicode="&#x174;" horiz-adv-x="872" 
d="M517 900l138 -147h-133l-79 66l-79 -66h-133l138 147h148zM862 700l-151 -700h-174l-95 528l-99 -528h-180l-153 700h162l86 -550l105 550h161l97 -545l87 545h154z" />
    <glyph glyph-name="wcircumflex" unicode="&#x175;" horiz-adv-x="802" 
d="M476 749l138 -151h-133l-79 73l-79 -73h-133l138 151h148zM792 531l-140 -531h-170l-80 387l-85 -387h-169l-138 531h157l71 -391l82 391h162l86 -391l74 391h150z" />
    <glyph glyph-name="Ycircumflex" unicode="&#x176;" horiz-adv-x="624" 
d="M389 900l138 -147h-133l-79 66l-79 -66h-133l138 147h148zM628 700l-240 -422v-278h-152v276l-240 424h173l145 -299l147 299h167z" />
    <glyph glyph-name="ycircumflex" unicode="&#x177;" horiz-adv-x="535" 
d="M343 749l138 -151h-133l-79 73l-79 -73h-133l138 151h148zM530 531l-165 -550q-26 -86 -71 -127.5t-139 -41.5q-39 0 -74 7v102q25 -2 48 -2q54 0 74 16.5t30 64.5h-56l-174 531h163l107 -428l99 428h158z" />
    <glyph glyph-name="Ydieresis" unicode="&#x178;" horiz-adv-x="624" 
d="M197 918q32 0 56 -23.5t24 -56.5q0 -32 -24 -56t-56 -24t-56.5 24t-24.5 56q0 33 24 56.5t57 23.5zM433 918q33 0 57 -23.5t24 -56.5q0 -32 -24 -56t-57 -24q-32 0 -56 24t-24 56q0 33 24 56.5t56 23.5zM628 700l-240 -422v-278h-152v276l-240 424h173l145 -299l147 299
h167z" />
    <glyph glyph-name="Zacute" unicode="&#x179;" horiz-adv-x="624" 
d="M537 902l-169 -149h-115l99 149h185zM576 700v-120l-355 -455h366v-125h-555v117l358 460h-335v123h521z" />
    <glyph glyph-name="zacute" unicode="&#x17a;" horiz-adv-x="501" 
d="M467 744l-164 -151h-111l97 151h178zM461 531v-112l-255 -300h263v-119h-442v109l258 305h-233v117h409z" />
    <glyph glyph-name="Zdotaccent" unicode="&#x17b;" horiz-adv-x="624" 
d="M313 949q35 0 60.5 -24t25.5 -58t-25.5 -58.5t-60.5 -24.5t-60.5 24.5t-25.5 58.5t25.5 58t60.5 24zM576 700v-120l-355 -455h366v-125h-555v117l358 460h-335v123h521z" />
    <glyph glyph-name="zdotaccent" unicode="&#x17c;" horiz-adv-x="501" 
d="M255 774q35 0 60.5 -24t25.5 -58t-25.5 -58.5t-60.5 -24.5t-60.5 24.5t-25.5 58.5t25.5 58t60.5 24zM461 531v-112l-255 -300h263v-119h-442v109l258 305h-233v117h409z" />
    <glyph glyph-name="Zcaron" unicode="&#x17d;" horiz-adv-x="624" 
d="M523 910l-138 -147h-148l-138 147h133l79 -65l79 65h133zM576 700v-120l-355 -455h366v-125h-555v117l358 460h-335v123h521z" />
    <glyph glyph-name="zcaron" unicode="&#x17e;" horiz-adv-x="501" 
d="M467 749l-138 -151h-148l-138 151h133l79 -72l79 72h133zM461 531v-112l-255 -300h263v-119h-442v109l258 305h-233v117h409z" />
    <glyph glyph-name="longs" unicode="&#x17f;" horiz-adv-x="360" 
d="M89 0v418h-72v104h72v45q0 69 44 110t135 41q53 0 114 -18v-108q-44 13 -85 13q-33 0 -47.5 -12t-14.5 -42v-551h-146z" />
    <glyph glyph-name="uni018F" unicode="&#x18f;" horiz-adv-x="752" 
d="M372 717q144 0 239.5 -91.5t95.5 -274.5q0 -95 -28.5 -168t-76 -115.5t-104.5 -63.5t-120 -21q-147 0 -240 98t-93 287v26h506q-15 200 -177 200q-117 0 -171 -109l-146 45q96 187 315 187zM373 104q149 0 175 175h-345q4 -85 52 -130t118 -45z" />
    <glyph glyph-name="florin" unicode="&#x192;" horiz-adv-x="348" 
d="M253 718q65 0 120 -19v-105q-50 16 -91 16q-33 0 -47.5 -11t-14.5 -40v-36h131v-104h-131v-432q0 -88 -48 -131.5t-119 -43.5q-46 0 -75 7v107q11 -1 20 -1q44 0 60 19.5t16 80.5v394h-72v104h72v55q0 65 44 102.5t135 37.5z" />
    <glyph glyph-name="uni01CD" unicode="&#x1cd;" horiz-adv-x="656" 
d="M402 763h-148l-138 147h133l79 -65l79 65h133zM489 0l-32 110h-264l-32 -110h-156l227 700h192l227 -700h-162zM325 583l-98 -351h196z" />
    <glyph glyph-name="uni01CE" unicode="&#x1ce;" horiz-adv-x="577" 
d="M508 749l-138 -151h-148l-138 151h133l79 -72l79 72h133zM291 545q117 0 170 -42.5t53 -124.5v-262q0 -72 18 -116h-145q-11 24 -16 54q-52 -68 -156 -68q-83 0 -130.5 45t-47.5 118q0 77 52 121.5t168 59.5l111 14v24q0 43 -16.5 59t-63.5 16q-45 0 -64.5 -16t-21.5 -54
h-144q3 86 63.5 129t169.5 43zM368 251l-75 -10q-58 -8 -82.5 -26t-24.5 -52q0 -30 18 -47t54 -17q46 0 78 28.5t32 71.5v52z" />
    <glyph glyph-name="uni01CF" unicode="&#x1cf;" horiz-adv-x="408" 
d="M415 910l-138 -147h-148l-138 147h133l79 -65l79 65h133zM367 700v-113h-88v-474h88v-113h-329v113h89v474h-89v113h329z" />
    <glyph glyph-name="uni01D0" unicode="&#x1d0;" horiz-adv-x="282" 
d="M353 749l-138 -151h-148l-138 151h133l79 -72l79 72h133zM214 531v-531h-146v531h146z" />
    <glyph glyph-name="uni01D1" unicode="&#x1d1;" horiz-adv-x="785" 
d="M604 910l-138 -147h-148l-138 147h133l79 -65l79 65h133zM392 718q65 0 124 -19.5t111 -60.5t82.5 -115.5t30.5 -173.5q0 -93 -28.5 -165.5t-78 -115.5t-111 -65t-130.5 -22q-64 0 -123 20t-110.5 61.5t-82.5 116t-31 172.5q0 94 29 166.5t78.5 115.5t110 64t129.5 21z
M392 591q-86 0 -138 -63.5t-52 -175.5q0 -115 49 -179.5t141 -64.5q86 0 138.5 63t52.5 177t-49 178.5t-142 64.5z" />
    <glyph glyph-name="uni01D2" unicode="&#x1d2;" horiz-adv-x="635" 
d="M529 749l-138 -151h-148l-138 151h133l79 -72l79 72h133zM317 545q126 0 202 -78.5t76 -200.5q0 -127 -75 -203.5t-203 -76.5t-202.5 77.5t-74.5 202.5t75 202t202 77zM317 429q-58 0 -91 -40.5t-33 -120.5q0 -81 32.5 -123.5t91.5 -42.5q60 0 92.5 42.5t32.5 123.5
q0 80 -33.5 120.5t-91.5 40.5z" />
    <glyph glyph-name="uni01D3" unicode="&#x1d3;" horiz-adv-x="716" 
d="M570 910l-138 -147h-148l-138 147h133l79 -65l79 65h133zM646 700v-443q0 -121 -71.5 -198.5t-217.5 -77.5q-148 0 -217.5 77.5t-69.5 198.5v443h153v-441q0 -79 32.5 -115t102.5 -36q135 0 135 151v441h153z" />
    <glyph glyph-name="uni01D4" unicode="&#x1d4;" horiz-adv-x="607" 
d="M513 749l-138 -151h-148l-138 151h133l79 -72l79 72h133zM539 531v-531h-142v63q-58 -77 -157 -77q-80 0 -128.5 46.5t-48.5 138.5v360h146v-326q0 -50 18.5 -72t59.5 -22q47 0 76.5 33.5t29.5 87.5v299h146z" />
    <glyph glyph-name="Aringacute" unicode="&#x1fa;" horiz-adv-x="656" 
d="M554 1068l-169 -149h-115l99 149h185zM489 0l-32 110h-264l-32 -110h-156l221 680q-33 35 -33 86q0 56 40 92t96 36t96 -36t40 -92q0 -51 -34 -87l220 -679h-162zM329 816q-20 0 -33 -13.5t-13 -36.5t13.5 -37t32.5 -14t32.5 14t13.5 37t-13 36.5t-33 13.5zM423 232
l-98 351l-98 -351h196z" />
    <glyph glyph-name="aringacute" unicode="&#x1fb;" horiz-adv-x="577" 
d="M504 1000l-161 -138h-109l96 138h174zM296 837q56 0 95 -35t39 -91t-39.5 -91.5t-94.5 -35.5t-94.5 35.5t-39.5 91.5t39 91t95 35zM296 760q-20 0 -32.5 -13t-12.5 -36t13 -36.5t32 -13.5t32 13.5t13 36.5t-12.5 36t-32.5 13zM291 545q117 0 170 -42.5t53 -124.5v-262
q0 -72 18 -116h-145q-11 24 -16 54q-52 -68 -156 -68q-83 0 -130.5 45t-47.5 118q0 77 52 121.5t168 59.5l111 14v24q0 43 -16.5 59t-63.5 16q-45 0 -64.5 -16t-21.5 -54h-144q3 86 63.5 129t169.5 43zM368 251l-75 -10q-58 -8 -82.5 -26t-24.5 -52q0 -30 18 -47t54 -17
q46 0 78 28.5t32 71.5v52z" />
    <glyph glyph-name="AEacute" unicode="&#x1fc;" horiz-adv-x="955" 
d="M790 902l-169 -149h-115l99 149h185zM877 700v-126h-331l25 -156h288v-122h-269l26 -170h311v-126h-448l-14 108h-262l-46 -108h-162l320 700h562zM400 578l-149 -349h197z" />
    <glyph glyph-name="aeacute" unicode="&#x1fd;" horiz-adv-x="913" 
d="M668 744l-164 -151h-111l97 151h178zM628 545q113 0 180 -78.5t67 -208.5v-28h-367q3 -65 36 -97.5t90 -32.5q81 0 121 69l116 -57q-79 -126 -244 -126q-135 0 -203 98q-67 -98 -201 -98q-88 0 -137 45t-49 117q0 78 52 123.5t168 58.5l122 14q2 15 11 44q-9 30 -32 42.5
t-69 12.5t-65.5 -16.5t-21.5 -54.5h-144q3 86 61.5 129.5t165.5 43.5q73 0 110.5 -17.5t61.5 -47.5q25 26 70.5 45.5t100.5 19.5zM620 439q-48 0 -78 -29t-34 -87h221q-7 116 -109 116zM375 251l-86 -11q-54 -6 -78.5 -24.5t-24.5 -53.5q0 -63 72 -63q44 0 80.5 25t41.5 55
q-5 34 -5 72z" />
    <glyph glyph-name="Oslashacute" unicode="&#x1fe;" horiz-adv-x="785" 
d="M618 902l-169 -149h-115l99 149h185zM45 351q0 94 29 166.5t78.5 115.5t110 64t129.5 21q90 0 161 -36l49 77h121l-84 -134q101 -99 101 -276q0 -93 -28.5 -165t-78 -115.5t-111 -65.5t-130.5 -22q-78 0 -144 30l-63 -101h-123l98 153q-115 100 -115 288zM202 352
q0 -110 43 -173l247 386q-40 25 -100 25q-86 0 -138 -63t-52 -175zM310 126q36 -17 82 -17q85 0 138 63t53 176q0 97 -34 156z" />
    <glyph glyph-name="oslashacute" unicode="&#x1ff;" horiz-adv-x="635" 
d="M529 744l-164 -151h-111l97 151h178zM583 605l-76 -131q88 -82 88 -209q0 -126 -75 -202.5t-203 -76.5q-54 0 -102 17l-48 -84h-114l78 130q-91 76 -91 216q0 125 75 202.5t202 77.5q55 0 106 -19l49 79h111zM317 429q-58 0 -91.5 -41t-33.5 -121q0 -69 22 -108l156 261
q-24 9 -53 9zM424 366l-154 -256q22 -8 47 -8q60 0 93 42.5t33 122.5q0 61 -19 99z" />
    <glyph glyph-name="uni0218" unicode="&#x218;" horiz-adv-x="667" 
d="M336 -19q-199 0 -314 132l99 91q94 -96 219 -96q61 0 99 23t38 63q0 41 -34.5 63t-140.5 41q-127 23 -186 73t-59 141q0 95 75 150.5t198 55.5q187 0 294 -125l-104 -84q-73 83 -188 83q-57 0 -88 -20t-31 -57q0 -36 33 -55.5t135 -37.5q133 -23 193 -73.5t60 -144.5
q0 -104 -79.5 -163.5t-218.5 -59.5zM337 -60q34 0 54 -21.5t20 -53.5q0 -85 -89 -185l-60 25q32 53 39 105q-37 24 -37 62q0 28 21.5 48t51.5 20z" />
    <glyph glyph-name="uni0219" unicode="&#x219;" horiz-adv-x="547" 
d="M280 545q140 0 225 -80l-75 -82q-67 55 -145 55q-85 0 -85 -50q0 -25 23.5 -36.5t103.5 -26.5q97 -17 143.5 -56.5t46.5 -112.5q0 -77 -64 -123.5t-178 -46.5q-159 0 -255 91l75 86q74 -67 167 -67q102 0 102 54q0 26 -23.5 39.5t-104.5 27.5q-95 17 -140.5 56t-45.5 107
q0 77 64.5 121t165.5 44zM269 -60q34 0 54 -21.5t20 -53.5q0 -85 -89 -185l-60 25q32 53 39 105q-37 24 -37 62q0 28 21.5 48t51.5 20z" />
    <glyph glyph-name="uni021A" unicode="&#x21a;" horiz-adv-x="589" 
d="M568 700v-127h-197v-573h-153v573h-197v127h547zM292 -60q34 0 54 -21.5t20 -53.5q0 -85 -89 -185l-60 25q32 53 39 105q-37 24 -37 62q0 28 21.5 48t51.5 20z" />
    <glyph glyph-name="uni021B" unicode="&#x21b;" horiz-adv-x="397" 
d="M235 660v-138h128v-104h-128v-249q0 -34 13.5 -49.5t48.5 -15.5q34 0 76 11v-112q-54 -17 -115 -17q-91 0 -130 41t-39 119v272h-72v104h72v138h146zM237 -60q34 0 54 -21.5t20 -53.5q0 -85 -89 -185l-60 25q32 53 39 105q-37 24 -37 62q0 28 21.5 48t51.5 20z" />
    <glyph glyph-name="uni0237" unicode="&#x237;" horiz-adv-x="254" 
d="M200 531v-544q0 -88 -48 -131.5t-119 -43.5q-46 0 -75 7v107q11 -1 20 -1q44 0 60 19.5t16 80.5v506h146z" />
    <glyph glyph-name="uni0259" unicode="&#x259;" horiz-adv-x="598" 
d="M292 545q123 0 194.5 -78t71.5 -202q0 -125 -69.5 -202t-192.5 -77q-120 0 -189 78t-69 208v28h370q-5 68 -34 101.5t-86 33.5q-79 0 -124 -72l-116 56q83 126 244 126zM296 90q51 0 77.5 28.5t33.5 88.5h-222q7 -117 111 -117z" />
    <glyph glyph-name="uni02BB" unicode="&#x2bb;" horiz-adv-x="214" 
d="M110 547q-34 0 -54 21.5t-20 53.5q0 85 89 185l60 -25q-32 -53 -39 -105q37 -24 37 -62q0 -28 -21.5 -48t-51.5 -20z" />
    <glyph glyph-name="uni02BC" unicode="&#x2bc;" horiz-adv-x="187" 
d="M78 806q34 0 54 -21.5t20 -53.5q0 -85 -89 -185l-60 25q32 53 39 105q-37 24 -37 62q0 28 21.5 48t51.5 20z" />
    <glyph glyph-name="circumflex" unicode="&#x2c6;" horiz-adv-x="484" 
d="M316 749l138 -151h-133l-79 73l-79 -73h-133l138 151h148z" />
    <glyph glyph-name="caron" unicode="&#x2c7;" horiz-adv-x="484" 
d="M454 749l-138 -151h-148l-138 151h133l79 -72l79 72h133z" />
    <glyph glyph-name="breve" unicode="&#x2d8;" horiz-adv-x="410" 
d="M380 748q-12 -74 -56 -115.5t-119 -41.5q-73 0 -118.5 41.5t-56.5 115.5h85q6 -29 30.5 -44.5t59.5 -15.5q77 0 90 60h85z" />
    <glyph glyph-name="dotaccent" unicode="&#x2d9;" horiz-adv-x="242" 
d="M121 774q35 0 60.5 -24t25.5 -58t-25.5 -58.5t-60.5 -24.5t-60.5 24.5t-25.5 58.5t25.5 58t60.5 24z" />
    <glyph glyph-name="ring" unicode="&#x2da;" horiz-adv-x="332" 
d="M166 842q56 0 96 -36t40 -92q0 -57 -40 -93t-96 -36t-96 36t-40 93q0 56 40 92t96 36zM166 764q-20 0 -33 -13.5t-13 -36.5t13.5 -37t32.5 -14t32.5 14t13.5 37t-13 36.5t-33 13.5z" />
    <glyph glyph-name="ogonek" unicode="&#x2db;" horiz-adv-x="315" 
d="M203 22l20 -22q-83 -52 -83 -112q0 -46 55 -46q28 0 64 12l26 -73q-52 -23 -112 -23q-67 0 -106 28t-39 76q0 55 46.5 98t128.5 62z" />
    <glyph glyph-name="tilde" unicode="&#x2dc;" horiz-adv-x="443" 
d="M158 736q32 0 58.5 -12t44.5 -24t29 -12q28 0 44 36h79q-7 -60 -42.5 -96t-85.5 -36q-33 0 -59.5 12t-44.5 24t-29 12q-28 0 -44 -35h-78q9 61 42.5 96t85.5 35z" />
    <glyph glyph-name="hungarumlaut" unicode="&#x2dd;" horiz-adv-x="510" 
d="M276 754l-142 -161h-104l87 161h159zM480 754l-150 -161h-104l94 161h160z" />
    <glyph glyph-name="gravecomb" unicode="&#x300;" horiz-adv-x="0" 
d="M-133 744l97 -151h-111l-164 151h178z" />
    <glyph glyph-name="acutecomb" unicode="&#x301;" horiz-adv-x="0" 
d="M-27 744l-164 -151h-111l97 151h178z" />
    <glyph glyph-name="uni0302" unicode="&#x302;" horiz-adv-x="0" 
d="M-168 749l138 -151h-133l-79 73l-79 -73h-133l138 151h148z" />
    <glyph glyph-name="tildecomb" unicode="&#x303;" horiz-adv-x="0" 
d="M-285 736q32 0 58.5 -12t44.5 -24t29 -12q28 0 44 36h79q-7 -60 -42.5 -96t-85.5 -36q-32 0 -59 12t-45 24t-29 12q-28 0 -44 -35h-78q9 61 42.5 96t85.5 35z" />
    <glyph glyph-name="uni0304" unicode="&#x304;" horiz-adv-x="0" 
d="M-30 717v-99h-357v99h357z" />
    <glyph glyph-name="uni0306" unicode="&#x306;" horiz-adv-x="0" 
d="M-30 748q-12 -74 -56 -115.5t-119 -41.5q-73 0 -118.5 41.5t-56.5 115.5h85q6 -29 30.5 -44.5t59.5 -15.5q77 0 90 60h85z" />
    <glyph glyph-name="uni0307" unicode="&#x307;" horiz-adv-x="0" 
d="M-150 774q35 0 60.5 -24t25.5 -58t-25.5 -58.5t-60.5 -24.5t-60.5 24.5t-25.5 58.5t25.5 58t60.5 24z" />
    <glyph glyph-name="uni0308" unicode="&#x308;" horiz-adv-x="0" 
d="M-350 758q32 0 56 -23.5t24 -56.5q0 -32 -24 -56t-56 -24t-56.5 24t-24.5 56q0 33 24 56.5t57 23.5zM-114 758q33 0 57 -23.5t24 -56.5q0 -32 -24 -56t-57 -24q-32 0 -56 24t-24 56q0 33 24 56.5t56 23.5z" />
    <glyph glyph-name="uni030A" unicode="&#x30a;" horiz-adv-x="0" 
d="M-166 842q56 0 96 -36t40 -92q0 -57 -40 -93t-96 -36t-96 36t-40 93q0 56 40 92t96 36zM-166 764q-20 0 -33 -13.5t-13 -36.5t13.5 -37t32.5 -14t32.5 14t13.5 37t-13 36.5t-33 13.5z" />
    <glyph glyph-name="uni030B" unicode="&#x30b;" horiz-adv-x="0" 
d="M-234 754l-142 -161h-104l87 161h159zM-30 754l-150 -161h-104l94 161h160z" />
    <glyph glyph-name="uni030C" unicode="&#x30c;" horiz-adv-x="0" 
d="M-30 749l-138 -151h-148l-138 151h133l79 -72l79 72h133z" />
    <glyph glyph-name="uni0312" unicode="&#x312;" horiz-adv-x="0" 
d="M-104 587q-34 0 -54 21.5t-20 53.5q0 85 89 185l60 -25q-32 -53 -39 -105q37 -24 37 -62q0 -28 -21.5 -48t-51.5 -20z" />
    <glyph glyph-name="uni0313" unicode="&#x313;" horiz-adv-x="0" 
d="M-109 846q34 0 54 -21.5t20 -53.5q0 -85 -89 -185l-60 25q32 53 39 105q-37 24 -37 62q0 28 21.5 48t51.5 20z" />
    <glyph glyph-name="uni0326" unicode="&#x326;" horiz-adv-x="0" 
d="M-104 -60q34 0 54 -21.5t20 -53.5q0 -85 -89 -185l-60 25q32 53 39 105q-37 24 -37 62q0 28 21.5 48t51.5 20z" />
    <glyph glyph-name="uni0327" unicode="&#x327;" horiz-adv-x="0" 
d="M-138 10l-1 -54q52 -5 81.5 -30t29.5 -62q0 -51 -41 -79t-107 -28q-71 0 -125 28l34 70q39 -17 76 -17q49 0 49 30q0 21 -25 29t-79 8l17 105h91z" />
    <glyph glyph-name="uni0328" unicode="&#x328;" horiz-adv-x="0" 
d="M-112 22l20 -22q-83 -52 -83 -112q0 -46 55 -46q28 0 64 12l26 -73q-52 -23 -112 -23q-67 0 -106 28t-39 76q0 55 46.5 98t128.5 62z" />
    <glyph glyph-name="uni0394" unicode="&#x394;" horiz-adv-x="628" 
d="M410 700l227 -700h-646l227 700h192zM180 121h261l-130 461z" />
    <glyph glyph-name="uni03A9" unicode="&#x3a9;" horiz-adv-x="757" 
d="M378 718q67 0 126.5 -20t110.5 -60.5t81 -112.5t30 -167q0 -163 -107 -238h100v-120h-271v120q60 22 90.5 85t30.5 150q0 112 -50.5 173.5t-140.5 61.5q-87 0 -138.5 -60.5t-51.5 -171.5q0 -88 30.5 -152t90.5 -86v-120h-271v120h105q-112 75 -112 239q0 92 29 163
t78.5 112.5t110 62.5t129.5 21z" />
    <glyph glyph-name="uni03BC" unicode="&#x3bc;" horiz-adv-x="584" 
d="M530 531v-531h-142v57q-41 -71 -118 -71q-51 0 -79 32v-185h-137v698h146v-321q0 -55 19 -78.5t59 -23.5q47 0 76.5 34t29.5 90v299h146z" />
    <glyph glyph-name="pi" unicode="&#x3c0;" horiz-adv-x="629" 
d="M605 531v-116h-76v-415h-142v415h-145v-415h-142v415h-76v116h581z" />
    <glyph glyph-name="Wgrave" unicode="&#x1e80;" horiz-adv-x="872" 
d="M414 902l99 -149h-115l-168 149h184zM862 700l-151 -700h-174l-95 528l-99 -528h-180l-153 700h162l86 -550l105 550h161l97 -545l87 545h154z" />
    <glyph glyph-name="wgrave" unicode="&#x1e81;" horiz-adv-x="802" 
d="M370 744l97 -151h-111l-164 151h178zM792 531l-140 -531h-170l-80 387l-85 -387h-169l-138 531h157l71 -391l82 391h162l86 -391l74 391h150z" />
    <glyph glyph-name="Wacute" unicode="&#x1e82;" horiz-adv-x="872" 
d="M669 902l-169 -149h-115l99 149h185zM862 700l-151 -700h-174l-95 528l-99 -528h-180l-153 700h162l86 -550l105 550h161l97 -545l87 545h154z" />
    <glyph glyph-name="wacute" unicode="&#x1e83;" horiz-adv-x="802" 
d="M614 744l-164 -151h-111l97 151h178zM792 531l-140 -531h-170l-80 387l-85 -387h-169l-138 531h157l71 -391l82 391h162l86 -391l74 391h150z" />
    <glyph glyph-name="Wdieresis" unicode="&#x1e84;" horiz-adv-x="872" 
d="M325 918q32 0 56 -23.5t24 -56.5q0 -32 -24 -56t-56 -24t-56.5 24t-24.5 56q0 33 24 56.5t57 23.5zM561 918q33 0 57 -23.5t24 -56.5q0 -32 -24 -56t-57 -24q-32 0 -56 24t-24 56q0 33 24 56.5t56 23.5zM862 700l-151 -700h-174l-95 528l-99 -528h-180l-153 700h162
l86 -550l105 550h161l97 -545l87 545h154z" />
    <glyph glyph-name="wdieresis" unicode="&#x1e85;" horiz-adv-x="802" 
d="M284 758q32 0 56 -23.5t24 -56.5q0 -32 -24 -56t-56 -24t-56.5 24t-24.5 56q0 33 24 56.5t57 23.5zM520 758q33 0 57 -23.5t24 -56.5q0 -32 -24 -56t-57 -24q-32 0 -56 24t-24 56q0 33 24 56.5t56 23.5zM792 531l-140 -531h-170l-80 387l-85 -387h-169l-138 531h157
l71 -391l82 391h162l86 -391l74 391h150z" />
    <glyph glyph-name="uni1E9E" unicode="&#x1e9e;" horiz-adv-x="692" 
d="M435 -19q-97 0 -175 36l39 107q45 -24 113 -24q44 0 77 25t33 75q0 51 -37.5 78t-131.5 45v89l126 144q-55 39 -133 39q-137 0 -137 -151v-444h-153v453q0 126 77 195.5t213 69.5q183 0 302 -135l-149 -177q81 -22 130.5 -73t49.5 -134q0 -95 -66.5 -156.5t-177.5 -61.5z
" />
    <glyph glyph-name="Ygrave" unicode="&#x1ef2;" horiz-adv-x="624" 
d="M286 902l99 -149h-115l-168 149h184zM628 700l-240 -422v-278h-152v276l-240 424h173l145 -299l147 299h167z" />
    <glyph glyph-name="ygrave" unicode="&#x1ef3;" horiz-adv-x="535" 
d="M237 744l97 -151h-111l-164 151h178zM530 531l-165 -550q-26 -86 -71 -127.5t-139 -41.5q-39 0 -74 7v102q25 -2 48 -2q54 0 74 16.5t30 64.5h-56l-174 531h163l107 -428l99 428h158z" />
    <glyph glyph-name="uni2007" unicode="&#x2007;" horiz-adv-x="638" 
 />
    <glyph glyph-name="uni2010" unicode="&#x2010;" horiz-adv-x="376" 
d="M335 369v-123h-294v123h294z" />
    <glyph glyph-name="uni2011" unicode="&#x2011;" horiz-adv-x="376" 
d="M335 369v-123h-294v123h294z" />
    <glyph glyph-name="figuredash" unicode="&#x2012;" 
d="M562 334v-122h-524v122h524z" />
    <glyph glyph-name="endash" unicode="&#x2013;" horiz-adv-x="551" 
d="M510 369v-123h-469v123h469z" />
    <glyph glyph-name="emdash" unicode="&#x2014;" horiz-adv-x="669" 
d="M628 369v-123h-587v123h587z" />
    <glyph glyph-name="uni2015" unicode="&#x2015;" 
d="M628 369v-123h-587v123h587z" />
    <glyph glyph-name="quoteleft" unicode="&#x2018;" horiz-adv-x="292" 
d="M141 463q-40 0 -65.5 26.5t-25.5 67.5q0 123 111 237l72 -38q-41 -68 -47 -135q45 -29 45 -76q0 -34 -26 -58t-64 -24z" />
    <glyph glyph-name="quoteright" unicode="&#x2019;" horiz-adv-x="292" 
d="M144 761q40 0 65.5 -26.5t25.5 -67.5q0 -123 -111 -237l-72 38q41 68 47 135q-45 29 -45 76q0 34 26 58t64 24z" />
    <glyph glyph-name="quotesinglbase" unicode="&#x201a;" horiz-adv-x="292" 
d="M144 165q40 0 65.5 -26.5t25.5 -67.5q0 -123 -111 -237l-72 38q41 68 47 135q-45 29 -45 76q0 34 26 58t64 24z" />
    <glyph glyph-name="quotedblleft" unicode="&#x201c;" horiz-adv-x="511" 
d="M141 463q-40 0 -65.5 26.5t-25.5 67.5q0 123 111 237l72 -38q-41 -68 -47 -135q45 -29 45 -76q0 -34 -26 -58t-64 -24zM360 463q-40 0 -65.5 26.5t-25.5 67.5q0 123 111 237l72 -38q-41 -68 -47 -135q45 -29 45 -76q0 -34 -26 -58t-64 -24z" />
    <glyph glyph-name="quotedblright" unicode="&#x201d;" horiz-adv-x="511" 
d="M144 760q40 0 65.5 -26.5t25.5 -67.5q0 -123 -111 -237l-72 38q41 68 47 135q-45 29 -45 76q0 34 26 58t64 24zM364 760q40 0 65.5 -26.5t25.5 -67.5q0 -123 -111 -237l-72 38q41 68 47 135q-45 29 -45 76q0 34 26 58t64 24z" />
    <glyph glyph-name="quotedblbase" unicode="&#x201e;" horiz-adv-x="511" 
d="M144 165q40 0 65.5 -26.5t25.5 -67.5q0 -123 -111 -237l-72 38q41 68 47 135q-45 29 -45 76q0 34 26 58t64 24zM364 165q40 0 65.5 -26.5t25.5 -67.5q0 -123 -111 -237l-72 38q41 68 47 135q-45 29 -45 76q0 34 26 58t64 24z" />
    <glyph glyph-name="dagger" unicode="&#x2020;" horiz-adv-x="638" 
d="M390 700v-169h162v-118h-162v-578h-143v578h-163v118h163v169h143z" />
    <glyph glyph-name="daggerdbl" unicode="&#x2021;" horiz-adv-x="638" 
d="M390 700v-197h162v-118h-162v-225h162v-118h-162v-207h-143v207h-163v118h163v225h-163v118h163v197h143z" />
    <glyph glyph-name="bullet" unicode="&#x2022;" horiz-adv-x="354" 
d="M179 415q50 0 86.5 -36t36.5 -87q0 -49 -36.5 -85t-86.5 -36t-87 36.5t-37 85.5q0 50 37 86t87 36z" />
    <glyph glyph-name="uni2023" unicode="&#x2023;" horiz-adv-x="400" 
d="M320 291l-242 -122v243z" />
    <glyph glyph-name="ellipsis" unicode="&#x2026;" horiz-adv-x="876" 
d="M142 156q35 0 60.5 -25t25.5 -60t-25.5 -60t-60.5 -25t-60.5 25.5t-25.5 60.5q0 34 25.5 59t60.5 25zM437 156q35 0 60.5 -25t25.5 -60t-25.5 -60t-60.5 -25t-60.5 25.5t-25.5 60.5q0 34 25.5 59t60.5 25zM734 156q35 0 60.5 -25t25.5 -60t-25.5 -60t-60.5 -25
t-60.5 25.5t-25.5 60.5q0 34 25.5 59t60.5 25z" />
    <glyph glyph-name="perthousand" unicode="&#x2030;" horiz-adv-x="1452" 
d="M226 717q86 0 140.5 -60t54.5 -171q0 -116 -54 -174t-141 -58q-88 0 -141.5 58t-53.5 174q0 112 54 171.5t141 59.5zM783 712l-433 -724h-109l433 724h109zM226 630q-86 0 -86 -142q0 -147 86 -147q85 0 85 145q0 144 -85 144zM803 448q86 0 140.5 -60t54.5 -172
q0 -116 -53.5 -174t-141.5 -58q-87 0 -141 58t-54 174q0 112 54 172t141 60zM1226 448q86 0 140.5 -60t54.5 -172q0 -116 -53.5 -174t-141.5 -58q-87 0 -141 58t-54 174q0 112 54 172t141 60zM803 360q-85 0 -85 -143q0 -74 20.5 -109.5t64.5 -35.5q86 0 86 144t-86 144z
M1226 360q-85 0 -85 -143q0 -74 20.5 -109.5t64.5 -35.5q86 0 86 144t-86 144z" />
    <glyph glyph-name="minute" unicode="&#x2032;" horiz-adv-x="252" 
d="M191 716v-319h-130v319h130z" />
    <glyph glyph-name="second" unicode="&#x2033;" horiz-adv-x="468" 
d="M191 716v-319h-130v319h130zM406 716v-319h-130v319h130z" />
    <glyph glyph-name="guilsinglleft" unicode="&#x2039;" horiz-adv-x="296" 
d="M181 511l84 -59l-98 -174l98 -174l-84 -59l-150 168v130z" />
    <glyph glyph-name="guilsinglright" unicode="&#x203a;" horiz-adv-x="296" 
d="M115 511l150 -168v-130l-150 -168l-84 59l98 174l-98 174z" />
    <glyph glyph-name="uni203D" unicode="&#x203d;" horiz-adv-x="534" 
d="M270 714q116 0 178.5 -56.5t62.5 -133.5q0 -48 -18.5 -84t-45 -57t-53.5 -39t-45.5 -40.5t-18.5 -51.5v-25h-121l-13 268v87q-36 -22 -59 -83l-119 37q25 73 89 125.5t163 52.5zM304 398q5 6 23 26t24 28.5t13.5 26.5t7.5 37q0 61 -59 76v-97zM269 161q37 0 63 -26
t26 -62t-26 -62t-63 -26q-36 0 -62.5 26t-26.5 63q0 36 26.5 61.5t62.5 25.5z" />
    <glyph glyph-name="fraction" unicode="&#x2044;" horiz-adv-x="262" 
d="M402 712l-433 -724h-109l433 724h109z" />
    <glyph glyph-name="uni2070" unicode="&#x2070;" horiz-adv-x="400" 
d="M200 763q84 0 131 -56.5t47 -164.5q0 -111 -47 -168.5t-131 -57.5q-85 0 -131.5 57.5t-46.5 168.5q0 108 46.5 164.5t131.5 56.5zM200 675q-36 0 -50.5 -32t-14.5 -100q0 -71 14.5 -105t50.5 -34q65 0 65 139q0 67 -15 99.5t-50 32.5z" />
    <glyph glyph-name="uni2074" unicode="&#x2074;" horiz-adv-x="400" 
d="M331 750v-263h55v-88h-55v-69h-108v69h-210v91l175 260h143zM221 639l-102 -152h102v152z" />
    <glyph glyph-name="uni2075" unicode="&#x2075;" horiz-adv-x="400" 
d="M355 750l-13 -86h-184l-12 -76q38 31 91 31q59 0 101 -40t42 -104q0 -71 -48.5 -115t-137.5 -44q-69 0 -113.5 29.5t-60.5 75.5l99 31q19 -50 77 -50q33 0 51.5 19t18.5 46q0 29 -18 46t-49 17q-44 0 -67 -30l-97 14l34 236h286z" />
    <glyph glyph-name="uni2076" unicode="&#x2076;" horiz-adv-x="400" 
d="M213 763q113 0 153 -90l-94 -32q-14 37 -59 37q-37 0 -58 -28t-28 -89q34 50 109 50q59 0 100.5 -36.5t41.5 -101.5q0 -74 -48.5 -115.5t-124.5 -41.5q-83 0 -133.5 49.5t-50.5 162.5q0 110 52.5 172.5t139.5 62.5zM206 525q-26 0 -43 -15.5t-17 -43.5q0 -30 16.5 -47
t40.5 -17q25 0 42 17t17 48q0 26 -14.5 42t-41.5 16z" />
    <glyph glyph-name="uni2077" unicode="&#x2077;" horiz-adv-x="400" 
d="M368 750v-89q-68 -80 -100 -150.5t-45 -180.5h-120q15 122 53.5 193.5t105.5 136.5h-135v-48h-95v138h336z" />
    <glyph glyph-name="uni2078" unicode="&#x2078;" horiz-adv-x="400" 
d="M198 316q-94 0 -140.5 37.5t-46.5 88.5q0 76 81 107q-57 36 -57 96q0 49 42 83.5t121 34.5q80 0 122.5 -33.5t42.5 -77.5q0 -26 -16 -51.5t-47 -39.5q50 -19 69 -43.5t19 -65.5q0 -56 -45 -96t-145 -40zM221 589q34 24 34 54q0 19 -14.5 29.5t-40.5 10.5t-40.5 -10.5
t-14.5 -29.5q0 -18 12 -29t42 -19zM198 403q74 0 74 48q0 22 -16.5 33.5t-59.5 23.5l-33 9q-37 -27 -37 -63q0 -51 72 -51z" />
    <glyph glyph-name="uni2079" unicode="&#x2079;" horiz-adv-x="400" 
d="M184 315q-56 0 -97 24t-61 63l92 39q20 -42 68 -42q40 0 60.5 29.5t23.5 91.5q-35 -49 -106 -49q-59 0 -101 37t-42 104q0 69 49.5 109.5t124.5 40.5q82 0 132.5 -49t50.5 -159q0 -114 -49.5 -176.5t-144.5 -62.5zM194 558q27 0 43.5 16t16.5 44q0 27 -16 42.5t-40 15.5
q-26 0 -43.5 -16t-17.5 -45q0 -25 15 -41t42 -16z" />
    <glyph glyph-name="plus.superior" unicode="&#x207a;" horiz-adv-x="384" 
d="M241 665v-97h98v-85h-98v-97h-98v97h-97v85h97v97h98z" />
    <glyph glyph-name="minus.superior" unicode="&#x207b;" horiz-adv-x="384" 
d="M339 568v-85h-293v85h293z" />
    <glyph glyph-name="equal.superior" unicode="&#x207c;" horiz-adv-x="384" 
d="M339 640v-86h-293v86h293zM339 497v-86h-293v86h293z" />
    <glyph glyph-name="uni2080" unicode="&#x2080;" horiz-adv-x="400" 
d="M200 266q84 0 131 -56.5t47 -164.5q0 -111 -47 -168.5t-131 -57.5q-85 0 -131.5 57.5t-46.5 168.5q0 108 46.5 164.5t131.5 56.5zM200 178q-36 0 -50.5 -32t-14.5 -100q0 -71 14.5 -105t50.5 -34q65 0 65 139q0 67 -15 99.5t-50 32.5z" />
    <glyph glyph-name="uni2081" unicode="&#x2081;" horiz-adv-x="400" 
d="M64 -167v89h106v180h-108v74h9q62 0 88.5 20t31.5 57h89v-331h84v-89h-300z" />
    <glyph glyph-name="uni2082" unicode="&#x2082;" horiz-adv-x="400" 
d="M202 266q73 0 116.5 -36t43.5 -93q0 -64 -43 -113.5t-139 -101.5h188v-89h-337v86q124 85 168 128.5t44 86.5q0 45 -46 45q-51 0 -52 -70h-113q0 70 43.5 113.5t126.5 43.5z" />
    <glyph glyph-name="uni2083" unicode="&#x2083;" horiz-adv-x="400" 
d="M204 266q76 0 118.5 -32.5t42.5 -83.5q0 -73 -82 -95q42 -6 69 -31t27 -67q0 -62 -48.5 -98.5t-129.5 -36.5q-71 0 -118.5 31.5t-61.5 90.5l104 24q14 -59 76 -59q28 0 45 13.5t17 38.5q0 24 -17.5 37t-47.5 13h-45v80h37q62 0 62 46q0 21 -14.5 32t-37.5 11
q-51 0 -67 -50l-104 16q14 55 60.5 87.5t114.5 32.5z" />
    <glyph glyph-name="uni2084" unicode="&#x2084;" horiz-adv-x="400" 
d="M331 253v-263h55v-88h-55v-69h-108v69h-210v91l175 260h143zM221 142l-102 -152h102v152z" />
    <glyph glyph-name="uni2085" unicode="&#x2085;" horiz-adv-x="400" 
d="M355 253l-13 -86h-184l-12 -76q38 31 91 31q59 0 101 -40t42 -104q0 -71 -48.5 -115t-137.5 -44q-69 0 -113.5 29.5t-60.5 75.5l99 31q19 -50 77 -50q33 0 51.5 19t18.5 46q0 29 -18 46t-49 17q-44 0 -67 -30l-97 14l34 236h286z" />
    <glyph glyph-name="uni2086" unicode="&#x2086;" horiz-adv-x="400" 
d="M213 266q113 0 153 -90l-94 -32q-14 37 -59 37q-37 0 -58 -28t-28 -89q34 50 109 50q59 0 100.5 -36.5t41.5 -101.5q0 -74 -48.5 -115.5t-124.5 -41.5q-83 0 -133.5 49.5t-50.5 162.5q0 110 52.5 172.5t139.5 62.5zM206 28q-26 0 -43 -15.5t-17 -43.5q0 -30 16.5 -47
t40.5 -17q25 0 42 17t17 48q0 26 -14.5 42t-41.5 16z" />
    <glyph glyph-name="uni2087" unicode="&#x2087;" horiz-adv-x="400" 
d="M368 253v-89q-68 -80 -100 -150.5t-45 -180.5h-120q15 122 53.5 193.5t105.5 136.5h-135v-48h-95v138h336z" />
    <glyph glyph-name="uni2088" unicode="&#x2088;" horiz-adv-x="400" 
d="M198 -181q-94 0 -140.5 37.5t-46.5 88.5q0 76 81 107q-57 36 -57 96q0 49 42 83.5t121 34.5q80 0 122.5 -33.5t42.5 -77.5q0 -26 -16 -51.5t-47 -39.5q50 -19 69 -43.5t19 -65.5q0 -56 -45 -96t-145 -40zM221 92q34 24 34 54q0 19 -14.5 29.5t-40.5 10.5t-40.5 -10.5
t-14.5 -29.5q0 -18 12 -29t42 -19zM198 -94q74 0 74 48q0 22 -16.5 33.5t-59.5 23.5l-33 9q-37 -27 -37 -63q0 -51 72 -51z" />
    <glyph glyph-name="uni2089" unicode="&#x2089;" horiz-adv-x="400" 
d="M184 -182q-56 0 -97 24t-61 63l92 39q20 -42 68 -42q40 0 60.5 29.5t23.5 91.5q-35 -49 -106 -49q-59 0 -101 37t-42 104q0 69 49.5 109.5t124.5 40.5q82 0 132.5 -49t50.5 -159q0 -114 -49.5 -176.5t-144.5 -62.5zM194 61q27 0 43.5 16t16.5 44q0 27 -16 42.5t-40 15.5
q-26 0 -43.5 -16t-17.5 -45q0 -25 15 -41t42 -16z" />
    <glyph glyph-name="uni208A" unicode="&#x208a;" horiz-adv-x="384" 
d="M241 175v-97h98v-85h-98v-97h-98v97h-97v85h97v97h98z" />
    <glyph glyph-name="uni208B" unicode="&#x208b;" horiz-adv-x="384" 
d="M339 78v-85h-293v85h293z" />
    <glyph glyph-name="uni208C" unicode="&#x208c;" horiz-adv-x="384" 
d="M339 144v-86h-293v86h293zM339 1v-86h-293v86h293z" />
    <glyph glyph-name="uni208D" unicode="&#x208d;" horiz-adv-x="300" 
d="M240 296q-39 -73 -53.5 -126t-14.5 -123t14.5 -122.5t53.5 -125.5h-78q-92 118 -92 248q0 131 92 249h78z" />
    <glyph glyph-name="uni208E" unicode="&#x208e;" horiz-adv-x="300" 
d="M137 296q92 -118 92 -249q0 -132 -91 -248h-79q40 73 54.5 126t14.5 122q0 70 -14.5 123t-54.5 126h78z" />
    <glyph glyph-name="Euro" unicode="&#x20ac;" horiz-adv-x="660" 
d="M420 718q126 0 211 -76l-45 -121q-71 76 -156 76q-123 0 -156 -142h285l-27 -79h-268v-17.5v-20.5v-17h250l-27 -78h-215q13 -70 48.5 -104.5t105.5 -34.5q82 0 162 65v-135q-80 -52 -179 -52q-115 0 -191.5 63t-98.5 198h-100l27 78h67v55h-87l27 79h68
q24 130 105.5 196.5t193.5 66.5z" />
    <glyph glyph-name="uni20B9" unicode="&#x20b9;" 
d="M544 700v-81h-136q45 -37 56 -99h80v-79h-81q-14 -75 -76.5 -118t-134.5 -46h-20l259 -277h-178l-255 272v102h129q92 0 115 67h-244v79h250q-7 47 -41.5 73t-88.5 26h-120v81h486z" />
    <glyph glyph-name="uni20BA" unicode="&#x20ba;" 
d="M425 233h122q-6 -107 -82 -176.5t-208 -69.5q-79 0 -130 12v305l-75 -40v79l75 40v65l-75 -39v78l75 39v174h146v-97l173 91v-78l-173 -91v-65l173 92v-78l-173 -92v-277q20 -3 46 3q43 6 70.5 39.5t35.5 85.5z" />
    <glyph glyph-name="uni20BD" unicode="&#x20bd;" 
d="M324 261h-110v-53h200v-78h-200v-130h-152v130h-52v78h52v53h-52v117h52v322h260q134 0 201 -59t67 -160q0 -106 -68.5 -163t-197.5 -57zM214 574v-196h108q111 0 111 102q0 46 -28 70t-79 24h-112z" />
    <glyph glyph-name="uni2105" unicode="&#x2105;" horiz-adv-x="900" 
d="M711 712l-433 -724h-109l433 724h109zM223 686q104 0 144 -86l-76 -31q-18 45 -65 45q-34 0 -54 -24t-20 -70t19.5 -70.5t54.5 -24.5q50 0 69 51l76 -31q-44 -93 -148 -93q-78 0 -122.5 46.5t-44.5 121.5q0 73 45 119.5t122 46.5zM674 326q77 0 123 -47t46 -119
q0 -76 -45 -122t-124 -46t-124.5 46.5t-45.5 121.5q0 74 45.5 120t124.5 46zM674 254q-35 0 -54.5 -24t-19.5 -70q0 -95 74 -95t74 95q0 46 -20 70t-54 24z" />
    <glyph glyph-name="uni2113" unicode="&#x2113;" 
d="M368 -18q-92 0 -134.5 47t-42.5 118v44l-51 -53l-40 69l89 91v249q0 82 44.5 126.5t122.5 44.5q67 0 103 -34.5t36 -93.5q0 -73 -38 -141.5t-121 -167.5v-103q0 -43 18 -62t54 -19q38 0 73 13v-107q-57 -21 -113 -21zM335 407q62 96 62 168q0 52 -28 52q-34 0 -34 -75
v-145z" />
    <glyph glyph-name="uni2116" unicode="&#x2116;" horiz-adv-x="1200" 
d="M941 369q-79 0 -124 46.5t-45 121.5q0 74 45 120t124 46q78 0 124 -47t46 -119q0 -76 -45.5 -122t-124.5 -46zM683 700v-700h-176l-264 465v-465h-138v700h176l265 -477v477h137zM941 441q36 0 55.5 25t19.5 71q0 45 -20 69.5t-55 24.5q-34 0 -54 -24t-20 -70t19.5 -71
t54.5 -25zM786 224v85h314v-85h-314z" />
    <glyph glyph-name="uni2117" unicode="&#x2117;" horiz-adv-x="900" 
d="M452 -19q-159 0 -266 105.5t-107 261.5q0 155 107 261.5t266 106.5t265 -106.5t106 -261.5q0 -156 -106 -261.5t-265 -105.5zM452 52q128 0 210 86.5t82 209.5t-82 210.5t-210 87.5q-130 0 -212 -87.5t-82 -210.5q0 -122 82 -209t212 -87zM313 157v407h166
q78 0 120.5 -33.5t42.5 -95.5q0 -130 -184 -130h-52v-148h-93zM406 376h73q66 0 66 60q0 25 -17.5 39t-45.5 14h-76v-113z" />
    <glyph glyph-name="uni2120" unicode="&#x2120;" horiz-adv-x="1200" 
d="M311 710q120 0 193 -73l-73 -59q-48 46 -119 46q-32 0 -50.5 -10.5t-18.5 -27.5q0 -18 20.5 -29t82.5 -23q86 -17 124.5 -47.5t38.5 -88.5q0 -66 -52 -102t-141 -36q-137 0 -211 80l77 63q58 -58 136 -58q36 0 58 12t22 32t-20 31t-86 24q-82 17 -121.5 48.5t-39.5 87.5
q0 58 50 94t130 36zM1059 699l26 -434h-107l-16 312l-83 -312h-115l-82 310l-16 -310h-105l26 434h158l78 -316l77 316h159z" />
    <glyph glyph-name="trademark" unicode="&#x2122;" horiz-adv-x="1000" 
d="M414 700v-92h-132v-343h-111v343h-133v92h376zM927 700l26 -435h-107l-16 312l-83 -312h-115l-82 310l-16 -310h-106l27 435h158l78 -317l78 317h158z" />
    <glyph glyph-name="estimated" unicode="&#x212e;" horiz-adv-x="945" 
d="M472 716q165 0 284 -107t119 -270h-657v-218q30 -45 104 -71t151 -26q75 0 147.5 25.5t112.5 72.5h58q-117 -138 -319 -138q-172 0 -287 103t-115 260q0 156 117.5 262.5t284.5 106.5zM473 676q-173 0 -255 -101v-196h509v196q-93 101 -254 101z" />
    <glyph glyph-name="uni2150" unicode="&#x2150;" horiz-adv-x="1032" 
d="M792 712l-433 -724h-109l433 724h109zM64 280v89h106v180h-108v74h9q62 0 88.5 20t31.5 57h89v-331h84v-89h-300zM1000 420v-89q-68 -80 -100 -150.5t-45 -180.5h-120q15 122 53.5 193.5t105.5 136.5h-135v-48h-95v138h336z" />
    <glyph glyph-name="uni2151" unicode="&#x2151;" horiz-adv-x="1052" 
d="M792 712l-433 -724h-109l433 724h109zM64 280v89h106v180h-108v74h9q62 0 88.5 20t31.5 57h89v-331h84v-89h-300zM836 -14q-56 0 -97 24t-61 63l92 39q20 -42 68 -42q40 0 60.5 29.5t23.5 91.5q-35 -49 -106 -49q-59 0 -101 37t-42 104q0 69 49.5 109.5t124.5 40.5
q82 0 132.5 -49t50.5 -159q0 -114 -49.5 -176.5t-144.5 -62.5zM846 229q27 0 43.5 16t16.5 44q0 27 -16 42.5t-40 15.5q-26 0 -43.5 -16t-17.5 -45q0 -25 15 -41t42 -16z" />
    <glyph glyph-name="uni2152" unicode="&#x2152;" horiz-adv-x="1392" 
d="M792 712l-433 -724h-109l433 724h109zM64 280v89h106v180h-108v74h9q62 0 88.5 20t31.5 57h89v-331h84v-89h-300zM1192 433q84 0 131 -56.5t47 -164.5q0 -111 -47 -168.5t-131 -57.5q-85 0 -131.5 57.5t-46.5 168.5q0 108 46.5 164.5t131.5 56.5zM656 0v89h106v180h-108
v74h9q62 0 88.5 20t31.5 57h89v-331h84v-89h-300zM1192 345q-36 0 -50.5 -32t-14.5 -100q0 -71 14.5 -105t50.5 -34q65 0 65 139q0 67 -15 99.5t-50 32.5z" />
    <glyph glyph-name="onethird" unicode="&#x2153;" horiz-adv-x="1002" 
d="M792 712l-433 -724h-109l433 724h109zM64 280v89h106v180h-108v74h9q62 0 88.5 20t31.5 57h89v-331h84v-89h-300zM806 433q76 0 118.5 -32.5t42.5 -83.5q0 -73 -82 -95q42 -6 69 -31t27 -67q0 -62 -48.5 -98.5t-129.5 -36.5q-71 0 -118.5 31.5t-61.5 90.5l104 24
q14 -59 76 -59q28 0 45 13.5t17 38.5q0 24 -17.5 37t-47.5 13h-45v80h37q62 0 62 46q0 21 -14.5 32t-37.5 11q-51 0 -67 -50l-104 16q14 55 60.5 87.5t114.5 32.5z" />
    <glyph glyph-name="twothirds" unicode="&#x2154;" horiz-adv-x="1002" 
d="M202 713q73 0 116.5 -36t43.5 -93q0 -64 -43 -113.5t-139 -101.5h188v-89h-337v86q124 85 168 128.5t44 86.5q0 45 -46 45q-51 0 -52 -70h-113q0 70 43.5 113.5t126.5 43.5zM792 712l-433 -724h-109l433 724h109zM806 433q76 0 118.5 -32.5t42.5 -83.5q0 -73 -82 -95
q42 -6 69 -31t27 -67q0 -62 -48.5 -98.5t-129.5 -36.5q-71 0 -118.5 31.5t-61.5 90.5l104 24q14 -59 76 -59q28 0 45 13.5t17 38.5q0 24 -17.5 37t-47.5 13h-45v80h37q62 0 62 46q0 21 -14.5 32t-37.5 11q-51 0 -67 -50l-104 16q14 55 60.5 87.5t114.5 32.5z" />
    <glyph glyph-name="uni2155" unicode="&#x2155;" horiz-adv-x="1012" 
d="M792 712l-433 -724h-109l433 724h109zM64 280v89h106v180h-108v74h9q62 0 88.5 20t31.5 57h89v-331h84v-89h-300zM967 420l-13 -86h-184l-12 -76q38 31 91 31q59 0 101 -40t42 -104q0 -71 -48.5 -115t-137.5 -44q-69 0 -113.5 29.5t-60.5 75.5l99 31q19 -50 77 -50
q33 0 51.5 19t18.5 46q0 29 -18 46t-49 17q-44 0 -67 -30l-97 14l34 236h286z" />
    <glyph glyph-name="uni2156" unicode="&#x2156;" horiz-adv-x="1012" 
d="M202 713q73 0 116.5 -36t43.5 -93q0 -64 -43 -113.5t-139 -101.5h188v-89h-337v86q124 85 168 128.5t44 86.5q0 45 -46 45q-51 0 -52 -70h-113q0 70 43.5 113.5t126.5 43.5zM792 712l-433 -724h-109l433 724h109zM967 420l-13 -86h-184l-12 -76q38 31 91 31q59 0 101 -40
t42 -104q0 -71 -48.5 -115t-137.5 -44q-69 0 -113.5 29.5t-60.5 75.5l99 31q19 -50 77 -50q33 0 51.5 19t18.5 46q0 29 -18 46t-49 17q-44 0 -67 -30l-97 14l34 236h286z" />
    <glyph glyph-name="uni2157" unicode="&#x2157;" horiz-adv-x="972" 
d="M204 713q76 0 118.5 -32.5t42.5 -83.5q0 -73 -82 -95q42 -6 69 -31t27 -67q0 -62 -48.5 -98.5t-129.5 -36.5q-71 0 -118.5 31.5t-61.5 90.5l104 24q14 -59 76 -59q28 0 45 13.5t17 38.5q0 24 -17.5 37t-47.5 13h-45v80h37q62 0 62 46q0 21 -14.5 32t-37.5 11
q-51 0 -67 -50l-104 16q14 55 60.5 87.5t114.5 32.5zM752 712l-433 -724h-109l433 724h109zM927 420l-13 -86h-184l-12 -76q38 31 91 31q59 0 101 -40t42 -104q0 -71 -48.5 -115t-137.5 -44q-69 0 -113.5 29.5t-60.5 75.5l99 31q19 -50 77 -50q33 0 51.5 19t18.5 46
q0 29 -18 46t-49 17q-44 0 -67 -30l-97 14l34 236h286z" />
    <glyph glyph-name="uni2158" unicode="&#x2158;" horiz-adv-x="1002" 
d="M782 712l-433 -724h-109l433 724h109zM331 700v-263h55v-88h-55v-69h-108v69h-210v91l175 260h143zM221 589l-102 -152h102v152zM957 420l-13 -86h-184l-12 -76q38 31 91 31q59 0 101 -40t42 -104q0 -71 -48.5 -115t-137.5 -44q-69 0 -113.5 29.5t-60.5 75.5l99 31
q19 -50 77 -50q33 0 51.5 19t18.5 46q0 29 -18 46t-49 17q-44 0 -67 -30l-97 14l34 236h286z" />
    <glyph glyph-name="uni2159" unicode="&#x2159;" horiz-adv-x="992" 
d="M792 712l-433 -724h-109l433 724h109zM64 280v89h106v180h-108v74h9q62 0 88.5 20t31.5 57h89v-331h84v-89h-300zM805 433q113 0 153 -90l-94 -32q-14 37 -59 37q-37 0 -58 -28t-28 -89q34 50 109 50q59 0 100.5 -36.5t41.5 -101.5q0 -74 -48.5 -115.5t-124.5 -41.5
q-83 0 -133.5 49.5t-50.5 162.5q0 110 52.5 172.5t139.5 62.5zM798 195q-26 0 -43 -15.5t-17 -43.5q0 -30 16.5 -47t40.5 -17q25 0 42 17t17 48q0 26 -14.5 42t-41.5 16z" />
    <glyph glyph-name="uni215A" unicode="&#x215a;" horiz-adv-x="952" 
d="M752 712l-433 -724h-109l433 724h109zM355 700l-13 -86h-184l-12 -76q38 31 91 31q59 0 101 -40t42 -104q0 -71 -48.5 -115t-137.5 -44q-69 0 -113.5 29.5t-60.5 75.5l99 31q19 -50 77 -50q33 0 51.5 19t18.5 46q0 29 -18 46t-49 17q-44 0 -67 -30l-97 14l34 236h286z
M765 433q113 0 153 -90l-94 -32q-14 37 -59 37q-37 0 -58 -28t-28 -89q34 50 109 50q59 0 100.5 -36.5t41.5 -101.5q0 -74 -48.5 -115.5t-124.5 -41.5q-83 0 -133.5 49.5t-50.5 162.5q0 110 52.5 172.5t139.5 62.5zM758 195q-26 0 -43 -15.5t-17 -43.5q0 -30 16.5 -47
t40.5 -17q25 0 42 17t17 48q0 26 -14.5 42t-41.5 16z" />
    <glyph glyph-name="oneeighth" unicode="&#x215b;" horiz-adv-x="1002" 
d="M792 712l-433 -724h-109l433 724h109zM64 280v89h106v180h-108v74h9q62 0 88.5 20t31.5 57h89v-331h84v-89h-300zM800 -14q-94 0 -140.5 37.5t-46.5 88.5q0 76 81 107q-57 36 -57 96q0 49 42 83.5t121 34.5q80 0 122.5 -33.5t42.5 -77.5q0 -26 -16 -51.5t-47 -39.5
q50 -19 69 -43.5t19 -65.5q0 -56 -45 -96t-145 -40zM823 259q34 24 34 54q0 19 -14.5 29.5t-40.5 10.5t-40.5 -10.5t-14.5 -29.5q0 -18 12 -29t42 -19zM800 73q74 0 74 48q0 22 -16.5 33.5t-59.5 23.5l-33 9q-37 -27 -37 -63q0 -51 72 -51z" />
    <glyph glyph-name="threeeighths" unicode="&#x215c;" horiz-adv-x="962" 
d="M204 713q76 0 118.5 -32.5t42.5 -83.5q0 -73 -82 -95q42 -6 69 -31t27 -67q0 -62 -48.5 -98.5t-129.5 -36.5q-71 0 -118.5 31.5t-61.5 90.5l104 24q14 -59 76 -59q28 0 45 13.5t17 38.5q0 24 -17.5 37t-47.5 13h-45v80h37q62 0 62 46q0 21 -14.5 32t-37.5 11
q-51 0 -67 -50l-104 16q14 55 60.5 87.5t114.5 32.5zM752 712l-433 -724h-109l433 724h109zM760 -14q-94 0 -140.5 37.5t-46.5 88.5q0 76 81 107q-57 36 -57 96q0 49 42 83.5t121 34.5q80 0 122.5 -33.5t42.5 -77.5q0 -26 -16 -51.5t-47 -39.5q50 -19 69 -43.5t19 -65.5
q0 -56 -45 -96t-145 -40zM783 259q34 24 34 54q0 19 -14.5 29.5t-40.5 10.5t-40.5 -10.5t-14.5 -29.5q0 -18 12 -29t42 -19zM760 73q74 0 74 48q0 22 -16.5 33.5t-59.5 23.5l-33 9q-37 -27 -37 -63q0 -51 72 -51z" />
    <glyph glyph-name="fiveeighths" unicode="&#x215d;" horiz-adv-x="962" 
d="M752 712l-433 -724h-109l433 724h109zM355 700l-13 -86h-184l-12 -76q38 31 91 31q59 0 101 -40t42 -104q0 -71 -48.5 -115t-137.5 -44q-69 0 -113.5 29.5t-60.5 75.5l99 31q19 -50 77 -50q33 0 51.5 19t18.5 46q0 29 -18 46t-49 17q-44 0 -67 -30l-97 14l34 236h286z
M760 -14q-94 0 -140.5 37.5t-46.5 88.5q0 76 81 107q-57 36 -57 96q0 49 42 83.5t121 34.5q80 0 122.5 -33.5t42.5 -77.5q0 -26 -16 -51.5t-47 -39.5q50 -19 69 -43.5t19 -65.5q0 -56 -45 -96t-145 -40zM783 259q34 24 34 54q0 19 -14.5 29.5t-40.5 10.5t-40.5 -10.5
t-14.5 -29.5q0 -18 12 -29t42 -19zM760 73q74 0 74 48q0 22 -16.5 33.5t-59.5 23.5l-33 9q-37 -27 -37 -63q0 -51 72 -51z" />
    <glyph glyph-name="seveneighths" unicode="&#x215e;" horiz-adv-x="912" 
d="M702 712l-433 -724h-109l433 724h109zM368 700v-89q-68 -80 -100 -150.5t-45 -180.5h-120q15 122 53.5 193.5t105.5 136.5h-135v-48h-95v138h336zM710 -14q-94 0 -140.5 37.5t-46.5 88.5q0 76 81 107q-57 36 -57 96q0 49 42 83.5t121 34.5q80 0 122.5 -33.5t42.5 -77.5
q0 -26 -16 -51.5t-47 -39.5q50 -19 69 -43.5t19 -65.5q0 -56 -45 -96t-145 -40zM733 259q34 24 34 54q0 19 -14.5 29.5t-40.5 10.5t-40.5 -10.5t-14.5 -29.5q0 -18 12 -29t42 -19zM710 73q74 0 74 48q0 22 -16.5 33.5t-59.5 23.5l-33 9q-37 -27 -37 -63q0 -51 72 -51z" />
    <glyph glyph-name="uni215F" unicode="&#x215f;" horiz-adv-x="652" 
d="M792 712l-433 -724h-109l433 724h109zM64 280v89h106v180h-108v74h9q62 0 88.5 20t31.5 57h89v-331h84v-89h-300z" />
    <glyph glyph-name="uni2189" unicode="&#x2189;" horiz-adv-x="952" 
d="M200 713q84 0 131 -56.5t47 -164.5q0 -111 -47 -168.5t-131 -57.5q-85 0 -131.5 57.5t-46.5 168.5q0 108 46.5 164.5t131.5 56.5zM742 712l-433 -724h-109l433 724h109zM200 625q-36 0 -50.5 -32t-14.5 -100q0 -71 14.5 -105t50.5 -34q65 0 65 139q0 67 -15 99.5
t-50 32.5zM756 433q76 0 118.5 -32.5t42.5 -83.5q0 -73 -82 -95q42 -6 69 -31t27 -67q0 -62 -48.5 -98.5t-129.5 -36.5q-71 0 -118.5 31.5t-61.5 90.5l104 24q14 -59 76 -59q28 0 45 13.5t17 38.5q0 24 -17.5 37t-47.5 13h-45v80h37q62 0 62 46q0 21 -14.5 32t-37.5 11
q-51 0 -67 -50l-104 16q14 55 60.5 87.5t114.5 32.5z" />
    <glyph glyph-name="arrowleft" unicode="&#x2190;" horiz-adv-x="900" 
d="M405 668l96 -82l-191 -199h491v-116h-491l191 -199l-96 -82l-306 339z" />
    <glyph glyph-name="arrowup" unicode="&#x2191;" horiz-adv-x="900" 
d="M450 695l341 -307l-80 -90l-195 185v-483h-132v483l-195 -185l-80 90z" />
    <glyph glyph-name="arrowright" unicode="&#x2192;" horiz-adv-x="900" 
d="M496 668l305 -339l-305 -339l-97 82l191 199h-491v116h491l-191 199z" />
    <glyph glyph-name="arrowdown" unicode="&#x2193;" horiz-adv-x="900" 
d="M516 649v-483l195 185l80 -90l-341 -307l-341 307l80 90l195 -185v483h132z" />
    <glyph glyph-name="arrowboth" unicode="&#x2194;" horiz-adv-x="1280" 
d="M880 668l306 -339l-306 -339l-96 82l191 199h-670l191 -199l-96 -82l-306 339l306 339l96 -82l-191 -199h670l-191 199z" />
    <glyph glyph-name="arrowupdn" unicode="&#x2195;" horiz-adv-x="900" 
d="M450 881l341 -306l-80 -88l-196 185v-662l196 184l80 -88l-341 -306l-341 306l80 88l196 -184v662l-196 -185l-80 88z" />
    <glyph glyph-name="uni2196" unicode="&#x2196;" horiz-adv-x="909" 
d="M658 617l7 -120l-278 -2l352 -355l-89 -87l-349 351l-3 -274l-128 5l24 457z" />
    <glyph glyph-name="uni2197" unicode="&#x2197;" horiz-adv-x="909" 
d="M251 617l464 -25l24 -457l-128 -5l-3 274l-349 -351l-89 87l352 355l-278 2z" />
    <glyph glyph-name="uni2198" unicode="&#x2198;" horiz-adv-x="909" 
d="M259 581l349 -350l3 273l128 -4l-24 -458l-464 -25l-7 121l278 2l-352 354z" />
    <glyph glyph-name="uni2199" unicode="&#x2199;" horiz-adv-x="909" 
d="M650 581l89 -87l-352 -354l278 -2l-7 -121l-464 25l-24 458l128 4l3 -273z" />
    <glyph glyph-name="partialdiff" unicode="&#x2202;" horiz-adv-x="638" 
d="M127 716q224 -1 345 -101t121 -299q0 -169 -77 -251t-207 -82q-123 0 -199 65.5t-76 176.5t67 173t165 62q121 0 174 -77q-12 118 -90 168.5t-223 50.5v114zM307 344q-58 0 -89.5 -33.5t-31.5 -86.5q0 -59 35 -92t91 -33q55 0 87 32.5t32 90.5q0 55 -34.5 88.5
t-89.5 33.5z" />
    <glyph glyph-name="emptyset" unicode="&#x2205;" horiz-adv-x="900" 
d="M84 349q0 153 107 260t260 107q98 0 183 -49l36 48h86l-66 -88q59 -51 92.5 -123t33.5 -155q0 -153 -106 -259t-259 -106q-109 0 -196 56l-42 -56h-86l73 98q-116 106 -116 267zM196 349q0 -103 71 -177l301 406q-53 29 -117 29q-106 0 -180.5 -75.5t-74.5 -182.5z
M321 129q59 -36 130 -36q106 0 179.5 74.5t73.5 181.5q0 113 -80 188z" />
    <glyph glyph-name="product" unicode="&#x220f;" horiz-adv-x="638" 
d="M607 700v-115h-73v-585h-146v585h-138v-585h-146v585h-73v115h576z" />
    <glyph glyph-name="summation" unicode="&#x2211;" 
d="M551 700v-116h-329l177 -176v-97l-180 -194h332v-117h-502v106l233 253l-233 233v108h502z" />
    <glyph glyph-name="minus" unicode="&#x2212;" 
d="M515 353v-123h-430v123h430z" />
    <glyph glyph-name="uni2215" unicode="&#x2215;" horiz-adv-x="262" 
d="M402 712l-433 -724h-109l433 724h109z" />
    <glyph glyph-name="uni2219" unicode="&#x2219;" horiz-adv-x="301" 
d="M151 395q38 0 66 -27.5t28 -66.5q0 -38 -28 -65.5t-66 -27.5t-66.5 28t-28.5 66t28.5 65.5t66.5 27.5z" />
    <glyph glyph-name="radical" unicode="&#x221a;" 
d="M725 867v-115h-189l-209 -752h-156l-188 522h146l112 -368l191 713h293z" />
    <glyph glyph-name="infinity" unicode="&#x221e;" horiz-adv-x="913" 
d="M648 481q103 0 160.5 -61.5t57.5 -154.5t-60 -154t-164 -61q-118 0 -185 116q-37 -56 -81 -86t-111 -30q-103 0 -160.5 61.5t-57.5 154.5t60 154t163 61q119 0 185 -117q37 57 81 87t112 30zM281 368q-39 0 -65 -26.5t-26 -75.5q0 -50 23.5 -76t63.5 -26q43 0 69.5 30.5
t45.5 81.5q-20 43 -44 67.5t-67 24.5zM636 367q-43 0 -69.5 -30.5t-45.5 -81.5q13 -28 24.5 -45.5t34 -32t52.5 -14.5q39 0 64.5 26.5t25.5 75.5t-23.5 75.5t-62.5 26.5z" />
    <glyph glyph-name="integral" unicode="&#x222b;" horiz-adv-x="300" 
d="M271 852q52 0 106 -16v-113q-48 16 -85 16q-70 0 -70 -55v-742q0 -69 -49 -112t-141 -43q-56 0 -110 16v112q55 -15 85 -15q70 0 70 60v741q0 67 50 109t144 42z" />
    <glyph glyph-name="congruent" unicode="&#x2245;" 
d="M215 701q50 0 104 -29t72 -29q48 0 81 56l75 -65q-24 -45 -65 -75.5t-97 -30.5q-48 0 -103 29t-73 29q-49 0 -81 -57l-75 65q59 107 162 107zM515 433v-123h-430v123h430zM515 211v-123h-430v123h430z" />
    <glyph glyph-name="approxequal" unicode="&#x2248;" horiz-adv-x="638" 
d="M215 498q50 0 104 -29t72 -29q48 0 81 56l75 -65q-24 -45 -65 -75.5t-97 -30.5q-48 0 -103 29t-73 29q-49 0 -81 -57l-75 65q59 107 162 107zM215 298q50 0 104 -29t72 -29q48 0 81 56l75 -65q-24 -45 -65 -75.5t-97 -30.5q-48 0 -103 29t-73 29q-49 0 -81 -57l-75 65
q59 107 162 107z" />
    <glyph glyph-name="uni2259" unicode="&#x2259;" 
d="M361 700l128 -169h-126l-60 80l-59 -80h-126l130 169h113zM515 475v-123h-430v123h430zM515 253v-123h-430v123h430z" />
    <glyph glyph-name="notequal" unicode="&#x2260;" horiz-adv-x="604" 
d="M519 581l-62 -106h58v-123h-130l-58 -99h188v-123h-261l-66 -113h-96l67 113h-74v123h146l58 99h-204v123h277l62 106h95z" />
    <glyph glyph-name="lessequal" unicode="&#x2264;" 
d="M515 618v-143l-304 -88l304 -89v-143l-430 152v159zM515 122v-122h-430v122h430z" />
    <glyph glyph-name="greaterequal" unicode="&#x2265;" horiz-adv-x="603" 
d="M88 618l430 -152v-159l-430 -152v143l305 89l-305 88v143zM515 122v-122h-430v122h430z" />
    <glyph glyph-name="dotmath" unicode="&#x22c5;" 
d="M300 385q38 0 66 -27.5t28 -66.5q0 -38 -28 -65.5t-66 -27.5t-66.5 28t-28.5 66t28.5 65.5t66.5 27.5z" />
    <glyph glyph-name="uni2460" unicode="&#x2460;" horiz-adv-x="900" 
d="M451 717q159 0 265 -106.5t106 -261.5t-106 -260.5t-265 -105.5t-266 105.5t-107 260.5t107 261.5t266 106.5zM451 647q-128 0 -211 -87.5t-83 -210.5t83 -209.5t211 -86.5t210 86.5t82 209.5q0 124 -82 211t-210 87zM319 159v81h97v164h-99v67h9q56 0 80 18t29 52h81
v-301h76v-81h-273z" />
    <glyph glyph-name="uni2461" unicode="&#x2461;" horiz-adv-x="900" 
d="M451 717q159 0 265 -106.5t106 -261.5t-106 -260.5t-265 -105.5t-266 105.5t-107 260.5t107 261.5t266 106.5zM451 647q-128 0 -211 -87.5t-83 -210.5t83 -209.5t211 -86.5t210 86.5t82 209.5q0 124 -82 211t-210 87zM452 553q66 0 105.5 -33t39.5 -85q0 -58 -39 -103
t-126 -92h171v-81h-307v78q112 76 152.5 116t40.5 80q0 41 -42 41q-46 0 -47 -64h-103q0 63 39.5 103t115.5 40z" />
    <glyph glyph-name="uni2462" unicode="&#x2462;" horiz-adv-x="900" 
d="M451 717q159 0 265 -106.5t106 -261.5t-106 -260.5t-265 -105.5t-266 105.5t-107 260.5t107 261.5t266 106.5zM451 647q-128 0 -211 -87.5t-83 -210.5t83 -209.5t211 -86.5t210 86.5t82 209.5q0 124 -82 211t-210 87zM453 553q69 0 108 -29.5t39 -76.5q0 -66 -75 -86
q39 -6 63.5 -28.5t24.5 -60.5q0 -57 -44 -90t-118 -33q-65 0 -108 29t-56 82l95 22q13 -54 69 -54q25 0 40.5 12t15.5 35q0 22 -16 34t-43 12h-41v73h34q56 0 56 41q0 39 -47 39t-61 -45l-95 15q13 50 55.5 79.5t103.5 29.5z" />
    <glyph glyph-name="uni2463" unicode="&#x2463;" horiz-adv-x="900" 
d="M451 717q159 0 265 -106.5t106 -261.5t-106 -260.5t-265 -105.5t-266 105.5t-107 260.5t107 261.5t266 106.5zM451 647q-128 0 -211 -87.5t-83 -210.5t83 -209.5t211 -86.5t210 86.5t82 209.5q0 124 -82 211t-210 87zM558 541v-239h50v-80h-50v-63h-98v63h-191v82
l159 237h130zM458 440l-93 -138h93v138z" />
    <glyph glyph-name="uni2464" unicode="&#x2464;" horiz-adv-x="900" 
d="M451 717q159 0 265 -106.5t106 -261.5t-106 -260.5t-265 -105.5t-266 105.5t-107 260.5t107 261.5t266 106.5zM451 647q-128 0 -211 -87.5t-83 -210.5t83 -209.5t211 -86.5t210 86.5t82 209.5q0 124 -82 211t-210 87zM589 541l-12 -78h-167l-11 -69q34 28 82 28
q54 0 92 -36t38 -95q0 -65 -44 -105t-125 -40q-62 0 -102.5 27t-55.5 69l90 28q18 -46 70 -46q31 0 47.5 17.5t16.5 42.5q0 26 -16.5 41.5t-44.5 15.5q-39 0 -61 -27l-88 12l31 215h260z" />
    <glyph glyph-name="uni2465" unicode="&#x2465;" horiz-adv-x="900" 
d="M451 717q159 0 265 -106.5t106 -261.5t-106 -260.5t-265 -105.5t-266 105.5t-107 260.5t107 261.5t266 106.5zM451 647q-128 0 -211 -87.5t-83 -210.5t83 -209.5t211 -86.5t210 86.5t82 209.5q0 124 -82 211t-210 87zM457 553q102 0 139 -82l-86 -29q-13 33 -53 33
q-34 0 -53 -25t-26 -81q31 45 100 45q53 0 91 -33t38 -92q0 -68 -44.5 -105.5t-113.5 -37.5q-75 0 -121 45t-46 148q0 100 47.5 157t127.5 57zM450 336q-24 0 -39 -14t-15 -39q0 -28 15 -43.5t37 -15.5q23 0 38 15.5t15 44.5q0 23 -13 37.5t-38 14.5z" />
    <glyph glyph-name="uni2466" unicode="&#x2466;" horiz-adv-x="900" 
d="M451 717q159 0 265 -106.5t106 -261.5t-106 -260.5t-265 -105.5t-266 105.5t-107 260.5t107 261.5t266 106.5zM451 647q-128 0 -211 -87.5t-83 -210.5t83 -209.5t211 -86.5t210 86.5t82 209.5q0 124 -82 211t-210 87zM608 541v-81q-62 -72 -91 -136.5t-41 -164.5h-109
q14 112 49 176.5t95 123.5h-123v-44h-86v126h306z" />
    <glyph glyph-name="uni2467" unicode="&#x2467;" horiz-adv-x="900" 
d="M451 717q159 0 265 -106.5t106 -261.5t-106 -260.5t-265 -105.5t-266 105.5t-107 260.5t107 261.5t266 106.5zM451 647q-128 0 -211 -87.5t-83 -210.5t83 -209.5t211 -86.5t210 86.5t82 209.5q0 124 -82 211t-210 87zM448 146q-86 0 -128 34.5t-42 80.5q0 70 74 97
q-52 32 -52 87q0 45 38.5 76.5t109.5 31.5q73 0 111.5 -30.5t38.5 -70.5q0 -24 -14.5 -47t-42.5 -36q45 -18 62.5 -40.5t17.5 -58.5q0 -51 -41 -87.5t-132 -36.5zM469 394q31 23 31 50q0 17 -13.5 26.5t-36.5 9.5t-36.5 -9.5t-13.5 -26.5t11 -27t38 -17zM448 225q67 0 67 44
q0 20 -15 30.5t-54 21.5l-30 8q-33 -24 -33 -57q0 -47 65 -47z" />
    <glyph glyph-name="uni2468" unicode="&#x2468;" horiz-adv-x="900" 
d="M451 717q159 0 265 -106.5t106 -261.5t-106 -260.5t-265 -105.5t-266 105.5t-107 260.5t107 261.5t266 106.5zM451 647q-128 0 -211 -87.5t-83 -210.5t83 -209.5t211 -86.5t210 86.5t82 209.5q0 124 -82 211t-210 87zM436 146q-51 0 -88.5 22t-54.5 57l83 36
q18 -38 62 -38q72 0 76 110q-31 -45 -96 -45q-53 0 -91.5 34t-38.5 94q0 63 45 100t113 37q75 0 121 -44.5t46 -144.5q0 -104 -45 -161t-132 -57zM445 367q25 0 40 14.5t15 40.5q0 25 -14.5 38.5t-36.5 13.5q-24 0 -39.5 -14t-15.5 -41q0 -23 13 -37.5t38 -14.5z" />
    <glyph glyph-name="uni24EA" unicode="&#x24ea;" horiz-adv-x="900" 
d="M451 717q159 0 265 -106.5t106 -261.5t-106 -260.5t-265 -105.5t-266 105.5t-107 260.5t107 261.5t266 106.5zM451 647q-128 0 -211 -87.5t-83 -210.5t83 -209.5t211 -86.5t210 86.5t82 209.5q0 124 -82 211t-210 87zM450 553q76 0 119 -51.5t43 -149.5
q0 -102 -42.5 -154t-119.5 -52t-119.5 52t-42.5 154q0 98 42.5 149.5t119.5 51.5zM450 473q-33 0 -46 -29t-13 -91q0 -65 13 -96t46 -31q59 0 59 127q0 61 -13.5 90.5t-45.5 29.5z" />
    <glyph glyph-name="uni24FF" unicode="&#x24ff;" horiz-adv-x="900" 
d="M451 -17q-159 0 -266 105.5t-107 260.5t107 261.5t266 106.5t265 -106.5t106 -261.5t-106 -260.5t-265 -105.5zM450 149q76 0 119 52t43 151q0 98 -43 149.5t-119 51.5q-77 0 -119.5 -51.5t-42.5 -149.5q0 -99 43 -151t119 -52zM450 229q-32 0 -45.5 31t-13.5 93t13.5 91
t45.5 29t45.5 -29.5t13.5 -90.5q0 -124 -59 -124z" />
    <glyph glyph-name="filledbox" unicode="&#x25a0;" 
d="M110 454h379v-379h-379v379z" />
    <glyph glyph-name="uni25A1" unicode="&#x25a1;" 
d="M110 454h379v-379h-379v379zM216 348v-167h167v167h-167z" />
    <glyph glyph-name="uni25B3" unicode="&#x25b3;" horiz-adv-x="900" 
d="M100 0l352 709l348 -709h-700zM293 112h314l-156 327z" />
    <glyph glyph-name="uni25B4" unicode="&#x25b4;" 
d="M299 454l190 -379h-379z" />
    <glyph glyph-name="uni25B8" unicode="&#x25b8;" 
d="M489 264l-379 -189v379z" />
    <glyph glyph-name="uni25BD" unicode="&#x25bd;" horiz-adv-x="900" 
d="M100 700h700l-348 -709zM293 588l158 -327l156 327h-314z" />
    <glyph glyph-name="uni25BE" unicode="&#x25be;" 
d="M299 75l-189 379h379z" />
    <glyph glyph-name="uni25C2" unicode="&#x25c2;" 
d="M110 264l379 190v-379z" />
    <glyph glyph-name="uni25C6" unicode="&#x25c6;" 
d="M300 539l260 -273l-260 -278l-260 278z" />
    <glyph glyph-name="uni25C7" unicode="&#x25c7;" 
d="M300 539l260 -273l-260 -278l-260 278zM300 392l-119 -125l119 -132l119 132z" />
    <glyph glyph-name="lozenge" unicode="&#x25ca;" 
d="M383 700l196 -339l-195 -361h-168l-195 359l196 341h166zM299 607l-132 -247l134 -265l132 265z" />
    <glyph glyph-name="circle" unicode="&#x25cb;" 
d="M301 27q-101 0 -171.5 70.5t-70.5 171.5q0 100 71 170.5t171 70.5t170.5 -70.5t70.5 -170.5t-70.5 -171t-170.5 -71zM301 140q49 0 83.5 36.5t34.5 92.5q0 55 -34.5 91.5t-83.5 36.5q-50 0 -84.5 -36.5t-34.5 -91.5q0 -56 34.5 -92.5t84.5 -36.5z" />
    <glyph glyph-name="uni25CF" unicode="&#x25cf;" 
d="M301 27q-101 0 -171.5 70.5t-70.5 171.5q0 100 71 170.5t171 70.5t170.5 -70.5t70.5 -170.5t-70.5 -171t-170.5 -71z" />
    <glyph glyph-name="uni2605" unicode="&#x2605;" horiz-adv-x="739" 
d="M531 267l79 -277l-242 177l-242 -177l80 280l-201 195l266 -29l94 277l96 -278l273 29z" />
    <glyph glyph-name="uni2610" unicode="&#x2610;" horiz-adv-x="900" 
d="M100 0v700h700v-700h-700zM219 119h462v462h-462v-462z" />
    <glyph glyph-name="uni2611" unicode="&#x2611;" horiz-adv-x="900" 
d="M100 0v700h700v-700h-700zM219 119h462v462h-462v-462zM544 533h85l-173 -358h-91l-83 175h89l40 -92z" />
    <glyph glyph-name="uni2612" unicode="&#x2612;" horiz-adv-x="900" 
d="M100 700h700v-700h-700v700zM681 119v462h-462v-462h462zM358 144h-105l147 211l-83 168h102l48 -96l87 121h104l-148 -207l84 -169h-104l-46 93z" />
    <glyph glyph-name="uni2620" unicode="&#x2620;" 
d="M300 129q-41 0 -72 10l-33 65q-17 10 -23.5 17t-9.5 21v42q-31 35 -31 102q0 66 48.5 109.5t120.5 43.5t120.5 -43.5t48.5 -109.5q0 -67 -31 -102v-42q-3 -14 -9.5 -21t-23.5 -17l-33 -65q-31 -10 -72 -10zM138 231l-57 28q-30 -19 -49 -19q-11 0 -19 7t-8 20q0 31 36 35
l3 7q-13 11 -13 29q0 13 8.5 21t23.5 8q36 0 41 -58l34 -20v-58zM462 231v58l34 20q5 58 41 58q15 0 23.5 -8t8.5 -21q0 -18 -13 -29l3 -7q36 -4 36 -35q0 -13 -8 -20t-19 -7q-19 0 -49 19zM219 285q17 0 28.5 10.5t11.5 26.5q0 17 -11.5 28t-28.5 11q-16 0 -27.5 -11
t-11.5 -28q0 -16 11.5 -26.5t27.5 -10.5zM381 285q16 0 27.5 10.5t11.5 26.5q0 17 -11.5 28t-27.5 11q-17 0 -28.5 -11t-11.5 -28q0 -16 11.5 -26.5t28.5 -10.5zM265 206q7 0 18 3.5t17 3.5t17 -3.5t18 -3.5v29q-16 45 -35 45t-35 -45v-29zM90 32q-15 0 -23.5 8t-8.5 21
q0 18 13 29l-3 7q-36 4 -36 35q0 13 8 20t19 7q19 0 49 -19l71 38l25 -47l-73 -41q-5 -58 -41 -58zM510 32q-36 0 -41 58l-73 41l25 47l71 -38q30 19 49 19q11 0 19 -7t8 -20q0 -31 -36 -35l-3 -7q13 -11 13 -29q0 -13 -8.5 -21t-23.5 -8z" />
    <glyph glyph-name="smileface" unicode="&#x263a;" 
d="M301 -16q-118 0 -198.5 80.5t-80.5 198.5t80.5 198.5t198.5 80.5q117 0 197.5 -80.5t80.5 -198.5t-80.5 -198.5t-197.5 -80.5zM301 60q81 0 136 55.5t55 147.5q0 91 -55.5 147t-135.5 56q-81 0 -136.5 -56t-55.5 -147q0 -92 55.5 -147.5t136.5 -55.5zM218 295
q-23 0 -37.5 14.5t-14.5 36.5q0 21 14.5 35t37.5 14t37.5 -14t14.5 -35q0 -22 -14.5 -36.5t-37.5 -14.5zM378 295q-23 0 -37.5 14.5t-14.5 36.5q0 21 14.5 35t37.5 14t37.5 -14t14.5 -35q0 -22 -14.5 -36.5t-37.5 -14.5zM300 100q-63 0 -105.5 41.5t-49.5 99.5h60
q22 -81 95 -81t95 81h60q-7 -58 -49.5 -99.5t-105.5 -41.5z" />
    <glyph glyph-name="invsmileface" unicode="&#x263b;" 
d="M301 -16q-118 0 -198.5 80.5t-80.5 198.5t80.5 198.5t198.5 80.5q117 0 197.5 -80.5t80.5 -198.5t-80.5 -198.5t-197.5 -80.5zM211 295q23 0 37.5 14.5t14.5 36.5q0 21 -14.5 35t-37.5 14t-37.5 -14t-14.5 -35q0 -22 14.5 -36.5t37.5 -14.5zM386 295q23 0 37.5 14.5
t14.5 36.5q0 21 -14.5 35t-37.5 14t-37.5 -14t-14.5 -35q0 -22 14.5 -36.5t37.5 -14.5zM300 80q63 0 105.5 41.5t49.5 99.5h-60q-22 -81 -95 -81t-95 81h-60q7 -58 49.5 -99.5t105.5 -41.5z" />
    <glyph glyph-name="sun" unicode="&#x263c;" 
d="M337 539v-114q30 -5 53 -21l86 88l53 -53l-87 -87q17 -25 21 -51h118v-72h-116q-6 -29 -21 -51l85 -85l-53 -52l-82 84q-25 -17 -57 -23v-111h-72v111q-34 6 -58 22l-82 -83l-52 52l84 84q-17 25 -21 52h-116v72h118q4 27 21 52l-86 86l52 53l86 -87q25 16 54 20v114h72z
M300 350q-36 0 -60 -24t-24 -63t23.5 -63t60.5 -24t61 24t24 63t-24.5 63t-60.5 24z" />
    <glyph glyph-name="female" unicode="&#x2640;" 
d="M131 380q0 69 49 117t119 48q71 0 120 -48t49 -117q0 -59 -35.5 -102t-91.5 -56v-59h93v-73h-93v-90h-77v90h-94v73h94v57q-58 11 -95.5 55.5t-37.5 104.5zM220 380q0 -35 22.5 -58.5t56.5 -23.5t57 23.5t23 58.5q0 36 -22.5 59t-57.5 23t-57 -23t-22 -59z" />
    <glyph glyph-name="male" unicode="&#x2642;" 
d="M42 164q0 69 48.5 116.5t119.5 47.5q41 0 77 -17l131 155l-161 -11v67l269 9l35 -252l-68 -10l-20 150l-129 -155q35 -43 35 -100q0 -71 -49.5 -117.5t-120.5 -46.5q-70 0 -118.5 47.5t-48.5 116.5zM131 164q0 -36 22 -59t57 -23t57.5 23t22.5 59q0 35 -23 58.5t-57 23.5
t-56.5 -23.5t-22.5 -58.5z" />
    <glyph glyph-name="spade" unicode="&#x2660;" 
d="M80 0l20 45q97 0 139.5 29.5t42.5 125.5q-39 -64 -114 -64q-45 0 -71.5 26t-26.5 72q0 34 13.5 66t50.5 74.5t67.5 72t98.5 92.5q68 -63 98.5 -92.5t67.5 -72t50.5 -74.5t13.5 -66q0 -46 -26.5 -72t-71.5 -26q-75 0 -114 64q0 -96 42.5 -125.5t139.5 -29.5l20 -45h-440z
" />
    <glyph glyph-name="club" unicode="&#x2663;" 
d="M80 0l20 45q97 0 139.5 29.5t42.5 125.5q-40 -66 -108 -66q-49 0 -81.5 32t-32.5 82q0 48 30 78t77 30q34 0 67 -14q-54 44 -54 99q0 48 33 77t87 29t87 -29t33 -77q0 -55 -54 -99q33 14 67 14q47 0 77 -30t30 -78q0 -50 -32.5 -82t-81.5 -32q-69 0 -108 66
q0 -96 42.5 -125.5t139.5 -29.5l20 -45h-440z" />
    <glyph glyph-name="heart" unicode="&#x2665;" 
d="M434 539q56 0 91 -33.5t35 -90.5q0 -29 -6.5 -55t-27 -57t-34.5 -51t-55 -60t-60.5 -58t-76.5 -70q-140 128 -181 175q-79 92 -79 176q0 57 35 90.5t91 33.5q49 0 79 -23t55 -69q25 46 55 69t79 23z" />
    <glyph glyph-name="diamond" unicode="&#x2666;" 
d="M300 539l220 -273l-220 -278l-220 278z" />
    <glyph glyph-name="musicalnote" unicode="&#x266a;" 
d="M365 531l44 -24q93 -50 93 -137q0 -32 -26 -89l-40 17q3 16 3 35q0 72 -53 104l-21 13v-334q0 -63 -42 -96.5t-99 -33.5q-50 0 -79.5 21t-29.5 57q0 39 33 63.5t79 24.5q42 0 68 -13v392h70z" />
    <glyph glyph-name="musicalnotedbl" unicode="&#x266b;" 
d="M566 584v-417q0 -57 -40 -95.5t-102 -38.5q-51 0 -79.5 19t-28.5 55q0 38 34.5 63.5t83.5 25.5q35 0 61 -12v258l-212 -53v-269q0 -62 -38.5 -98t-105.5 -36q-48 0 -77.5 20.5t-29.5 57.5q0 38 33.5 62.5t81.5 24.5q41 0 64 -12v352z" />
    <glyph glyph-name="uni2713" unicode="&#x2713;" 
d="M433 580h130l-264 -547h-139l-126 268h136l61 -141z" />
    <glyph glyph-name="uni2717" unicode="&#x2717;" 
d="M600 580l-209 -291l119 -238h-147l-64 131l-122 -171h-147l206 298l-116 236h143l68 -136l122 171h147z" />
    <glyph glyph-name="uni2776" unicode="&#x2776;" horiz-adv-x="900" 
d="M451 -17q-159 0 -266 105.5t-107 260.5t107 261.5t266 106.5t265 -106.5t106 -261.5t-106 -260.5t-265 -105.5zM319 159h272v81h-76v301h-80q-13 -37 -37.5 -53.5t-80.5 -16.5v-76q65 0 97 25v-180h-95v-81z" />
    <glyph glyph-name="uni2777" unicode="&#x2777;" horiz-adv-x="900" 
d="M451 -17q-159 0 -266 105.5t-107 260.5t107 261.5t266 106.5t265 -106.5t106 -261.5t-106 -260.5t-265 -105.5zM297 159h306v81h-171q87 47 126.5 92t39.5 104q0 51 -40 84t-106 33q-75 0 -114.5 -40t-40.5 -103h103q1 64 47 64q43 0 43 -41q0 -40 -40.5 -79.5
t-152.5 -116.5v-78z" />
    <glyph glyph-name="uni2778" unicode="&#x2778;" horiz-adv-x="900" 
d="M451 -17q-159 0 -266 105.5t-107 260.5t107 261.5t266 106.5t265 -106.5t106 -261.5t-106 -260.5t-265 -105.5zM451 149q74 0 118 33.5t44 89.5q0 39 -24.5 62t-62.5 29q74 19 74 85q0 46 -38.5 75t-107.5 29q-62 0 -104.5 -29.5t-54.5 -78.5l94 -15q14 44 62 44
q20 0 33 -9.5t13 -28.5q0 -40 -55 -40h-34v-73h41q58 0 58 -46q0 -23 -15.5 -35t-40.5 -12q-55 0 -69 53l-94 -22q13 -53 56 -82t107 -29z" />
    <glyph glyph-name="uni2779" unicode="&#x2779;" horiz-adv-x="900" 
d="M451 -17q-159 0 -266 105.5t-107 260.5t107 261.5t266 106.5t265 -106.5t106 -261.5t-106 -260.5t-265 -105.5zM460 159h98v63h49v80h-49v239h-130l-159 -236v-83h191v-63zM365 302l93 139v-139h-93z" />
    <glyph glyph-name="uni277A" unicode="&#x277a;" horiz-adv-x="900" 
d="M451 -17q-159 0 -266 105.5t-107 260.5t107 261.5t266 106.5t265 -106.5t106 -261.5t-106 -260.5t-265 -105.5zM443 149q81 0 125 40t44 105q0 58 -38.5 93t-90.5 35q-50 0 -83 -28l10 69h167l12 78h-259l-32 -214l88 -13q23 27 61 27q29 0 45 -14t16 -40
q0 -25 -16.5 -42t-46.5 -17q-54 0 -70 45l-90 -28q15 -42 55 -69t103 -27z" />
    <glyph glyph-name="uni277B" unicode="&#x277b;" horiz-adv-x="900" 
d="M451 -17q-159 0 -266 105.5t-107 260.5t107 261.5t266 106.5t265 -106.5t106 -261.5t-106 -260.5t-265 -105.5zM449 150q69 0 113 37t44 103q0 58 -38 91.5t-92 33.5q-65 0 -97 -46q11 107 77 107q42 0 55 -33l85 28q-37 82 -139 82q-80 0 -127.5 -57t-47.5 -157
q0 -101 46.5 -145t120.5 -44zM447 228q-21 0 -36.5 15t-15.5 40t15.5 39.5t39.5 14.5q25 0 38.5 -14.5t13.5 -38.5q0 -26 -16 -41t-39 -15z" />
    <glyph glyph-name="uni277C" unicode="&#x277c;" horiz-adv-x="900" 
d="M451 -17q-159 0 -266 105.5t-107 260.5t107 261.5t266 106.5t265 -106.5t106 -261.5t-106 -260.5t-265 -105.5zM367 159h109q11 100 40 164.5t91 136.5v81h-305v-126h86v44h123q-61 -59 -96 -124t-48 -176z" />
    <glyph glyph-name="uni277D" unicode="&#x277d;" horiz-adv-x="900" 
d="M451 -17q-159 0 -266 105.5t-107 260.5t107 261.5t266 106.5t265 -106.5t106 -261.5t-106 -260.5t-265 -105.5zM448 149q91 0 132 36.5t41 85.5q0 37 -17 59t-63 39q28 13 43 36t15 47q0 40 -39 70.5t-112 30.5q-71 0 -109.5 -31t-38.5 -76q0 -55 52 -88q-74 -26 -74 -96
q0 -44 42.5 -78.5t127.5 -34.5zM469 394l-19 7q-28 9 -39 18t-11 25q0 36 50 36q23 0 36.5 -9.5t13.5 -26.5q0 -27 -31 -50zM449 228q-31 0 -48.5 12t-17.5 33q0 31 34 57l30 -9q40 -11 54.5 -21t14.5 -30q0 -17 -16 -29.5t-51 -12.5z" />
    <glyph glyph-name="uni277E" unicode="&#x277e;" horiz-adv-x="900" 
d="M451 -17q-159 0 -266 105.5t-107 260.5t107 261.5t266 106.5t265 -106.5t106 -261.5t-106 -260.5t-265 -105.5zM437 148q87 0 131.5 56.5t44.5 159.5q0 100 -46 144.5t-120 44.5q-68 0 -113.5 -36.5t-45.5 -99.5q0 -61 38 -94.5t92 -33.5q66 0 97 44q-4 -108 -76 -108
q-45 0 -62 36l-84 -33q18 -36 55.5 -58t88.5 -22zM446 367q-25 0 -38.5 14.5t-13.5 37.5q0 27 15.5 41.5t39.5 14.5q22 0 37 -14t15 -39q0 -26 -15 -40.5t-40 -14.5z" />
    <glyph glyph-name="fi" unicode="&#xfb01;" horiz-adv-x="583" 
d="M274 718q79 0 144 -23v-107q-54 22 -115 22q-45 0 -63.5 -11t-18.5 -40v-37h308v-522h-146v418h-162v-418h-146v418h-72v104h72v56q0 65 48.5 102.5t150.5 37.5z" />
    <glyph glyph-name="fl" unicode="&#xfb02;" horiz-adv-x="601" 
d="M259 718q67 0 119 -22l144 7v-541q0 -36 7 -46.5t38 -10.5q10 0 21 1v-106q-34 -9 -75 -9q-137 0 -137 150v452q-36 17 -85 17q-37 0 -53.5 -11.5t-16.5 -40.5v-36h89v-104h-89v-418h-146v418h-72v104h72v55q0 64 46 102.5t138 38.5z" />
    <glyph glyph-name="uniFEFF" unicode="&#xfeff;" horiz-adv-x="0" 
 />
    <glyph glyph-name="u1F310" unicode="&#x1f310;" horiz-adv-x="900" 
d="M450 713q152 0 259.5 -106.5t107.5 -257.5t-107.5 -257.5t-259.5 -106.5t-259.5 106.5t-107.5 257.5t107.5 257.5t259.5 106.5zM365 645q-78 -24 -133 -84q25 -17 55 -30q30 63 78 114zM668 561q-54 60 -131 83q47 -50 77 -113q27 12 54 30zM484 501q30 1 69 10
q-25 60 -69 109v-119zM416 501v117q-42 -45 -68 -108q31 -7 68 -9zM247 379q3 43 18 94q-40 16 -71 37q-34 -59 -41 -131h94zM654 379h93q-7 72 -41 131q-36 -22 -70 -36q15 -53 18 -95zM484 441v-62h101q-3 41 -13 74q-42 -9 -88 -12zM416 441q-46 3 -88 12
q-10 -42 -13 -74h101v62zM247 319h-94q8 -74 42 -131q36 22 70 36q-15 51 -18 95zM315 319q3 -34 13 -75q42 9 88 12v63h-101zM484 256q46 -3 88 -12q10 33 13 75h-101v-63zM654 319q-3 -43 -18 -96q34 -13 69 -35q34 57 42 131h-93zM416 197q-37 -2 -68 -9q26 -63 68 -108
v117zM484 197v-119q44 49 69 109q-39 9 -69 10zM232 137q56 -60 133 -84q-47 48 -78 114q-27 -11 -55 -30zM537 54q79 25 131 83q-27 18 -54 30q-30 -63 -77 -113z" />
    <glyph glyph-name="Adieresis.ss01" horiz-adv-x="656" 
d="M282 903v-132h-135v132h135zM509 903v-132h-136v132h136zM489 0l-32 110h-264l-32 -110h-156l227 700h192l227 -700h-162zM325 583l-98 -351h196z" />
    <glyph glyph-name="Cdotaccent.ss01" horiz-adv-x="743" 
d="M462 916v-141h-159v141h159zM383 717q103 0 184.5 -48t122.5 -156l-148 -39q-45 115 -159 115q-84 0 -132.5 -62.5t-48.5 -174.5q0 -114 47 -177.5t136 -63.5q67 0 108.5 32.5t65.5 98.5l145 -45q-40 -104 -126 -159t-196 -55q-65 0 -123 20.5t-107 62.5t-78 115.5
t-29 169.5q0 76 18.5 138t50.5 103.5t75.5 70t92 41.5t101.5 13z" />
    <glyph glyph-name="Edieresis.ss01" horiz-adv-x="599" 
d="M262 903v-132h-135v132h135zM489 903v-132h-136v132h136zM542 700v-126h-314v-156h293v-122h-293v-170h323v-126h-476v700h467z" />
    <glyph glyph-name="Edotaccent.ss01" horiz-adv-x="599" 
d="M387 916v-141h-159v141h159zM542 700v-126h-314v-156h293v-122h-293v-170h323v-126h-476v700h467z" />
    <glyph glyph-name="uni0122.ss01" horiz-adv-x="756" 
d="M383 718q220 0 304 -187l-138 -49q-47 111 -166 111q-88 0 -134.5 -64t-46.5 -180t45.5 -179.5t136.5 -63.5q71 0 115 37.5t44 102.5v26h-150v113h303v-385h-139v63q-73 -82 -197 -82q-60 0 -114 20t-100 61.5t-73.5 114.5t-27.5 169q0 183 97 277.5t241 94.5zM441 -71
v-117l-66 -126h-67l35 126h-32v117h130z" />
    <glyph glyph-name="Gdotaccent.ss01" horiz-adv-x="756" 
d="M456 916v-141h-159v141h159zM383 718q220 0 304 -187l-138 -49q-47 111 -166 111q-88 0 -134.5 -64t-46.5 -180t45.5 -179.5t136.5 -63.5q71 0 115 37.5t44 102.5v26h-150v113h303v-385h-139v63q-73 -82 -197 -82q-60 0 -114 20t-100 61.5t-73.5 114.5t-27.5 169
q0 183 97 277.5t241 94.5z" />
    <glyph glyph-name="Idieresis.ss01" horiz-adv-x="408" 
d="M157 903v-132h-135v132h135zM384 903v-132h-136v132h136zM367 700v-113h-88v-474h88v-113h-329v113h89v474h-89v113h329z" />
    <glyph glyph-name="Idotaccent.ss01" horiz-adv-x="408" 
d="M282 916v-141h-159v141h159zM367 700v-113h-88v-474h88v-113h-329v113h89v474h-89v113h329z" />
    <glyph glyph-name="uni0136.ss01" horiz-adv-x="693" 
d="M419 415l273 -415h-180l-197 308l-87 -98v-210h-153v700h153v-306l259 306h180zM304 -188v117h130v-117l-66 -126h-67l35 126h-32z" />
    <glyph glyph-name="uni013B.ss01" horiz-adv-x="553" 
d="M228 700v-569h302v-131h-455v700h153zM367 -71v-117l-66 -126h-67l35 126h-32v117h130z" />
    <glyph glyph-name="Ldot.ss01" horiz-adv-x="553" 
d="M228 700v-569h302v-131h-455v700h153zM485 449v-151h-153v151h153z" />
    <glyph glyph-name="uni0145.ss01" horiz-adv-x="728" 
d="M653 700v-700h-176l-264 465v-465h-138v700h176l264 -477v477h138zM428 -71v-117l-66 -126h-67l35 126h-32v117h130z" />
    <glyph glyph-name="Odieresis.ss01" horiz-adv-x="785" 
d="M346 903v-132h-135v132h135zM573 903v-132h-136v132h136zM392 718q65 0 124 -19.5t111 -60.5t82.5 -115.5t30.5 -173.5q0 -93 -28.5 -165.5t-78 -115.5t-111 -65t-130.5 -22q-64 0 -123 20t-110.5 61.5t-82.5 116t-31 172.5q0 94 29 166.5t78.5 115.5t110 64t129.5 21z
M392 591q-86 0 -138 -63.5t-52 -175.5q0 -115 49 -179.5t141 -64.5q86 0 138.5 63t52.5 177t-49 178.5t-142 64.5z" />
    <glyph glyph-name="uni0156.ss01" horiz-adv-x="666" 
d="M341 700q139 0 208 -60t69 -157q0 -142 -144 -194l183 -289h-179l-154 265h-96v-265h-153v700h266zM351 576h-123v-193h119q114 0 114 99q0 94 -110 94zM417 -71v-117l-66 -126h-67l35 126h-32v117h130z" />
    <glyph glyph-name="uni0218.ss01" horiz-adv-x="667" 
d="M336 -19q-199 0 -314 132l99 91q94 -96 219 -96q61 0 99 23t38 63q0 41 -34.5 63t-140.5 41q-127 23 -186 73t-59 141q0 95 75 150.5t198 55.5q187 0 294 -125l-104 -84q-73 83 -188 83q-57 0 -88 -20t-31 -57q0 -36 33 -55.5t135 -37.5q133 -23 193 -73.5t60 -144.5
q0 -104 -79.5 -163.5t-218.5 -59.5zM403 -71v-117l-66 -126h-67l35 126h-32v117h130z" />
    <glyph glyph-name="uni021A.ss01" horiz-adv-x="589" 
d="M568 700v-127h-197v-573h-153v573h-197v127h547zM358 -71v-117l-66 -126h-67l35 126h-32v117h130z" />
    <glyph glyph-name="Udieresis.ss01" horiz-adv-x="716" 
d="M312 903v-132h-135v132h135zM539 903v-132h-136v132h136zM646 700v-443q0 -121 -71.5 -198.5t-217.5 -77.5q-148 0 -217.5 77.5t-69.5 198.5v443h153v-441q0 -79 32.5 -115t102.5 -36q135 0 135 151v441h153z" />
    <glyph glyph-name="Wdieresis.ss01" horiz-adv-x="872" 
d="M397 903v-132h-135v132h135zM624 903v-132h-136v132h136zM862 700l-151 -700h-174l-95 528l-99 -528h-180l-153 700h162l86 -550l105 550h161l97 -545l87 545h154z" />
    <glyph glyph-name="Ydieresis.ss01" horiz-adv-x="624" 
d="M269 903v-132h-135v132h135zM496 903v-132h-136v132h136zM628 700l-240 -422v-278h-152v276l-240 424h173l145 -299l147 299h167z" />
    <glyph glyph-name="Zdotaccent.ss01" horiz-adv-x="624" 
d="M390 916v-141h-159v141h159zM576 700v-120l-355 -455h366v-125h-555v117l358 460h-335v123h521z" />
    <glyph glyph-name="adieresis.ss01" horiz-adv-x="577" 
d="M250 743v-132h-135v132h135zM477 743v-132h-136v132h136zM291 545q117 0 170 -42.5t53 -124.5v-262q0 -72 18 -116h-145q-11 24 -16 54q-52 -68 -156 -68q-83 0 -130.5 45t-47.5 118q0 77 52 121.5t168 59.5l111 14v24q0 43 -16.5 59t-63.5 16q-45 0 -64.5 -16t-21.5 -54
h-144q3 86 63.5 129t169.5 43zM368 251l-75 -10q-58 -8 -82.5 -26t-24.5 -52q0 -30 18 -47t54 -17q46 0 78 28.5t32 71.5v52z" />
    <glyph glyph-name="cdotaccent.ss01" horiz-adv-x="582" 
d="M391 761v-140h-158v140h158zM310 545q175 0 243 -144l-127 -50q-30 78 -108 78q-58 0 -91.5 -41t-33.5 -121t33 -122.5t92 -42.5q82 0 115 90l126 -50q-73 -156 -249 -156q-125 0 -197.5 77.5t-72.5 201.5t73.5 202t196.5 78z" />
    <glyph glyph-name="edieresis.ss01" horiz-adv-x="597" 
d="M257 743v-132h-135v132h135zM484 743v-132h-136v132h136zM303 545q119 0 188 -78t69 -208v-28h-370q4 -65 37.5 -98.5t91.5 -33.5q81 0 120 70l117 -57q-80 -126 -244 -126q-125 0 -198.5 78.5t-73.5 201.5q0 125 70 202t193 77zM302 439q-48 0 -78 -29t-34 -86h221
q-7 115 -109 115z" />
    <glyph glyph-name="edotaccent.ss01" horiz-adv-x="597" 
d="M382 761v-140h-158v140h158zM303 545q119 0 188 -78t69 -208v-28h-370q4 -65 37.5 -98.5t91.5 -33.5q81 0 120 70l117 -57q-80 -126 -244 -126q-125 0 -198.5 78.5t-73.5 201.5q0 125 70 202t193 77zM302 439q-48 0 -78 -29t-34 -86h221q-7 115 -109 115z" />
    <glyph glyph-name="f.alt01" horiz-adv-x="349" 
d="M254 714q44 0 101 -15v-104q-38 10 -72 10q-33 0 -47.5 -11t-14.5 -40v-32h131v-104h-131v-418h-146v418h-72v104h72v47q0 66 44 105.5t135 39.5z" />
    <glyph glyph-name="g.ss03" horiz-adv-x="572" 
d="M270 -188q-113 0 -176.5 48.5t-72.5 119.5h139q5 -30 32.5 -49.5t78.5 -19.5q66 0 92 28t26 102v51q-57 -69 -149 -69q-103 0 -161 68t-58 183q0 118 60 194.5t168 76.5q89 0 141 -65v51h141v-486q0 -123 -62 -178t-199 -55zM283 135q50 0 81 39.5t31 109.5
q0 72 -30.5 111.5t-78.5 39.5q-54 0 -83.5 -42.5t-29.5 -118.5q0 -69 29 -104t81 -35z" />
    <glyph glyph-name="gbreve.ss03" horiz-adv-x="572" 
d="M459 748q-12 -74 -56 -115.5t-119 -41.5q-73 0 -118.5 41.5t-56.5 115.5h85q6 -29 30.5 -44.5t59.5 -15.5q77 0 90 60h85zM270 -188q-113 0 -176.5 48.5t-72.5 119.5h139q5 -30 32.5 -49.5t78.5 -19.5q66 0 92 28t26 102v51q-57 -69 -149 -69q-103 0 -161 68t-58 183
q0 118 60 194.5t168 76.5q89 0 141 -65v51h141v-486q0 -123 -62 -178t-199 -55zM283 135q50 0 81 39.5t31 109.5q0 72 -30.5 111.5t-78.5 39.5q-54 0 -83.5 -42.5t-29.5 -118.5q0 -69 29 -104t81 -35z" />
    <glyph glyph-name="gcircumflex.ss03" 
d="M372 749l138 -151h-133l-79 73l-79 -73h-133l138 151h148zM284 -188q-113 0 -176.5 48.5t-72.5 119.5h139q5 -30 32.5 -49.5t78.5 -19.5q66 0 92 28t26 102v51q-57 -69 -149 -69q-103 0 -161 68t-58 183q0 118 60 194.5t168 76.5q89 0 141 -65v51h141v-486
q0 -123 -62 -178t-199 -55zM297 135q50 0 81 39.5t31 109.5q0 72 -30.5 111.5t-78.5 39.5q-54 0 -83.5 -42.5t-29.5 -118.5q0 -69 29 -104t81 -35z" />
    <glyph glyph-name="uni0123.ss01" horiz-adv-x="595" 
d="M220 598v117l66 126h67l-35 -126h32v-117h-130zM574 580v-119q-48 0 -76 -10q26 -36 26 -86q0 -77 -60.5 -124.5t-171.5 -47.5q-54 0 -102 16q-15 -15 -15 -31q0 -20 15 -30t52 -10h92q113 0 169 -43.5t56 -114.5q0 -79 -69.5 -123.5t-200.5 -44.5q-257 0 -257 138
q0 68 76 105q-51 31 -51 89q0 56 63 96q-72 46 -72 127q0 78 61 128t174 50q83 0 141 -29q53 64 150 64zM288 449q-46 0 -70.5 -21t-24.5 -58q0 -35 24 -55.5t70 -20.5q45 0 69.5 20t24.5 56q0 37 -24 58t-69 21zM305 26h-115q-34 -22 -34 -54q0 -30 28.5 -45t99.5 -15
q127 0 127 60q0 29 -23.5 41.5t-82.5 12.5z" />
    <glyph glyph-name="uni0123.ss01.ss03" horiz-adv-x="572" 
d="M217 598v117l66 126h67l-35 -126h32v-117h-130zM270 -188q-113 0 -176.5 48.5t-72.5 119.5h139q5 -30 32.5 -49.5t78.5 -19.5q66 0 92 28t26 102v51q-57 -69 -149 -69q-103 0 -161 68t-58 183q0 118 60 194.5t168 76.5q89 0 141 -65v51h141v-486q0 -123 -62 -178
t-199 -55zM283 135q50 0 81 39.5t31 109.5q0 72 -30.5 111.5t-78.5 39.5q-54 0 -83.5 -42.5t-29.5 -118.5q0 -69 29 -104t81 -35z" />
    <glyph glyph-name="uni0123.ss03" horiz-adv-x="572" 
d="M287 587q-34 0 -54 21.5t-20 53.5q0 85 89 185l60 -25q-32 -53 -39 -105q37 -24 37 -62q0 -28 -21.5 -48t-51.5 -20zM270 -188q-113 0 -176.5 48.5t-72.5 119.5h139q5 -30 32.5 -49.5t78.5 -19.5q66 0 92 28t26 102v51q-57 -69 -149 -69q-103 0 -161 68t-58 183
q0 118 60 194.5t168 76.5q89 0 141 -65v51h141v-486q0 -123 -62 -178t-199 -55zM283 135q50 0 81 39.5t31 109.5q0 72 -30.5 111.5t-78.5 39.5q-54 0 -83.5 -42.5t-29.5 -118.5q0 -69 29 -104t81 -35z" />
    <glyph glyph-name="gdotaccent.ss01" horiz-adv-x="595" 
d="M366 761v-140h-158v140h158zM574 580v-119q-48 0 -76 -10q26 -36 26 -86q0 -77 -60.5 -124.5t-171.5 -47.5q-54 0 -102 16q-15 -15 -15 -31q0 -20 15 -30t52 -10h92q113 0 169 -43.5t56 -114.5q0 -79 -69.5 -123.5t-200.5 -44.5q-257 0 -257 138q0 68 76 105
q-51 31 -51 89q0 56 63 96q-72 46 -72 127q0 78 61 128t174 50q83 0 141 -29q53 64 150 64zM288 449q-46 0 -70.5 -21t-24.5 -58q0 -35 24 -55.5t70 -20.5q45 0 69.5 20t24.5 56q0 37 -24 58t-69 21zM305 26h-115q-34 -22 -34 -54q0 -30 28.5 -45t99.5 -15q127 0 127 60
q0 29 -23.5 41.5t-82.5 12.5z" />
    <glyph glyph-name="gdotaccent.ss01.ss03" horiz-adv-x="572" 
d="M363 761v-140h-158v140h158zM270 -188q-113 0 -176.5 48.5t-72.5 119.5h139q5 -30 32.5 -49.5t78.5 -19.5q66 0 92 28t26 102v51q-57 -69 -149 -69q-103 0 -161 68t-58 183q0 118 60 194.5t168 76.5q89 0 141 -65v51h141v-486q0 -123 -62 -178t-199 -55zM283 135
q50 0 81 39.5t31 109.5q0 72 -30.5 111.5t-78.5 39.5q-54 0 -83.5 -42.5t-29.5 -118.5q0 -69 29 -104t81 -35z" />
    <glyph glyph-name="gdotaccent.ss03" horiz-adv-x="572" 
d="M284 774q35 0 60.5 -24t25.5 -58t-25.5 -58.5t-60.5 -24.5t-60.5 24.5t-25.5 58.5t25.5 58t60.5 24zM270 -188q-113 0 -176.5 48.5t-72.5 119.5h139q5 -30 32.5 -49.5t78.5 -19.5q66 0 92 28t26 102v51q-57 -69 -149 -69q-103 0 -161 68t-58 183q0 118 60 194.5t168 76.5
q89 0 141 -65v51h141v-486q0 -123 -62 -178t-199 -55zM283 135q50 0 81 39.5t31 109.5q0 72 -30.5 111.5t-78.5 39.5q-54 0 -83.5 -42.5t-29.5 -118.5q0 -69 29 -104t81 -35z" />
    <glyph glyph-name="i.TRK" horiz-adv-x="282" 
d="M141 774q35 0 60.5 -24t25.5 -58t-25.5 -58.5t-60.5 -24.5t-60.5 24.5t-25.5 58.5t25.5 58t60.5 24zM214 531v-531h-146v531h146z" />
    <glyph glyph-name="i.ss01" horiz-adv-x="282" 
d="M220 761v-140h-158v140h158zM214 531v-531h-146v531h146z" />
    <glyph glyph-name="idieresis.ss01" horiz-adv-x="282" 
d="M95 743v-132h-135v132h135zM322 743v-132h-136v132h136zM214 531v-531h-146v531h146z" />
    <glyph glyph-name="i.loclTRK" horiz-adv-x="254" 
d="M127 774q35 0 60.5 -24t25.5 -58t-25.5 -58.5t-60.5 -24.5t-60.5 24.5t-25.5 58.5t25.5 58t60.5 24zM200 531v-531h-146v531h146z" />
    <glyph glyph-name="i.loclTRK.ss01" horiz-adv-x="282" 
d="M220 761v-140h-158v140h158zM214 531v-531h-146v531h146z" />
    <glyph glyph-name="ij.ss01" horiz-adv-x="536" 
d="M220 761v-140h-158v140h158zM475 761v-140h-158v140h158zM214 531v-531h-146v531h146zM468 531v-544q0 -88 -48 -131.5t-119 -43.5q-46 0 -75 7v107q11 -1 20 -1q44 0 60 19.5t16 80.5v506h146z" />
    <glyph glyph-name="iogonek.ss01" horiz-adv-x="282" 
d="M62 761h158v-140h-158v140zM68 10v521h146v-531q-69 -19 -100 -49.5t-31 -62.5q0 -49 62 -49q21 0 35 3l25 -73q-33 -11 -78 -11q-72 0 -112.5 30.5t-40.5 82.5q0 83 94 139z" />
    <glyph glyph-name="j.alt01" horiz-adv-x="254" 
d="M127 774q35 0 60.5 -24t25.5 -58t-25.5 -58.5t-60.5 -24.5t-60.5 24.5t-25.5 58.5t25.5 58t60.5 24zM44 -188q-32 0 -56 7v107q7 -1 17 -1q26 0 37.5 14t11.5 56v536h146v-544q0 -89 -43.5 -132t-112.5 -43z" />
    <glyph glyph-name="j.alt01.ss01" horiz-adv-x="254" 
d="M206 761v-140h-158v140h158zM44 -188q-32 0 -56 7v107q7 -1 17 -1q26 0 37.5 14t11.5 56v536h146v-544q0 -89 -43.5 -132t-112.5 -43z" />
    <glyph glyph-name="j.ss01" horiz-adv-x="282" 
d="M220 761v-140h-158v140h158zM214 531v-544q0 -88 -48 -131.5t-119 -43.5q-46 0 -75 7v107q11 -1 20 -1q44 0 60 19.5t16 80.5v506h146z" />
    <glyph glyph-name="uni0237.alt01" horiz-adv-x="254" 
d="M44 -188q-32 0 -56 7v107q7 -1 17 -1q26 0 37.5 14t11.5 56v536h146v-544q0 -89 -43.5 -132t-112.5 -43z" />
    <glyph glyph-name="jcircumflex.alt01" horiz-adv-x="282" 
d="M215 749l138 -151h-133l-79 73l-79 -73h-133l138 151h148zM58 -188q-32 0 -56 7v107q7 -1 17 -1q26 0 37.5 14t11.5 56v536h146v-544q0 -89 -43.5 -132t-112.5 -43z" />
    <glyph glyph-name="uni0137.ss01" horiz-adv-x="598" 
d="M214 700v-375l202 206h170l-204 -202l211 -329h-169l-141 230l-69 -68v-162h-146v700h146zM383 -71v-117l-66 -126h-67l35 126h-32v117h130z" />
    <glyph glyph-name="uni013C.ss01" horiz-adv-x="302" 
d="M209 700v-537q0 -37 7 -47.5t38 -10.5q10 0 21 1v-106q-34 -9 -75 -9q-137 0 -137 150v559h146zM240 -71v-117l-66 -126h-67l35 126h-32v117h130z" />
    <glyph glyph-name="ldot.ss01" horiz-adv-x="379" 
d="M209 700v-537q0 -37 7 -47.5t38 -10.5q10 0 21 1v-106q-34 -9 -75 -9q-137 0 -137 150v559h146zM376 417v-127h-129v127h129z" />
    <glyph glyph-name="napostrophe.ss01" horiz-adv-x="624" 
d="M136 795v-117l-66 -126h-67l35 126h-32v117h130zM397 545q85 0 131.5 -52.5t46.5 -148.5v-344h-146v300q0 63 -18 93t-65 30t-77 -36.5t-30 -93.5v-293h-146v531h141v-70q57 84 163 84z" />
    <glyph glyph-name="uni0146.ss01" horiz-adv-x="613" 
d="M372 545q85 0 131.5 -52.5t46.5 -148.5v-344h-146v300q0 63 -18 93t-65 30t-77 -36.5t-30 -93.5v-293h-146v531h141v-70q57 84 163 84zM371 -71v-117l-66 -126h-67l35 126h-32v117h130z" />
    <glyph glyph-name="odieresis.ss01" horiz-adv-x="635" 
d="M271 743v-132h-135v132h135zM498 743v-132h-136v132h136zM317 545q126 0 202 -78.5t76 -200.5q0 -127 -75 -203.5t-203 -76.5t-202.5 77.5t-74.5 202.5t75 202t202 77zM317 429q-58 0 -91 -40.5t-33 -120.5q0 -81 32.5 -123.5t91.5 -42.5q60 0 92.5 42.5t32.5 123.5
q0 80 -33.5 120.5t-91.5 40.5z" />
    <glyph glyph-name="uni0157.ss01" horiz-adv-x="411" 
d="M354 545q14 0 38 -2v-142q-18 1 -32 1q-69 0 -107.5 -40.5t-38.5 -141.5v-220h-146v531h141v-86q52 100 145 100zM205 -71v-117l-66 -126h-67l35 126h-32v117h130z" />
    <glyph glyph-name="uni0219.ss01" horiz-adv-x="547" 
d="M280 545q140 0 225 -80l-75 -82q-67 55 -145 55q-85 0 -85 -50q0 -25 23.5 -36.5t103.5 -26.5q97 -17 143.5 -56.5t46.5 -112.5q0 -77 -64 -123.5t-178 -46.5q-159 0 -255 91l75 86q74 -67 167 -67q102 0 102 54q0 26 -23.5 39.5t-104.5 27.5q-95 17 -140.5 56t-45.5 107
q0 77 64.5 121t165.5 44zM335 -71v-117l-66 -126h-67l35 126h-32v117h130z" />
    <glyph glyph-name="uni021B.ss01" horiz-adv-x="397" 
d="M235 660v-138h128v-104h-128v-249q0 -34 13.5 -49.5t48.5 -15.5q34 0 76 11v-112q-54 -17 -115 -17q-91 0 -130 41t-39 119v272h-72v104h72v138h146zM303 -71v-117l-66 -126h-67l35 126h-32v117h130z" />
    <glyph glyph-name="udieresis.ss01" horiz-adv-x="607" 
d="M255 743v-132h-135v132h135zM482 743v-132h-136v132h136zM539 531v-531h-142v63q-58 -77 -157 -77q-80 0 -128.5 46.5t-48.5 138.5v360h146v-326q0 -50 18.5 -72t59.5 -22q47 0 76.5 33.5t29.5 87.5v299h146z" />
    <glyph glyph-name="wdieresis.ss01" horiz-adv-x="802" 
d="M356 743v-132h-135v132h135zM583 743v-132h-136v132h136zM792 531l-140 -531h-170l-80 387l-85 -387h-169l-138 531h157l71 -391l82 391h162l86 -391l74 391h150z" />
    <glyph glyph-name="ydieresis.ss01" horiz-adv-x="535" 
d="M223 743v-132h-135v132h135zM450 743v-132h-136v132h136zM530 531l-165 -550q-26 -86 -71 -127.5t-139 -41.5q-39 0 -74 7v102q25 -2 48 -2q54 0 74 16.5t30 64.5h-56l-174 531h163l107 -428l99 428h158z" />
    <glyph glyph-name="zdotaccent.ss01" horiz-adv-x="501" 
d="M334 761v-140h-158v140h158zM461 531v-112l-255 -300h263v-119h-442v109l258 305h-233v117h409z" />
    <glyph glyph-name="f_f.alt01" horiz-adv-x="662" 
d="M595 605q-33 0 -47 -11t-14 -40v-32h131v-104h-131v-418h-146v418h-167v-418h-146v418h-72v104h72v48q0 67 50.5 107.5t148.5 40.5q79 0 161 -41q47 37 131 37q45 0 102 -15v-104q-38 10 -73 10zM388 522v47q0 8 2 24q-52 22 -102 22q-67 0 -67 -56v-37h167z" />
    <glyph glyph-name="a.sc" horiz-adv-x="587" 
d="M426 0l-28 91h-215l-28 -91h-150l195 580h186l196 -580h-156zM368 197l-78 279l-77 -279h155z" />
    <glyph glyph-name="aacute.sc" horiz-adv-x="587" 
d="M516 795l-164 -151h-111l97 151h178zM426 0l-28 91h-215l-28 -91h-150l195 580h186l196 -580h-156zM368 197l-78 279l-77 -279h155z" />
    <glyph glyph-name="abreve.sc" horiz-adv-x="587" 
d="M294 642q-73 0 -118.5 41.5t-56.5 115.5h85q6 -29 30.5 -44.5t59.5 -15.5q77 0 90 60h85q-12 -74 -56 -115.5t-119 -41.5zM426 0l-28 91h-215l-28 -91h-150l195 580h186l196 -580h-156zM368 197l-78 279l-77 -279h155z" />
    <glyph glyph-name="uni01CE.sc" horiz-adv-x="587" 
d="M368 639h-148l-138 151h133l79 -72l79 72h133zM426 0l-28 91h-215l-28 -91h-150l195 580h186l196 -580h-156zM368 197l-78 279l-77 -279h155z" />
    <glyph glyph-name="acircumflex.sc" horiz-adv-x="587" 
d="M294 722l-79 -73h-133l138 151h148l138 -151h-133zM426 0l-28 91h-215l-28 -91h-150l195 580h186l196 -580h-156zM368 197l-78 279l-77 -279h155z" />
    <glyph glyph-name="adieresis.sc" horiz-adv-x="587" 
d="M176 652q-32 0 -56.5 24t-24.5 56q0 33 24 56.5t57 23.5q32 0 56 -23.5t24 -56.5q0 -32 -24 -56t-56 -24zM412 652q-32 0 -56 24t-24 56q0 33 24 56.5t56 23.5q33 0 57 -23.5t24 -56.5q0 -32 -24 -56t-57 -24zM426 0l-28 91h-215l-28 -91h-150l195 580h186l196 -580h-156
zM368 197l-78 279l-77 -279h155z" />
    <glyph glyph-name="adieresis.sc.ss01" horiz-adv-x="587" 
d="M248 801v-132h-135v132h135zM475 801v-132h-136v132h136zM426 0l-28 91h-215l-28 -91h-150l195 580h186l196 -580h-156zM368 197l-78 279l-77 -279h155z" />
    <glyph glyph-name="agrave.sc" horiz-adv-x="587" 
d="M355 644h-111l-164 151h178zM426 0l-28 91h-215l-28 -91h-150l195 580h186l196 -580h-156zM368 197l-78 279l-77 -279h155z" />
    <glyph glyph-name="amacron.sc" horiz-adv-x="587" 
d="M472 757v-99h-357v99h357zM426 0l-28 91h-215l-28 -91h-150l195 580h186l196 -580h-156zM368 197l-78 279l-77 -279h155z" />
    <glyph glyph-name="aogonek.sc" horiz-adv-x="587" 
d="M513 -161q21 0 35 3l25 -73q-33 -11 -78 -11q-72 0 -112.5 30.5t-40.5 82.5q0 40 23 74t60 58l-27 88h-215l-28 -91h-150l195 580h186l196 -580q-69 -19 -100 -49.5t-31 -62.5q0 -49 62 -49zM368 197l-78 279l-77 -279h155z" />
    <glyph glyph-name="aring.sc" horiz-adv-x="587" 
d="M426 0l-28 91h-215l-28 -91h-150l192 570q-40 37 -40 93t40 92t96 36t96 -36t40 -92t-40 -93l193 -570h-156zM293 713q-20 0 -33 -13.5t-13 -36.5t13.5 -37t32.5 -14t32.5 14t13.5 37t-13 36.5t-33 13.5zM368 197l-78 279l-77 -279h155z" />
    <glyph glyph-name="aringacute.sc" horiz-adv-x="587" 
d="M511 967l-161 -145h-109l95 145h175zM426 0l-28 91h-215l-28 -91h-150l192 570q-40 37 -40 93t40 92t96 36t96 -36t40 -92t-40 -93l193 -570h-156zM293 713q-20 0 -33 -13.5t-13 -36.5t13.5 -37t32.5 -14t32.5 14t13.5 37t-13 36.5t-33 13.5zM368 197l-78 279l-77 -279
h155z" />
    <glyph glyph-name="atilde.sc" horiz-adv-x="587" 
d="M225 690q-28 0 -44 -35h-78q9 61 42.5 96t85.5 35q32 0 58.5 -12t44.5 -24t29 -12q28 0 44 36h79q-7 -60 -42.5 -96t-85.5 -36q-32 0 -59 12t-45 24t-29 12zM426 0l-28 91h-215l-28 -91h-150l195 580h186l196 -580h-156zM368 197l-78 279l-77 -279h155z" />
    <glyph glyph-name="ae.sc" horiz-adv-x="851" 
d="M781 580v-116h-282l18 -113h248v-110h-229l20 -124h268v-117h-392l-13 85h-229l-39 -85h-156l286 580h500zM363 466l-128 -266h168z" />
    <glyph glyph-name="aeacute.sc" horiz-adv-x="851" 
d="M708 795l-164 -151h-111l97 151h178zM781 580v-116h-282l18 -113h248v-110h-229l20 -124h268v-117h-392l-13 85h-229l-39 -85h-156l286 580h500zM363 466l-128 -266h168z" />
    <glyph glyph-name="b.sc" horiz-adv-x="609" 
d="M454 314q129 -28 129 -144q0 -78 -61 -124t-189 -46h-258v580h224q132 0 191.5 -38.5t59.5 -112.5q0 -87 -96 -115zM311 468h-91v-116h105q75 0 75 59q0 31 -22 44t-67 13zM341 113q89 0 89 65q0 73 -91 73h-119v-138h121z" />
    <glyph glyph-name="c.sc" horiz-adv-x="668" 
d="M342 598q203 0 272 -170l-139 -41q-37 92 -131 92q-70 0 -108.5 -48t-38.5 -138t38 -139t112 -49q104 0 142 106l140 -43q-37 -89 -112.5 -135.5t-175.5 -46.5q-57 0 -108 17.5t-94 52.5t-68.5 96t-25.5 140q0 78 24.5 138.5t67 96t94.5 53.5t111 18z" />
    <glyph glyph-name="cacute.sc" horiz-adv-x="668" 
d="M557 795l-164 -151h-111l97 151h178zM342 598q203 0 272 -170l-139 -41q-37 92 -131 92q-70 0 -108.5 -48t-38.5 -138t38 -139t112 -49q104 0 142 106l140 -43q-37 -89 -112.5 -135.5t-175.5 -46.5q-57 0 -108 17.5t-94 52.5t-68.5 96t-25.5 140q0 78 24.5 138.5t67 96
t94.5 53.5t111 18z" />
    <glyph glyph-name="ccaron.sc" horiz-adv-x="668" 
d="M547 790l-138 -151h-148l-138 151h133l79 -72l79 72h133zM342 598q203 0 272 -170l-139 -41q-37 92 -131 92q-70 0 -108.5 -48t-38.5 -138t38 -139t112 -49q104 0 142 106l140 -43q-37 -89 -112.5 -135.5t-175.5 -46.5q-57 0 -108 17.5t-94 52.5t-68.5 96t-25.5 140
q0 78 24.5 138.5t67 96t94.5 53.5t111 18z" />
    <glyph glyph-name="ccedilla.sc" horiz-adv-x="668" 
d="M629 168q-33 -80 -97.5 -126t-150.5 -54l-1 -32q52 -5 81.5 -30t29.5 -62q0 -51 -41 -79t-107 -28q-71 0 -125 28l34 70q39 -17 76 -17q49 0 49 30q0 21 -25 29t-79 8l14 85q-105 16 -173.5 91t-68.5 211q0 78 24.5 138.5t67 96t94.5 53.5t111 18q203 0 272 -170
l-139 -41q-37 92 -131 92q-70 0 -108.5 -48t-38.5 -138t38 -139t112 -49q104 0 142 106z" />
    <glyph glyph-name="ccircumflex.sc" horiz-adv-x="668" 
d="M409 800l138 -151h-133l-79 73l-79 -73h-133l138 151h148zM342 598q203 0 272 -170l-139 -41q-37 92 -131 92q-70 0 -108.5 -48t-38.5 -138t38 -139t112 -49q104 0 142 106l140 -43q-37 -89 -112.5 -135.5t-175.5 -46.5q-57 0 -108 17.5t-94 52.5t-68.5 96t-25.5 140
q0 78 24.5 138.5t67 96t94.5 53.5t111 18z" />
    <glyph glyph-name="cdotaccent.sc" horiz-adv-x="668" 
d="M335 838q35 0 60.5 -24t25.5 -58t-25.5 -58.5t-60.5 -24.5t-60.5 24.5t-25.5 58.5t25.5 58t60.5 24zM342 598q203 0 272 -170l-139 -41q-37 92 -131 92q-70 0 -108.5 -48t-38.5 -138t38 -139t112 -49q104 0 142 106l140 -43q-37 -89 -112.5 -135.5t-175.5 -46.5
q-57 0 -108 17.5t-94 52.5t-68.5 96t-25.5 140q0 78 24.5 138.5t67 96t94.5 53.5t111 18z" />
    <glyph glyph-name="cdotaccent.sc.ss01" horiz-adv-x="668" 
d="M414 835v-140h-158v140h158zM342 598q203 0 272 -170l-139 -41q-37 92 -131 92q-70 0 -108.5 -48t-38.5 -138t38 -139t112 -49q104 0 142 106l140 -43q-37 -89 -112.5 -135.5t-175.5 -46.5q-57 0 -108 17.5t-94 52.5t-68.5 96t-25.5 140q0 78 24.5 138.5t67 96t94.5 53.5
t111 18z" />
    <glyph glyph-name="d.sc" horiz-adv-x="650" 
d="M280 580q143 0 234 -68.5t91 -215.5q0 -80 -26 -140t-70 -92.5t-94.5 -48t-108.5 -15.5h-231v580h205zM284 463h-64v-346h86q148 0 148 180q0 82 -40 124t-130 42z" />
    <glyph glyph-name="eth.sc" horiz-adv-x="669" 
d="M299 580q67 0 123.5 -15.5t103 -47.5t72.5 -88.5t26 -132.5q0 -80 -26 -140t-70.5 -92.5t-95 -48t-108.5 -15.5h-231v255h-66v95h66v230h206zM324 117q148 0 148 180q0 82 -39.5 124t-129.5 42h-65v-113h145v-95h-145v-138h86z" />
    <glyph glyph-name="dcaron.sc" horiz-adv-x="650" 
d="M504 790l-138 -151h-148l-138 151h133l79 -72l79 72h133zM280 580q143 0 234 -68.5t91 -215.5q0 -80 -26 -140t-70 -92.5t-94.5 -48t-108.5 -15.5h-231v580h205zM284 463h-64v-346h86q148 0 148 180q0 82 -40 124t-130 42z" />
    <glyph glyph-name="dcroat.sc" horiz-adv-x="669" 
d="M299 580q67 0 123.5 -15.5t103 -47.5t72.5 -88.5t26 -132.5q0 -80 -26 -140t-70.5 -92.5t-95 -48t-108.5 -15.5h-231v255h-66v95h66v230h206zM324 117q148 0 148 180q0 82 -39.5 124t-129.5 42h-65v-113h145v-95h-145v-138h86z" />
    <glyph glyph-name="e.sc" horiz-adv-x="545" 
d="M490 580v-116h-270v-112h252v-112h-252v-123h278v-117h-423v580h415z" />
    <glyph glyph-name="eacute.sc" horiz-adv-x="545" 
d="M505 795l-164 -151h-111l97 151h178zM490 580v-116h-270v-112h252v-112h-252v-123h278v-117h-423v580h415z" />
    <glyph glyph-name="ebreve.sc" horiz-adv-x="545" 
d="M458 799q-12 -74 -56 -115.5t-119 -41.5q-73 0 -118.5 41.5t-56.5 115.5h85q6 -29 30.5 -44.5t59.5 -15.5q77 0 90 60h85zM490 580v-116h-270v-112h252v-112h-252v-123h278v-117h-423v580h415z" />
    <glyph glyph-name="ecaron.sc" horiz-adv-x="545" 
d="M495 790l-138 -151h-148l-138 151h133l79 -72l79 72h133zM490 580v-116h-270v-112h252v-112h-252v-123h278v-117h-423v580h415z" />
    <glyph glyph-name="ecircumflex.sc" horiz-adv-x="545" 
d="M357 800l138 -151h-133l-79 73l-79 -73h-133l138 151h148zM490 580v-116h-270v-112h252v-112h-252v-123h278v-117h-423v580h415z" />
    <glyph glyph-name="edieresis.sc" horiz-adv-x="545" 
d="M165 812q32 0 56 -23.5t24 -56.5q0 -32 -24 -56t-56 -24t-56.5 24t-24.5 56q0 33 24 56.5t57 23.5zM401 812q33 0 57 -23.5t24 -56.5q0 -32 -24 -56t-57 -24q-32 0 -56 24t-24 56q0 33 24 56.5t56 23.5zM490 580v-116h-270v-112h252v-112h-252v-123h278v-117h-423v580
h415z" />
    <glyph glyph-name="edieresis.sc.ss01" horiz-adv-x="545" 
d="M237 801v-132h-135v132h135zM464 801v-132h-136v132h136zM490 580v-116h-270v-112h252v-112h-252v-123h278v-117h-423v580h415z" />
    <glyph glyph-name="edotaccent.sc" horiz-adv-x="545" 
d="M283 838q35 0 60.5 -24t25.5 -58t-25.5 -58.5t-60.5 -24.5t-60.5 24.5t-25.5 58.5t25.5 58t60.5 24zM490 580v-116h-270v-112h252v-112h-252v-123h278v-117h-423v580h415z" />
    <glyph glyph-name="edotaccent.sc.ss01" horiz-adv-x="545" 
d="M362 835v-140h-158v140h158zM490 580v-116h-270v-112h252v-112h-252v-123h278v-117h-423v580h415z" />
    <glyph glyph-name="egrave.sc" horiz-adv-x="545" 
d="M247 795l97 -151h-111l-164 151h178zM490 580v-116h-270v-112h252v-112h-252v-123h278v-117h-423v580h415z" />
    <glyph glyph-name="emacron.sc" horiz-adv-x="545" 
d="M461 757v-99h-357v99h357zM490 580v-116h-270v-112h252v-112h-252v-123h278v-117h-423v580h415z" />
    <glyph glyph-name="eogonek.sc" horiz-adv-x="545" 
d="M485 -146l26 -73q-52 -23 -112 -23q-67 0 -106 28t-39 76q0 89 108 138h-287v580h415v-116h-270v-112h252v-112h-252v-123h278v-117h-49q-83 -52 -83 -112q0 -46 55 -46q28 0 64 12z" />
    <glyph glyph-name="uni0259.sc" horiz-adv-x="684" 
d="M340 595q130 0 214.5 -78t84.5 -226t-85 -227t-209 -79q-133 0 -216.5 82.5t-83.5 241.5v22h437q-14 151 -143 151q-96 0 -142 -90l-136 48q84 155 279 155zM337 96q122 0 142 134h-277q3 -64 40.5 -99t94.5 -35z" />
    <glyph glyph-name="f.sc" horiz-adv-x="517" 
d="M481 580v-116h-261v-128h241v-112h-241v-224h-145v580h406z" />
    <glyph glyph-name="f_f.sc" horiz-adv-x="978" 
d="M467 580v-116h-261v-128h241v-112h-241v-224h-145v580h406zM956 580v-116h-261v-128h241v-112h-241v-224h-145v580h406z" />
    <glyph glyph-name="f_f_i.sc" horiz-adv-x="1301" 
d="M467 580v-116h-261v-128h241v-112h-241v-224h-145v580h406zM956 580v-116h-261v-128h241v-112h-241v-224h-145v580h406zM1274 580v-105h-63v-370h63v-105h-272v105h64v370h-64v105h272z" />
    <glyph glyph-name="f_f_j.sc" horiz-adv-x="1289" 
d="M467 580v-116h-261v-128h241v-112h-241v-224h-145v580h406zM956 580v-116h-261v-128h241v-112h-241v-224h-145v580h406zM1233 580v-394q0 -97 -47 -148.5t-159 -51.5q-40 0 -88 5v118q32 -2 48 -2q59 0 80 18.5t21 67.5v387h145z" />
    <glyph glyph-name="f_f_l.sc" horiz-adv-x="1454" 
d="M467 580v-116h-261v-128h241v-112h-241v-224h-145v580h406zM956 580v-116h-261v-128h241v-112h-241v-224h-145v580h406zM1184 580v-456h261v-124h-406v580h145z" />
    <glyph glyph-name="f_j.sc" horiz-adv-x="800" 
d="M467 580v-116h-261v-128h241v-112h-241v-224h-145v580h406zM744 580v-394q0 -97 -47 -148.5t-159 -51.5q-40 0 -88 5v118q32 -2 48 -2q59 0 80 18.5t21 67.5v387h145z" />
    <glyph glyph-name="fi.sc" horiz-adv-x="812" 
d="M467 580v-116h-261v-128h241v-112h-241v-224h-145v580h406zM785 580v-105h-63v-370h63v-105h-272v105h64v370h-64v105h272z" />
    <glyph glyph-name="fl.sc" horiz-adv-x="965" 
d="M467 580v-116h-261v-128h241v-112h-241v-224h-145v580h406zM695 580v-456h261v-124h-406v580h145z" />
    <glyph glyph-name="g.sc" horiz-adv-x="680" 
d="M342 598q95 0 164 -37.5t102 -111.5l-132 -52q-38 85 -131 85q-70 0 -109 -49.5t-39 -139.5q0 -191 149 -191q58 0 93 29t35 81v9h-127v106h273v-327h-133v53q-64 -67 -165 -67q-54 0 -101.5 17.5t-88 52.5t-64 96t-23.5 140q0 151 85.5 228.5t211.5 77.5z" />
    <glyph glyph-name="gbreve.sc" horiz-adv-x="680" 
d="M515 799q-12 -74 -56 -115.5t-119 -41.5q-73 0 -118.5 41.5t-56.5 115.5h85q6 -29 30.5 -44.5t59.5 -15.5q77 0 90 60h85zM342 598q95 0 164 -37.5t102 -111.5l-132 -52q-38 85 -131 85q-70 0 -109 -49.5t-39 -139.5q0 -191 149 -191q58 0 93 29t35 81v9h-127v106h273
v-327h-133v53q-64 -67 -165 -67q-54 0 -101.5 17.5t-88 52.5t-64 96t-23.5 140q0 151 85.5 228.5t211.5 77.5z" />
    <glyph glyph-name="gcircumflex.sc" horiz-adv-x="680" 
d="M414 800l138 -151h-133l-79 73l-79 -73h-133l138 151h148zM342 598q95 0 164 -37.5t102 -111.5l-132 -52q-38 85 -131 85q-70 0 -109 -49.5t-39 -139.5q0 -191 149 -191q58 0 93 29t35 81v9h-127v106h273v-327h-133v53q-64 -67 -165 -67q-54 0 -101.5 17.5t-88 52.5
t-64 96t-23.5 140q0 151 85.5 228.5t211.5 77.5z" />
    <glyph glyph-name="uni0123.sc" horiz-adv-x="680" 
d="M342 598q95 0 164 -37.5t102 -111.5l-132 -52q-38 85 -131 85q-70 0 -109 -49.5t-39 -139.5q0 -191 149 -191q58 0 93 29t35 81v9h-127v106h273v-327h-133v53q-64 -67 -165 -67q-54 0 -101.5 17.5t-88 52.5t-64 96t-23.5 140q0 151 85.5 228.5t211.5 77.5zM341 -59
q34 0 54 -21.5t20 -53.5q0 -85 -89 -185l-60 25q32 53 39 105q-37 24 -37 62q0 28 21.5 48t51.5 20z" />
    <glyph glyph-name="uni0123.sc.ss01" horiz-adv-x="680" 
d="M342 598q95 0 164 -37.5t102 -111.5l-132 -52q-38 85 -131 85q-70 0 -109 -49.5t-39 -139.5q0 -191 149 -191q58 0 93 29t35 81v9h-127v106h273v-327h-133v53q-64 -67 -165 -67q-54 0 -101.5 17.5t-88 52.5t-64 96t-23.5 140q0 151 85.5 228.5t211.5 77.5zM407 -70v-117
l-66 -126h-67l35 126h-32v117h130z" />
    <glyph glyph-name="gdotaccent.sc" horiz-adv-x="680" 
d="M340 838q35 0 60.5 -24t25.5 -58t-25.5 -58.5t-60.5 -24.5t-60.5 24.5t-25.5 58.5t25.5 58t60.5 24zM342 598q95 0 164 -37.5t102 -111.5l-132 -52q-38 85 -131 85q-70 0 -109 -49.5t-39 -139.5q0 -191 149 -191q58 0 93 29t35 81v9h-127v106h273v-327h-133v53
q-64 -67 -165 -67q-54 0 -101.5 17.5t-88 52.5t-64 96t-23.5 140q0 151 85.5 228.5t211.5 77.5z" />
    <glyph glyph-name="gdotaccent.sc.ss01" horiz-adv-x="680" 
d="M419 835v-140h-158v140h158zM342 598q95 0 164 -37.5t102 -111.5l-132 -52q-38 85 -131 85q-70 0 -109 -49.5t-39 -139.5q0 -191 149 -191q58 0 93 29t35 81v9h-127v106h273v-327h-133v53q-64 -67 -165 -67q-54 0 -101.5 17.5t-88 52.5t-64 96t-23.5 140
q0 151 85.5 228.5t211.5 77.5z" />
    <glyph glyph-name="h.sc" horiz-adv-x="673" 
d="M598 580v-580h-146v243h-232v-243h-145v580h145v-220h232v220h146z" />
    <glyph glyph-name="hbar.sc" horiz-adv-x="695" 
d="M30 426v81h56v73h145v-73h232v73h146v-73h57v-81h-57v-426h-146v243h-232v-243h-145v426h-56zM231 360h232v66h-232v-66z" />
    <glyph glyph-name="hcircumflex.sc" horiz-adv-x="673" 
d="M411 800l138 -151h-133l-79 73l-79 -73h-133l138 151h148zM598 580v-580h-146v243h-232v-243h-145v580h145v-220h232v220h146z" />
    <glyph glyph-name="i.sc" horiz-adv-x="351" 
d="M310 580v-105h-63v-370h63v-105h-272v105h64v370h-64v105h272z" />
    <glyph glyph-name="i.sc.TRK.sc" horiz-adv-x="351" 
d="M175 838q35 0 60.5 -24t25.5 -58t-25.5 -58.5t-60.5 -24.5t-60.5 24.5t-25.5 58.5t25.5 58t60.5 24zM310 580v-105h-63v-370h63v-105h-272v105h64v370h-64v105h272z" />
    <glyph glyph-name="i.sc.TRK.sc.ss01" horiz-adv-x="323" 
d="M240 835v-140h-158v140h158zM296 580v-105h-63v-370h63v-105h-272v105h64v370h-64v105h272z" />
    <glyph glyph-name="dotlessi.sc" horiz-adv-x="351" 
d="M310 580v-105h-63v-370h63v-105h-272v105h64v370h-64v105h272z" />
    <glyph glyph-name="iacute.sc" horiz-adv-x="351" 
d="M397 795l-164 -151h-111l97 151h178zM310 580v-105h-63v-370h63v-105h-272v105h64v370h-64v105h272z" />
    <glyph glyph-name="ibreve.sc" horiz-adv-x="323" 
d="M336 799q-12 -74 -56 -115.5t-119 -41.5q-73 0 -118.5 41.5t-56.5 115.5h85q6 -29 30.5 -44.5t59.5 -15.5q77 0 90 60h85zM296 580v-105h-63v-370h63v-105h-272v105h64v370h-64v105h272z" />
    <glyph glyph-name="uni01D0.sc" horiz-adv-x="351" 
d="M387 790l-138 -151h-148l-138 151h133l79 -72l79 72h133zM310 580v-105h-63v-370h63v-105h-272v105h64v370h-64v105h272z" />
    <glyph glyph-name="icircumflex.sc" horiz-adv-x="351" 
d="M249 800l138 -151h-133l-79 73l-79 -73h-133l138 151h148zM310 580v-105h-63v-370h63v-105h-272v105h64v370h-64v105h272z" />
    <glyph glyph-name="idieresis.sc" horiz-adv-x="351" 
d="M57 812q32 0 56 -23.5t24 -56.5q0 -32 -24 -56t-56 -24t-56.5 24t-24.5 56q0 33 24 56.5t57 23.5zM293 812q33 0 57 -23.5t24 -56.5q0 -32 -24 -56t-57 -24q-32 0 -56 24t-24 56q0 33 24 56.5t56 23.5zM310 580v-105h-63v-370h63v-105h-272v105h64v370h-64v105h272z" />
    <glyph glyph-name="idieresis.sc.ss01" horiz-adv-x="351" 
d="M129 801v-132h-135v132h135zM356 801v-132h-136v132h136zM310 580v-105h-63v-370h63v-105h-272v105h64v370h-64v105h272z" />
    <glyph glyph-name="i.sc.loclTRK" horiz-adv-x="351" 
d="M175 838q35 0 60.5 -24t25.5 -58t-25.5 -58.5t-60.5 -24.5t-60.5 24.5t-25.5 58.5t25.5 58t60.5 24zM310 580v-105h-63v-370h63v-105h-272v105h64v370h-64v105h272z" />
    <glyph glyph-name="i.sc.loclTRK.ss01" horiz-adv-x="351" 
d="M254 835v-140h-158v140h158zM310 580v-105h-63v-370h63v-105h-272v105h64v370h-64v105h272z" />
    <glyph glyph-name="igrave.sc" horiz-adv-x="351" 
d="M139 795l97 -151h-111l-164 151h178zM310 580v-105h-63v-370h63v-105h-272v105h64v370h-64v105h272z" />
    <glyph glyph-name="ij.sc" horiz-adv-x="712" 
d="M310 580v-105h-63v-370h63v-105h-272v105h64v370h-64v105h272zM642 580v-394q0 -97 -47 -148.5t-159 -51.5q-40 0 -88 5v118q32 -2 48 -2q59 0 80 18.5t21 67.5v387h145z" />
    <glyph glyph-name="imacron.sc" horiz-adv-x="351" 
d="M353 757v-99h-357v99h357zM310 580v-105h-63v-370h63v-105h-272v105h64v370h-64v105h272z" />
    <glyph glyph-name="iogonek.sc" horiz-adv-x="351" 
d="M302 -146l26 -73q-52 -23 -112 -23q-67 0 -106 28t-39 76q0 89 108 138h-141v105h64v370h-64v105h272v-105h-63v-370h63v-105h-44q-83 -52 -83 -112q0 -46 55 -46q28 0 64 12z" />
    <glyph glyph-name="itilde.sc" horiz-adv-x="351" 
d="M112 786q32 0 58.5 -12t44.5 -24t29 -12q28 0 44 36h79q-7 -60 -42.5 -96t-85.5 -36q-32 0 -59 12t-45 24t-29 12q-28 0 -44 -35h-78q9 61 42.5 96t85.5 35zM310 580v-105h-63v-370h63v-105h-272v105h64v370h-64v105h272z" />
    <glyph glyph-name="j.sc" horiz-adv-x="389" 
d="M319 580v-394q0 -97 -47 -148.5t-159 -51.5q-40 0 -88 5v118q32 -2 48 -2q59 0 80 18.5t21 67.5v387h145z" />
    <glyph glyph-name="uni0237.sc" horiz-adv-x="361" 
d="M305 580v-394q0 -97 -47 -148.5t-159 -51.5q-40 0 -88 5v118q32 -2 48 -2q59 0 80 18.5t21 67.5v387h145z" />
    <glyph glyph-name="jcircumflex.sc" horiz-adv-x="389" 
d="M320 800l138 -151h-133l-79 73l-79 -73h-133l138 151h148zM319 580v-394q0 -97 -47 -148.5t-159 -51.5q-40 0 -88 5v118q32 -2 48 -2q59 0 80 18.5t21 67.5v387h145z" />
    <glyph glyph-name="k.sc" horiz-adv-x="638" 
d="M460 0l-167 241l-73 -76v-165h-145v580h145v-239l216 239h179l-223 -237l245 -343h-177z" />
    <glyph glyph-name="uni0137.sc" horiz-adv-x="638" 
d="M392 343l245 -343h-177l-167 241l-73 -76v-165h-145v580h145v-239l216 239h179zM340 -60q34 0 54 -21.5t20 -53.5q0 -85 -89 -185l-60 25q32 53 39 105q-37 24 -37 62q0 28 21.5 48t51.5 20z" />
    <glyph glyph-name="uni0137.sc.ss01" horiz-adv-x="638" 
d="M392 343l245 -343h-177l-167 241l-73 -76v-165h-145v580h145v-239l216 239h179zM276 -188v117h130v-117l-66 -126h-67l35 126h-32z" />
    <glyph glyph-name="kgreenlandic.sc" horiz-adv-x="638" 
d="M460 0l-167 241l-73 -76v-165h-145v580h145v-239l216 239h179l-223 -237l245 -343h-177z" />
    <glyph glyph-name="l.sc" horiz-adv-x="504" 
d="M220 580v-456h261v-124h-406v580h145z" />
    <glyph glyph-name="lacute.sc" horiz-adv-x="504" 
d="M370 795l-164 -151h-111l97 151h178zM220 580v-456h261v-124h-406v580h145z" />
    <glyph glyph-name="lcaron.sc" horiz-adv-x="504" 
d="M444 624l-91 -155h-87l36 155h142zM220 580v-456h261v-124h-406v580h145z" />
    <glyph glyph-name="uni013C.sc" horiz-adv-x="504" 
d="M220 580v-456h261v-124h-406v580h145zM279 -60q34 0 54 -21.5t20 -53.5q0 -85 -89 -185l-60 25q32 53 39 105q-37 24 -37 62q0 28 21.5 48t51.5 20z" />
    <glyph glyph-name="uni013C.sc.ss01" horiz-adv-x="504" 
d="M220 580v-456h261v-124h-406v580h145zM345 -71v-117l-66 -126h-67l35 126h-32v117h130z" />
    <glyph glyph-name="ldot.sc" horiz-adv-x="504" 
d="M220 580v-456h261v-124h-406v580h145zM377 413q35 0 59.5 -24.5t24.5 -59.5q0 -34 -25 -59t-59 -25q-35 0 -60.5 25.5t-25.5 59.5t25.5 58.5t60.5 24.5z" />
    <glyph glyph-name="ldot.sc.ss01" horiz-adv-x="504" 
d="M220 580v-456h261v-124h-406v580h145zM450 400v-143h-145v143h145z" />
    <glyph glyph-name="lslash.sc" horiz-adv-x="525" 
d="M237 124h261v-124h-406v211l-65 -34v98l65 34v271h145v-195l126 66v-99l-126 -66v-162z" />
    <glyph glyph-name="m.sc" horiz-adv-x="768" 
d="M680 580l37 -580h-135l-26 427l-95 -427h-155l-97 426l-25 -426h-133l39 580h206l89 -424l87 424h208z" />
    <glyph glyph-name="n.sc" horiz-adv-x="664" 
d="M589 580v-580h-168l-214 371v-371h-132v580h168l214 -385v385h132z" />
    <glyph glyph-name="nacute.sc" horiz-adv-x="664" 
d="M551 795l-164 -151h-111l97 151h178zM589 580v-580h-168l-214 371v-371h-132v580h168l214 -385v385h132z" />
    <glyph glyph-name="ncaron.sc" horiz-adv-x="664" 
d="M541 790l-138 -151h-148l-138 151h133l79 -72l79 72h133zM589 580v-580h-168l-214 371v-371h-132v580h168l214 -385v385h132z" />
    <glyph glyph-name="uni0146.sc" horiz-adv-x="664" 
d="M589 580v-580h-168l-214 371v-371h-132v580h168l214 -385v385h132zM331 -60q34 0 54 -21.5t20 -53.5q0 -85 -89 -185l-60 25q32 53 39 105q-37 24 -37 62q0 28 21.5 48t51.5 20z" />
    <glyph glyph-name="uni0146.sc.ss01" horiz-adv-x="664" 
d="M589 580v-580h-168l-214 371v-371h-132v580h168l214 -385v385h132zM397 -71v-117l-66 -126h-67l35 126h-32v117h130z" />
    <glyph glyph-name="eng.sc" horiz-adv-x="664" 
d="M589 580v-589q0 -91 -48 -135t-119 -44q-46 0 -75 7v107q11 -1 20 -1q48 0 68.5 13t20.5 51v11h-30l-219 371v-371h-132v580h168l214 -385v385h132z" />
    <glyph glyph-name="ntilde.sc" horiz-adv-x="664" 
d="M266 786q32 0 58.5 -12t44.5 -24t29 -12q28 0 44 36h79q-7 -60 -42.5 -96t-85.5 -36q-33 0 -59.5 12t-44.5 24t-29 12q-28 0 -44 -35h-78q9 61 42.5 96t85.5 35zM589 580v-580h-168l-214 371v-371h-132v580h168l214 -385v385h132z" />
    <glyph glyph-name="o.sc" horiz-adv-x="704" 
d="M353 598q58 0 109.5 -16.5t97 -51.5t72.5 -97.5t27 -145.5q0 -148 -88.5 -224.5t-217.5 -76.5q-46 0 -88.5 10t-83 33t-70.5 56.5t-48 86t-18 116.5q0 79 25.5 140t69 97t97.5 54.5t116 18.5zM353 482q-71 0 -113.5 -50.5t-42.5 -143.5q0 -90 40 -137.5t116 -47.5
q70 0 112.5 47t42.5 137q0 93 -39.5 144t-115.5 51z" />
    <glyph glyph-name="oacute.sc" horiz-adv-x="704" 
d="M575 795l-164 -151h-111l97 151h178zM353 598q58 0 109.5 -16.5t97 -51.5t72.5 -97.5t27 -145.5q0 -148 -88.5 -224.5t-217.5 -76.5q-46 0 -88.5 10t-83 33t-70.5 56.5t-48 86t-18 116.5q0 79 25.5 140t69 97t97.5 54.5t116 18.5zM353 482q-71 0 -113.5 -50.5
t-42.5 -143.5q0 -90 40 -137.5t116 -47.5q70 0 112.5 47t42.5 137q0 93 -39.5 144t-115.5 51z" />
    <glyph glyph-name="obreve.sc" horiz-adv-x="704" 
d="M528 799q-12 -74 -56 -115.5t-119 -41.5q-73 0 -118.5 41.5t-56.5 115.5h85q6 -29 30.5 -44.5t59.5 -15.5q77 0 90 60h85zM353 598q58 0 109.5 -16.5t97 -51.5t72.5 -97.5t27 -145.5q0 -148 -88.5 -224.5t-217.5 -76.5q-46 0 -88.5 10t-83 33t-70.5 56.5t-48 86
t-18 116.5q0 79 25.5 140t69 97t97.5 54.5t116 18.5zM353 482q-71 0 -113.5 -50.5t-42.5 -143.5q0 -90 40 -137.5t116 -47.5q70 0 112.5 47t42.5 137q0 93 -39.5 144t-115.5 51z" />
    <glyph glyph-name="uni01D2.sc" horiz-adv-x="704" 
d="M565 790l-138 -151h-148l-138 151h133l79 -72l79 72h133zM353 598q58 0 109.5 -16.5t97 -51.5t72.5 -97.5t27 -145.5q0 -148 -88.5 -224.5t-217.5 -76.5q-46 0 -88.5 10t-83 33t-70.5 56.5t-48 86t-18 116.5q0 79 25.5 140t69 97t97.5 54.5t116 18.5zM353 482
q-71 0 -113.5 -50.5t-42.5 -143.5q0 -90 40 -137.5t116 -47.5q70 0 112.5 47t42.5 137q0 93 -39.5 144t-115.5 51z" />
    <glyph glyph-name="ocircumflex.sc" horiz-adv-x="704" 
d="M427 800l138 -151h-133l-79 73l-79 -73h-133l138 151h148zM353 598q58 0 109.5 -16.5t97 -51.5t72.5 -97.5t27 -145.5q0 -148 -88.5 -224.5t-217.5 -76.5q-46 0 -88.5 10t-83 33t-70.5 56.5t-48 86t-18 116.5q0 79 25.5 140t69 97t97.5 54.5t116 18.5zM353 482
q-71 0 -113.5 -50.5t-42.5 -143.5q0 -90 40 -137.5t116 -47.5q70 0 112.5 47t42.5 137q0 93 -39.5 144t-115.5 51z" />
    <glyph glyph-name="odieresis.sc" horiz-adv-x="704" 
d="M235 812q32 0 56 -23.5t24 -56.5q0 -32 -24 -56t-56 -24t-56.5 24t-24.5 56q0 33 24 56.5t57 23.5zM471 812q33 0 57 -23.5t24 -56.5q0 -32 -24 -56t-57 -24q-32 0 -56 24t-24 56q0 33 24 56.5t56 23.5zM353 598q58 0 109.5 -16.5t97 -51.5t72.5 -97.5t27 -145.5
q0 -148 -88.5 -224.5t-217.5 -76.5q-46 0 -88.5 10t-83 33t-70.5 56.5t-48 86t-18 116.5q0 79 25.5 140t69 97t97.5 54.5t116 18.5zM353 482q-71 0 -113.5 -50.5t-42.5 -143.5q0 -90 40 -137.5t116 -47.5q70 0 112.5 47t42.5 137q0 93 -39.5 144t-115.5 51z" />
    <glyph glyph-name="odieresis.sc.ss01" horiz-adv-x="704" 
d="M307 801v-132h-135v132h135zM534 801v-132h-136v132h136zM353 598q58 0 109.5 -16.5t97 -51.5t72.5 -97.5t27 -145.5q0 -148 -88.5 -224.5t-217.5 -76.5q-46 0 -88.5 10t-83 33t-70.5 56.5t-48 86t-18 116.5q0 79 25.5 140t69 97t97.5 54.5t116 18.5zM353 482
q-71 0 -113.5 -50.5t-42.5 -143.5q0 -90 40 -137.5t116 -47.5q70 0 112.5 47t42.5 137q0 93 -39.5 144t-115.5 51z" />
    <glyph glyph-name="ograve.sc" horiz-adv-x="704" 
d="M317 795l97 -151h-111l-164 151h178zM353 598q58 0 109.5 -16.5t97 -51.5t72.5 -97.5t27 -145.5q0 -148 -88.5 -224.5t-217.5 -76.5q-46 0 -88.5 10t-83 33t-70.5 56.5t-48 86t-18 116.5q0 79 25.5 140t69 97t97.5 54.5t116 18.5zM353 482q-71 0 -113.5 -50.5
t-42.5 -143.5q0 -90 40 -137.5t116 -47.5q70 0 112.5 47t42.5 137q0 93 -39.5 144t-115.5 51z" />
    <glyph glyph-name="ohungarumlaut.sc" horiz-adv-x="704" 
d="M445 817l-142 -161h-104l87 161h159zM649 817l-150 -161h-104l94 161h160zM353 598q58 0 109.5 -16.5t97 -51.5t72.5 -97.5t27 -145.5q0 -148 -88.5 -224.5t-217.5 -76.5q-46 0 -88.5 10t-83 33t-70.5 56.5t-48 86t-18 116.5q0 79 25.5 140t69 97t97.5 54.5t116 18.5z
M353 482q-71 0 -113.5 -50.5t-42.5 -143.5q0 -90 40 -137.5t116 -47.5q70 0 112.5 47t42.5 137q0 93 -39.5 144t-115.5 51z" />
    <glyph glyph-name="omacron.sc" horiz-adv-x="704" 
d="M531 757v-99h-357v99h357zM353 598q58 0 109.5 -16.5t97 -51.5t72.5 -97.5t27 -145.5q0 -148 -88.5 -224.5t-217.5 -76.5q-46 0 -88.5 10t-83 33t-70.5 56.5t-48 86t-18 116.5q0 79 25.5 140t69 97t97.5 54.5t116 18.5zM353 482q-71 0 -113.5 -50.5t-42.5 -143.5
q0 -90 40 -137.5t116 -47.5q70 0 112.5 47t42.5 137q0 93 -39.5 144t-115.5 51z" />
    <glyph glyph-name="oslash.sc" horiz-adv-x="704" 
d="M647 658l-84 -132q96 -83 96 -233t-88.5 -228.5t-217.5 -78.5q-64 0 -121 22l-57 -92h-118l90 140q-102 82 -102 238q0 78 25 138t68.5 95.5t97.5 53t116 17.5q67 0 126 -23l52 83h117zM352 482q-72 0 -114.5 -48.5t-42.5 -139.5q0 -89 31 -135l198 311q-28 12 -72 12z
M481 416l-194 -304q30 -11 66 -11q71 0 114 49t43 142q0 78 -29 124z" />
    <glyph glyph-name="oslashacute.sc" horiz-adv-x="676" 
d="M560 795l-164 -151h-111l97 151h178zM633 658l-84 -132q96 -83 96 -233t-88.5 -228.5t-217.5 -78.5q-64 0 -121 22l-57 -92h-118l90 140q-102 82 -102 238q0 78 25 138t68.5 95.5t97.5 53t116 17.5q67 0 126 -23l52 83h117zM338 482q-72 0 -114.5 -48.5t-42.5 -139.5
q0 -89 31 -135l198 311q-28 12 -72 12zM467 416l-194 -304q30 -11 66 -11q71 0 114 49t43 142q0 78 -29 124z" />
    <glyph glyph-name="otilde.sc" horiz-adv-x="704" 
d="M290 786q32 0 58.5 -12t44.5 -24t29 -12q28 0 44 36h79q-7 -60 -42.5 -96t-85.5 -36q-32 0 -59 12t-45 24t-29 12q-28 0 -44 -35h-78q9 61 42.5 96t85.5 35zM353 598q58 0 109.5 -16.5t97 -51.5t72.5 -97.5t27 -145.5q0 -148 -88.5 -224.5t-217.5 -76.5q-46 0 -88.5 10
t-83 33t-70.5 56.5t-48 86t-18 116.5q0 79 25.5 140t69 97t97.5 54.5t116 18.5zM353 482q-71 0 -113.5 -50.5t-42.5 -143.5q0 -90 40 -137.5t116 -47.5q70 0 112.5 47t42.5 137q0 93 -39.5 144t-115.5 51z" />
    <glyph glyph-name="oe.sc" horiz-adv-x="886" 
d="M355 598q58 0 112 -18h364v-116h-261v-113h243v-110h-243v-124h269v-117h-379q-49 -14 -109 -14q-57 0 -109 17t-97.5 51.5t-72.5 95.5t-27 141q0 78 25.5 139t70 96.5t98.5 53.5t116 18zM355 481q-71 0 -114.5 -49t-43.5 -140q0 -90 41 -139.5t117 -49.5q45 0 70 12v353
q-27 13 -70 13z" />
    <glyph glyph-name="p.sc" horiz-adv-x="594" 
d="M311 580q127 0 189 -52.5t62 -144.5q0 -96 -63 -147.5t-187 -51.5h-92v-184h-145v580h236zM317 297q93 0 93 86q0 81 -89 81h-101v-167h97z" />
    <glyph glyph-name="thorn.sc" horiz-adv-x="594" 
d="M220 580v-88h91q126 0 188.5 -53.5t62.5 -147.5q0 -97 -62.5 -149.5t-187.5 -52.5h-92v-89h-145v580h145zM321 375h-101v-171h97q93 0 93 88q0 83 -89 83z" />
    <glyph glyph-name="q.sc" horiz-adv-x="704" 
d="M352 598q58 0 110 -17t97.5 -51.5t72.5 -97t27 -144.5q0 -143 -100 -226q43 -23 124 -34l-46 -129q-113 32 -175 107q-54 -20 -110 -20q-58 0 -110 16.5t-97.5 50.5t-72.5 95t-27 141q0 78 25.5 138.5t69 97t97.5 55t115 18.5zM352 481q-71 0 -113 -50t-42 -140
q0 -91 39.5 -139.5t115.5 -48.5q70 0 112.5 47.5t42.5 138.5t-39.5 141.5t-115.5 50.5z" />
    <glyph glyph-name="r.sc" horiz-adv-x="606" 
d="M312 580q123 0 185.5 -48.5t62.5 -132.5q0 -120 -126 -162l164 -237h-174l-131 210h-73v-210h-145v580h237zM321 467h-101v-147h97q91 0 91 76q0 71 -87 71z" />
    <glyph glyph-name="racute.sc" horiz-adv-x="606" 
d="M516 795l-164 -151h-111l97 151h178zM312 580q123 0 185.5 -48.5t62.5 -132.5q0 -120 -126 -162l164 -237h-174l-131 210h-73v-210h-145v580h237zM321 467h-101v-147h97q91 0 91 76q0 71 -87 71z" />
    <glyph glyph-name="rcaron.sc" horiz-adv-x="606" 
d="M506 790l-138 -151h-148l-138 151h133l79 -72l79 72h133zM312 580q123 0 185.5 -48.5t62.5 -132.5q0 -120 -126 -162l164 -237h-174l-131 210h-73v-210h-145v580h237zM321 467h-101v-147h97q91 0 91 76q0 71 -87 71z" />
    <glyph glyph-name="uni0157.sc" horiz-adv-x="606" 
d="M312 580q123 0 185.5 -48.5t62.5 -132.5q0 -120 -126 -162l164 -237h-174l-131 210h-73v-210h-145v580h237zM321 467h-101v-147h97q91 0 91 76q0 71 -87 71zM322 -60q34 0 54 -21.5t20 -53.5q0 -85 -89 -185l-60 25q32 53 39 105q-37 24 -37 62q0 28 21.5 48t51.5 20z
" />
    <glyph glyph-name="uni0157.sc.ss01" horiz-adv-x="606" 
d="M312 580q123 0 185.5 -48.5t62.5 -132.5q0 -120 -126 -162l164 -237h-174l-131 210h-73v-210h-145v580h237zM321 467h-101v-147h97q91 0 91 76q0 71 -87 71zM388 -71v-117l-66 -126h-67l35 126h-32v117h130z" />
    <glyph glyph-name="s.sc" horiz-adv-x="604" 
d="M300 598q165 0 265 -104l-102 -77q-66 66 -161 66q-44 0 -69 -14.5t-25 -41.5t27.5 -42t111.5 -29q118 -19 170.5 -61.5t52.5 -121.5q0 -88 -71 -137.5t-192 -49.5q-180 0 -285 112l104 82q78 -78 183 -78q50 0 80 16t30 44q0 29 -27.5 44t-117.5 31q-113 22 -165 64.5
t-52 120.5q0 80 66.5 128t176.5 48z" />
    <glyph glyph-name="sacute.sc" horiz-adv-x="604" 
d="M529 795l-164 -151h-111l97 151h178zM300 598q165 0 265 -104l-102 -77q-66 66 -161 66q-44 0 -69 -14.5t-25 -41.5t27.5 -42t111.5 -29q118 -19 170.5 -61.5t52.5 -121.5q0 -88 -71 -137.5t-192 -49.5q-180 0 -285 112l104 82q78 -78 183 -78q50 0 80 16t30 44
q0 29 -27.5 44t-117.5 31q-113 22 -165 64.5t-52 120.5q0 80 66.5 128t176.5 48z" />
    <glyph glyph-name="scaron.sc" horiz-adv-x="604" 
d="M519 790l-138 -151h-148l-138 151h133l79 -72l79 72h133zM300 598q165 0 265 -104l-102 -77q-66 66 -161 66q-44 0 -69 -14.5t-25 -41.5t27.5 -42t111.5 -29q118 -19 170.5 -61.5t52.5 -121.5q0 -88 -71 -137.5t-192 -49.5q-180 0 -285 112l104 82q78 -78 183 -78
q50 0 80 16t30 44q0 29 -27.5 44t-117.5 31q-113 22 -165 64.5t-52 120.5q0 80 66.5 128t176.5 48z" />
    </font>
</defs>
</svg>
